<?xml version="1.0" encoding="UTF-8" standalone="no"?>
<!-- Created with Inkscape (http://www.inkscape.org/) -->
<svg
   xmlns:dc="http://purl.org/dc/elements/1.1/"
   xmlns:cc="http://web.resource.org/cc/"
   xmlns:rdf="http://www.w3.org/1999/02/22-rdf-syntax-ns#"
   xmlns:svg="http://www.w3.org/2000/svg"
   xmlns="http://www.w3.org/2000/svg"
   xmlns:xlink="http://www.w3.org/1999/xlink"
   xmlns:sodipodi="http://inkscape.sourceforge.net/DTD/sodipodi-0.dtd"
   xmlns:inkscape="http://www.inkscape.org/namespaces/inkscape"
   width="320.00000px"
   height="240.00000px"
   id="svg2"
   sodipodi:version="0.32"
   inkscape:version="0.42.2"
   sodipodi:docbase="/home/joe/programming/gnumch/data/animation/pics"
   sodipodi:docname="diaper__normal_down_00.svg"
   inkscape:export-filename="/home/joe/programming/gnumch/data/animation/pics/muncher__eating_down_01.png"
   inkscape:export-xdpi="36.000000"
   inkscape:export-ydpi="36.000000">
  <defs
     id="defs3">
    <linearGradient
       id="linearGradient2531">
      <stop
         style="stop-color:#91c5a9;stop-opacity:1.0000000;"
         offset="0.0000000"
         id="stop2533" />
      <stop
         id="stop2539"
         offset="0.070000000"
         style="stop-color:#91c5a9;stop-opacity:1.0000000;" />
      <stop
         style="stop-color:#9107a9;stop-opacity:1.0000000;"
         offset="1.0000000"
         id="stop2535" />
    </linearGradient>
    <linearGradient
       inkscape:collect="always"
       xlink:href="#linearGradient2531"
       id="linearGradient3270"
       x1="161.71674"
       y1="195.70815"
       x2="161.45923"
       y2="12.572755"
       gradientUnits="userSpaceOnUse" />
  </defs>
  <sodipodi:namedview
     id="base"
     pagecolor="#ffffff"
     bordercolor="#666666"
     borderopacity="1.0"
     inkscape:pageopacity="0.0000000"
     inkscape:pageshadow="2"
     inkscape:zoom="3.8833333"
     inkscape:cx="160.06746"
     inkscape:cy="119.98738"
     inkscape:document-units="px"
     inkscape:current-layer="layer2"
     showborder="true"
     borderlayer="top"
     showgrid="true"
     inkscape:grid-bbox="true"
     inkscape:grid-points="true"
     showguides="true"
     gridspacingx="2.0000000px"
     gridspacingy="2.0000000px"
     gridtolerance="2.0000000px"
     inkscape:window-width="1478"
     inkscape:window-height="1107"
     inkscape:window-x="0"
     inkscape:window-y="30" />
  <metadata
     id="metadata4">
    <rdf:RDF>
      <cc:Work
         rdf:about="">
        <dc:format>image/svg+xml</dc:format>
        <dc:type
           rdf:resource="http://purl.org/dc/dcmitype/StillImage" />
      </cc:Work>
    </rdf:RDF>
  </metadata>
  <g
     style="display:none"
     inkscape:label="Layer 1"
     inkscape:groupmode="layer"
     id="layer1">
    <path
       style="fill:#0055ff;fill-opacity:1.0000000;fill-rule:evenodd;stroke:#000000;stroke-width:2.5000000;stroke-linecap:butt;stroke-linejoin:miter;stroke-miterlimit:4.0000000;stroke-opacity:1.0000000"
       d="M 16.000000,40.000000 L 256.00000,40.000000 L 256.00000,104.00000 L 80.000000,104.00000 L 80.000000,72.000000 L 48.000000,72.000000 L 48.000000,128.00000 L 280.00000,128.00000 L 280.00000,80.000000 L 312.00000,80.000000 L 312.00000,160.00000 L 16.000000,160.00000 L 16.000000,40.000000 z "
       id="path1061"
       sodipodi:nodetypes="ccccccccccccc" />
    <path
       style="fill:#0055ff;fill-opacity:1.0000000;fill-rule:evenodd;stroke:#000000;stroke-width:4.0000000;stroke-linecap:butt;stroke-linejoin:miter;stroke-miterlimit:4.0000000;stroke-opacity:1.0000000"
       d="M 150.00000,160.00000 L 134.00000,160.00000 L 154.00000,188.00000 L 134.00000,212.00000 L 134.00000,232.00000 L 178.00000,232.00000 L 178.00000,212.00000 L 150.00000,212.00000 L 166.00000,188.00000 L 150.00000,160.00000 z "
       id="path1064"
       sodipodi:nodetypes="czcccccccs" />
    <path
       style="fill:#0055ff;fill-opacity:1.0000000;fill-rule:evenodd;stroke:#000000;stroke-width:4.0000000;stroke-linecap:butt;stroke-linejoin:miter;stroke-miterlimit:4.0000000;stroke-opacity:1.0000000"
       d="M 178.00000,160.00000 L 162.00000,160.00000 L 182.00000,188.00000 L 162.00000,212.00000 L 162.00000,232.00000 L 206.00000,232.00000 L 206.00000,212.00000 L 178.00000,212.00000 L 194.00000,188.00000 L 178.00000,160.00000 z "
       id="path2091"
       sodipodi:nodetypes="czcccccccs" />
  </g>
  <g
     style="display:inline"
     inkscape:label="Layer 2"
     id="layer2"
     inkscape:groupmode="layer">
    <path
       style="opacity:1.0000000;color:#000000;fill:#9107a9;fill-opacity:1.0000000;fill-rule:evenodd;stroke:#000000;stroke-width:3.0000002;stroke-linecap:butt;stroke-linejoin:miter;marker:none;marker-start:none;marker-mid:none;marker-end:none;stroke-miterlimit:4.0000000;stroke-dasharray:none;stroke-dashoffset:0.0000000;stroke-opacity:1.0000000;visibility:visible;display:inline;overflow:visible"
       d="M 138.80597,188.00000 L 130.17288,224.00000 L 117.22322,224.00000 L 117.22322,232.00000 L 151.75563,232.00000 L 151.75563,224.00000 L 138.80597,224.00000 L 147.43907,188.00000 L 138.80597,188.00000 z "
       id="path6961" />
    <path
       style="opacity:1.0000000;color:#000000;fill:#9107a9;fill-opacity:1.0000000;fill-rule:evenodd;stroke:#000000;stroke-width:3.0000002;stroke-linecap:butt;stroke-linejoin:miter;marker:none;marker-start:none;marker-mid:none;marker-end:none;stroke-miterlimit:4.0000000;stroke-dasharray:none;stroke-dashoffset:0.0000000;stroke-opacity:1.0000000;visibility:visible;display:inline;overflow:visible"
       d="M 187.90674,188.00000 L 196.53983,224.00000 L 209.48949,224.00000 L 209.48949,232.00000 L 174.95708,232.00000 L 174.95708,224.00000 L 187.90674,224.00000 L 179.27363,188.00000 L 187.90674,188.00000 z "
       id="path6964" />
    <path
       style="fill:#ffffff;fill-opacity:1.0000000;fill-rule:evenodd;stroke:#000000;stroke-width:3.0000002;stroke-linecap:butt;stroke-linejoin:miter;stroke-miterlimit:4.0000000;stroke-dasharray:none;stroke-opacity:1.0000000"
       d="M 130.17288,129.50000 L 132.33115,144.00000 L 140.96425,142.00000 L 138.80597,129.50000 L 130.17288,129.50000 z "
       id="path5501"
       sodipodi:nodetypes="ccccc" />
    <path
       style="fill:#ffffff;fill-opacity:1.0000000;fill-rule:evenodd;stroke:#000000;stroke-width:3.0000002;stroke-linecap:butt;stroke-linejoin:miter;stroke-miterlimit:4.0000000;stroke-dasharray:none;stroke-opacity:1.0000000"
       d="M 141.50382,157.50000 L 141.50382,145.50000 L 151.75563,144.00000 L 150.13692,157.50000 L 141.50382,157.50000 z "
       id="path5503"
       sodipodi:nodetypes="ccccc" />
    <path
       style="fill:#ffffff;fill-opacity:1.0000000;fill-rule:evenodd;stroke:#000000;stroke-width:3.0000002;stroke-linecap:butt;stroke-linejoin:miter;stroke-miterlimit:4.0000000;stroke-dasharray:none;stroke-opacity:1.0000000"
       d="M 164.70527,132.00000 L 164.70527,142.00000 L 173.33838,144.00000 L 177.65493,132.00000 L 164.70527,132.00000 z "
       id="path5505"
       sodipodi:nodetypes="ccccc" />
    <path
       style="fill:#ffffff;fill-opacity:1.0000000;fill-rule:evenodd;stroke:#000000;stroke-width:3.0000002;stroke-linecap:butt;stroke-linejoin:miter;stroke-miterlimit:4.0000000;stroke-dasharray:none;stroke-opacity:1.0000000"
       d="M 181.97148,160.00000 L 184.12976,144.00000 L 192.76285,146.00000 L 190.60457,156.00000 L 181.97148,160.00000 z "
       id="path5507"
       sodipodi:nodetypes="ccccc" />
    <path
       id="path1065"
       style="fill:url(#linearGradient3270);fill-opacity:1.0000000;fill-rule:evenodd;stroke:#000000;stroke-width:2.9999986;stroke-linecap:butt;stroke-linejoin:miter;marker-mid:none;stroke-miterlimit:4.0000000;stroke-dasharray:none;stroke-opacity:1.0000000;opacity:1.0000000;color:#000000;marker:none;marker-start:none;marker-end:none;stroke-dashoffset:0.0000000;visibility:visible;display:inline;overflow:visible"
       d="M 160.33376,14.072755 C 62.412069,14.072755 33.583067,196.00000 160.33376,196.00000 C 286.59121,196.00000 257.76219,14.072755 160.33376,14.072755 z M 117.22322,151.00000 C 111.92135,148.54346 111.92135,138.45654 117.22322,136.00000 C 125.85632,132.00000 194.92113,132.00000 203.55423,136.00000 C 207.41508,137.78885 208.85610,148.54346 203.55423,151.00000 C 194.92113,155.00000 125.85632,155.00000 117.22322,151.00000 z "
       sodipodi:nodetypes="csccsssc" />
    <path
       sodipodi:type="arc"
       style="opacity:1.0000000;color:#000000;fill:#ffffff;fill-opacity:1.0000000;fill-rule:evenodd;stroke:#000000;stroke-width:2.3880033;stroke-linecap:butt;stroke-linejoin:round;marker:none;marker-start:none;marker-mid:none;marker-end:none;stroke-miterlimit:4.0000000;stroke-dasharray:none;stroke-dashoffset:0.0000000;stroke-opacity:1.0000000;visibility:visible;display:inline;overflow:visible"
       id="path3313"
       sodipodi:cx="138.00000"
       sodipodi:cy="70.000000"
       sodipodi:rx="14.000000"
       sodipodi:ry="18.000000"
       d="M 152.00000 70.000000 A 14.000000 18.000000 0 1 1  124.00000,70.000000 A 14.000000 18.000000 0 1 1  152.00000 70.000000 z"
       transform="matrix(1.214030,0.000000,0.000000,1.300000,-33.04669,-28.40000)" />
    <path
       sodipodi:type="arc"
       style="opacity:1.0000000;color:#000000;fill:#ffffff;fill-opacity:1.0000000;fill-rule:evenodd;stroke:#000000;stroke-width:2.3880033;stroke-linecap:butt;stroke-linejoin:round;marker:none;marker-start:none;marker-mid:none;marker-end:none;stroke-miterlimit:4.0000000;stroke-dasharray:none;stroke-dashoffset:0.0000000;stroke-opacity:1.0000000;visibility:visible;display:inline;overflow:visible"
       id="path4043"
       sodipodi:cx="138.00000"
       sodipodi:cy="70.000000"
       sodipodi:rx="14.000000"
       sodipodi:ry="18.000000"
       d="M 152.00000 70.000000 A 14.000000 18.000000 0 1 1  124.00000,70.000000 A 14.000000 18.000000 0 1 1  152.00000 70.000000 z"
       transform="matrix(1.214030,0.000000,0.000000,1.300000,18.75191,-28.40000)" />
    <path
       sodipodi:type="arc"
       style="opacity:1.0000000;color:#000000;fill:#000000;fill-opacity:1.0000000;fill-rule:evenodd;stroke:#000000;stroke-width:2.8879046;stroke-linecap:butt;stroke-linejoin:round;marker:none;marker-start:none;marker-mid:none;marker-end:none;stroke-miterlimit:4.0000000;stroke-dasharray:none;stroke-dashoffset:0.0000000;stroke-opacity:1.0000000;visibility:visible;display:inline;overflow:visible"
       id="path4045"
       sodipodi:cx="182.00000"
       sodipodi:cy="66.000000"
       sodipodi:rx="2.0000000"
       sodipodi:ry="2.0000000"
       d="M 184.00000 66.000000 A 2.0000000 2.0000000 0 1 1  180.00000,66.000000 A 2.0000000 2.0000000 0 1 1  184.00000 66.000000 z"
       transform="matrix(1.079138,0.000000,0.000000,1.000000,-10.11502,2.000000)" />
    <path
       sodipodi:type="arc"
       style="opacity:1.0000000;color:#000000;fill:#000000;fill-opacity:1.0000000;fill-rule:evenodd;stroke:#000000;stroke-width:2.8879046;stroke-linecap:butt;stroke-linejoin:round;marker:none;marker-start:none;marker-mid:none;marker-end:none;stroke-miterlimit:4.0000000;stroke-dasharray:none;stroke-dashoffset:0.0000000;stroke-opacity:1.0000000;visibility:visible;display:inline;overflow:visible"
       id="path4047"
       sodipodi:cx="134.00000"
       sodipodi:cy="54.000000"
       sodipodi:rx="2.0000000"
       sodipodi:ry="2.0000000"
       d="M 136.00000 54.000000 A 2.0000000 2.0000000 0 1 1  132.00000,54.000000 A 2.0000000 2.0000000 0 1 1  136.00000 54.000000 z"
       transform="matrix(1.079138,0.000000,0.000000,1.000000,-1.481918,10.00000)" />
    <path
       sodipodi:type="arc"
       style="opacity:1.0000000;color:#000000;fill:#ffffff;fill-opacity:1.0000000;fill-rule:evenodd;stroke:#000000;stroke-width:0.95182925;stroke-linecap:butt;stroke-linejoin:miter;marker:none;marker-start:none;marker-mid:none;marker-end:none;stroke-miterlimit:4.0000000;stroke-dasharray:none;stroke-dashoffset:0.0000000;stroke-opacity:1.0000000;visibility:visible;display:inline;overflow:visible"
       id="path3281"
       sodipodi:cx="151.00000"
       sodipodi:cy="177.00000"
       sodipodi:rx="3.0000000"
       sodipodi:ry="3.0000000"
       d="M 154.00000 177.00000 A 3.0000000 3.0000000 0 1 1  148.00000,177.00000 A 3.0000000 3.0000000 0 1 1  154.00000 177.00000 z"
       transform="matrix(0.702594,0.217288,-0.217288,0.702594,49.45868,18.13220)" />
    <path
       sodipodi:type="arc"
       style="opacity:1.0000000;color:#000000;fill:#ffffff;fill-opacity:1.0000000;fill-rule:evenodd;stroke:#000000;stroke-width:0.95182925;stroke-linecap:butt;stroke-linejoin:miter;marker:none;marker-start:none;marker-mid:none;marker-end:none;stroke-miterlimit:4.0000000;stroke-dasharray:none;stroke-dashoffset:0.0000000;stroke-opacity:1.0000000;visibility:visible;display:inline;overflow:visible"
       id="path3283"
       sodipodi:cx="203.00000"
       sodipodi:cy="147.00000"
       sodipodi:rx="3.0000000"
       sodipodi:ry="3.0000000"
       d="M 206.00000 147.00000 A 3.0000000 3.0000000 0 1 1  200.00000,147.00000 A 3.0000000 3.0000000 0 1 1  206.00000 147.00000 z"
       transform="matrix(0.702594,0.217288,-0.217288,0.702594,50.68296,31.59730)" />
    <path
       sodipodi:type="arc"
       style="opacity:1.0000000;color:#000000;fill:#ffffff;fill-opacity:1.0000000;fill-rule:evenodd;stroke:#000000;stroke-width:0.95182925;stroke-linecap:butt;stroke-linejoin:miter;marker:none;marker-start:none;marker-mid:none;marker-end:none;stroke-miterlimit:4.0000000;stroke-dasharray:none;stroke-dashoffset:0.0000000;stroke-opacity:1.0000000;visibility:visible;display:inline;overflow:visible"
       id="path3285"
       sodipodi:cx="167.00000"
       sodipodi:cy="155.00000"
       sodipodi:rx="3.0000000"
       sodipodi:ry="3.0000000"
       d="M 170.00000 155.00000 A 3.0000000 3.0000000 0 1 1  164.00000,155.00000 A 3.0000000 3.0000000 0 1 1  170.00000 155.00000 z"
       transform="matrix(0.702594,0.217288,-0.217288,0.702594,51.39267,26.81314)" />
    <path
       sodipodi:type="arc"
       style="opacity:1.0000000;color:#000000;fill:#ffffff;fill-opacity:1.0000000;fill-rule:evenodd;stroke:#000000;stroke-width:0.95182925;stroke-linecap:butt;stroke-linejoin:miter;marker:none;marker-start:none;marker-mid:none;marker-end:none;stroke-miterlimit:4.0000000;stroke-dasharray:none;stroke-dashoffset:0.0000000;stroke-opacity:1.0000000;visibility:visible;display:inline;overflow:visible"
       id="path4013"
       sodipodi:cx="151.00000"
       sodipodi:cy="177.00000"
       sodipodi:rx="3.0000000"
       sodipodi:ry="3.0000000"
       d="M 154.00000 177.00000 A 3.0000000 3.0000000 0 1 1  148.00000,177.00000 A 3.0000000 3.0000000 0 1 1  154.00000 177.00000 z"
       transform="matrix(0.702594,0.217288,-0.217288,0.702594,72.26043,29.03296)" />
    <path
       sodipodi:type="arc"
       style="opacity:1.0000000;color:#000000;fill:#ffffff;fill-opacity:1.0000000;fill-rule:evenodd;stroke:#000000;stroke-width:0.95182925;stroke-linecap:butt;stroke-linejoin:miter;marker:none;marker-start:none;marker-mid:none;marker-end:none;stroke-miterlimit:4.0000000;stroke-dasharray:none;stroke-dashoffset:0.0000000;stroke-opacity:1.0000000;visibility:visible;display:inline;overflow:visible"
       id="path4015"
       sodipodi:cx="203.00000"
       sodipodi:cy="147.00000"
       sodipodi:rx="3.0000000"
       sodipodi:ry="3.0000000"
       d="M 206.00000 147.00000 A 3.0000000 3.0000000 0 1 1  200.00000,147.00000 A 3.0000000 3.0000000 0 1 1  206.00000 147.00000 z"
       transform="matrix(0.702594,0.217288,-0.217288,0.702594,74.80272,28.27959)" />
    <path
       sodipodi:type="arc"
       style="opacity:1.0000000;color:#000000;fill:#ffffff;fill-opacity:1.0000000;fill-rule:evenodd;stroke:#000000;stroke-width:0.95182925;stroke-linecap:butt;stroke-linejoin:miter;marker:none;marker-start:none;marker-mid:none;marker-end:none;stroke-miterlimit:4.0000000;stroke-dasharray:none;stroke-dashoffset:0.0000000;stroke-opacity:1.0000000;visibility:visible;display:inline;overflow:visible"
       id="path4017"
       sodipodi:cx="167.00000"
       sodipodi:cy="155.00000"
       sodipodi:rx="3.0000000"
       sodipodi:ry="3.0000000"
       d="M 170.00000 155.00000 A 3.0000000 3.0000000 0 1 1  164.00000,155.00000 A 3.0000000 3.0000000 0 1 1  170.00000 155.00000 z"
       transform="matrix(0.702594,0.217288,-0.217288,0.702594,72.64805,41.46951)" />
    <path
       sodipodi:type="arc"
       style="opacity:1.0000000;color:#000000;fill:#ffffff;fill-opacity:1.0000000;fill-rule:evenodd;stroke:#000000;stroke-width:0.95182925;stroke-linecap:butt;stroke-linejoin:miter;marker:none;marker-start:none;marker-mid:none;marker-end:none;stroke-miterlimit:4.0000000;stroke-dasharray:none;stroke-dashoffset:0.0000000;stroke-opacity:1.0000000;visibility:visible;display:inline;overflow:visible"
       id="path4019"
       sodipodi:cx="151.00000"
       sodipodi:cy="177.00000"
       sodipodi:rx="3.0000000"
       sodipodi:ry="3.0000000"
       d="M 154.00000 177.00000 A 3.0000000 3.0000000 0 1 1  148.00000,177.00000 A 3.0000000 3.0000000 0 1 1  154.00000 177.00000 z"
       transform="matrix(0.702594,0.217288,-0.217288,0.702594,63.05061,22.72061)" />
    <path
       sodipodi:type="arc"
       style="opacity:1.0000000;color:#000000;fill:#ffffff;fill-opacity:1.0000000;fill-rule:evenodd;stroke:#000000;stroke-width:0.95182925;stroke-linecap:butt;stroke-linejoin:miter;marker:none;marker-start:none;marker-mid:none;marker-end:none;stroke-miterlimit:4.0000000;stroke-dasharray:none;stroke-dashoffset:0.0000000;stroke-opacity:1.0000000;visibility:visible;display:inline;overflow:visible"
       id="path4021"
       sodipodi:cx="203.00000"
       sodipodi:cy="147.00000"
       sodipodi:rx="3.0000000"
       sodipodi:ry="3.0000000"
       d="M 206.00000 147.00000 A 3.0000000 3.0000000 0 1 1  200.00000,147.00000 A 3.0000000 3.0000000 0 1 1  206.00000 147.00000 z"
       transform="matrix(0.702594,0.217288,-0.217288,0.702594,62.46767,33.31741)" />
    <path
       sodipodi:type="arc"
       style="opacity:1.0000000;color:#000000;fill:#ffffff;fill-opacity:1.0000000;fill-rule:evenodd;stroke:#000000;stroke-width:0.95182925;stroke-linecap:butt;stroke-linejoin:miter;marker:none;marker-start:none;marker-mid:none;marker-end:none;stroke-miterlimit:4.0000000;stroke-dasharray:none;stroke-dashoffset:0.0000000;stroke-opacity:1.0000000;visibility:visible;display:inline;overflow:visible"
       id="path4023"
       sodipodi:cx="167.00000"
       sodipodi:cy="155.00000"
       sodipodi:rx="3.0000000"
       sodipodi:ry="3.0000000"
       d="M 170.00000 155.00000 A 3.0000000 3.0000000 0 1 1  164.00000,155.00000 A 3.0000000 3.0000000 0 1 1  170.00000 155.00000 z"
       transform="matrix(0.702594,0.217288,-0.217288,0.702594,66.48748,20.31944)" />
    <path
       sodipodi:type="arc"
       style="opacity:1.0000000;color:#000000;fill:#ffffff;fill-opacity:1.0000000;fill-rule:evenodd;stroke:#000000;stroke-width:0.95182925;stroke-linecap:butt;stroke-linejoin:miter;marker:none;marker-start:none;marker-mid:none;marker-end:none;stroke-miterlimit:4.0000000;stroke-dasharray:none;stroke-dashoffset:0.0000000;stroke-opacity:1.0000000;visibility:visible;display:inline;overflow:visible"
       id="path4025"
       sodipodi:cx="151.00000"
       sodipodi:cy="177.00000"
       sodipodi:rx="3.0000000"
       sodipodi:ry="3.0000000"
       d="M 154.00000 177.00000 A 3.0000000 3.0000000 0 1 1  148.00000,177.00000 A 3.0000000 3.0000000 0 1 1  154.00000 177.00000 z"
       transform="matrix(0.702594,0.217288,-0.217288,0.702594,31.22759,-1.726374)" />
    <path
       sodipodi:type="arc"
       style="opacity:1.0000000;color:#000000;fill:#ffffff;fill-opacity:1.0000000;fill-rule:evenodd;stroke:#000000;stroke-width:0.95182925;stroke-linecap:butt;stroke-linejoin:miter;marker:none;marker-start:none;marker-mid:none;marker-end:none;stroke-miterlimit:4.0000000;stroke-dasharray:none;stroke-dashoffset:0.0000000;stroke-opacity:1.0000000;visibility:visible;display:inline;overflow:visible"
       id="path4027"
       sodipodi:cx="203.00000"
       sodipodi:cy="147.00000"
       sodipodi:rx="3.0000000"
       sodipodi:ry="3.0000000"
       d="M 206.00000 147.00000 A 3.0000000 3.0000000 0 1 1  200.00000,147.00000 A 3.0000000 3.0000000 0 1 1  206.00000 147.00000 z"
       transform="matrix(0.702594,0.217288,-0.217288,0.702594,68.14806,20.22490)" />
    <path
       sodipodi:type="arc"
       style="opacity:1.0000000;color:#000000;fill:#ffffff;fill-opacity:1.0000000;fill-rule:evenodd;stroke:#000000;stroke-width:0.95182925;stroke-linecap:butt;stroke-linejoin:miter;marker:none;marker-start:none;marker-mid:none;marker-end:none;stroke-miterlimit:4.0000000;stroke-dasharray:none;stroke-dashoffset:0.0000000;stroke-opacity:1.0000000;visibility:visible;display:inline;overflow:visible"
       id="path4029"
       sodipodi:cx="167.00000"
       sodipodi:cy="155.00000"
       sodipodi:rx="3.0000000"
       sodipodi:ry="3.0000000"
       d="M 170.00000 155.00000 A 3.0000000 3.0000000 0 1 1  164.00000,155.00000 A 3.0000000 3.0000000 0 1 1  170.00000 155.00000 z"
       transform="matrix(0.702594,0.217288,-0.217288,0.702594,38.72518,15.43439)" />
    <path
       sodipodi:type="arc"
       style="opacity:1.0000000;color:#000000;fill:#ffffff;fill-opacity:1.0000000;fill-rule:evenodd;stroke:#000000;stroke-width:0.95182925;stroke-linecap:butt;stroke-linejoin:miter;marker:none;marker-start:none;marker-mid:none;marker-end:none;stroke-miterlimit:4.0000000;stroke-dasharray:none;stroke-dashoffset:0.0000000;stroke-opacity:1.0000000;visibility:visible;display:inline;overflow:visible"
       id="path4757"
       sodipodi:cx="151.00000"
       sodipodi:cy="177.00000"
       sodipodi:rx="3.0000000"
       sodipodi:ry="3.0000000"
       d="M 154.00000 177.00000 A 3.0000000 3.0000000 0 1 1  148.00000,177.00000 A 3.0000000 3.0000000 0 1 1  154.00000 177.00000 z"
       transform="matrix(0.702594,0.217288,-0.217288,0.702594,39.07455,16.51924)" />
    <path
       sodipodi:type="arc"
       style="opacity:1.0000000;color:#000000;fill:#ffffff;fill-opacity:1.0000000;fill-rule:evenodd;stroke:#000000;stroke-width:0.95182925;stroke-linecap:butt;stroke-linejoin:miter;marker:none;marker-start:none;marker-mid:none;marker-end:none;stroke-miterlimit:4.0000000;stroke-dasharray:none;stroke-dashoffset:0.0000000;stroke-opacity:1.0000000;visibility:visible;display:inline;overflow:visible"
       id="path4759"
       sodipodi:cx="203.00000"
       sodipodi:cy="147.00000"
       sodipodi:rx="3.0000000"
       sodipodi:ry="3.0000000"
       d="M 206.00000 147.00000 A 3.0000000 3.0000000 0 1 1  200.00000,147.00000 A 3.0000000 3.0000000 0 1 1  206.00000 147.00000 z"
       transform="matrix(0.702594,0.217288,-0.217288,0.702594,82.71299,27.28278)" />
    <path
       sodipodi:type="arc"
       style="opacity:1.0000000;color:#000000;fill:#ffffff;fill-opacity:1.0000000;fill-rule:evenodd;stroke:#000000;stroke-width:0.95182925;stroke-linecap:butt;stroke-linejoin:miter;marker:none;marker-start:none;marker-mid:none;marker-end:none;stroke-miterlimit:4.0000000;stroke-dasharray:none;stroke-dashoffset:0.0000000;stroke-opacity:1.0000000;visibility:visible;display:inline;overflow:visible"
       id="path4761"
       sodipodi:cx="167.00000"
       sodipodi:cy="155.00000"
       sodipodi:rx="3.0000000"
       sodipodi:ry="3.0000000"
       d="M 170.00000 155.00000 A 3.0000000 3.0000000 0 1 1  164.00000,155.00000 A 3.0000000 3.0000000 0 1 1  170.00000 155.00000 z"
       transform="matrix(0.702594,0.217288,-0.217288,0.702594,80.94461,19.18867)" />
    <path
       sodipodi:type="arc"
       style="opacity:1.0000000;color:#000000;fill:#ffffff;fill-opacity:1.0000000;fill-rule:evenodd;stroke:#000000;stroke-width:0.95182925;stroke-linecap:butt;stroke-linejoin:miter;marker:none;marker-start:none;marker-mid:none;marker-end:none;stroke-miterlimit:4.0000000;stroke-dasharray:none;stroke-dashoffset:0.0000000;stroke-opacity:1.0000000;visibility:visible;display:inline;overflow:visible"
       id="path4763"
       sodipodi:cx="151.00000"
       sodipodi:cy="177.00000"
       sodipodi:rx="3.0000000"
       sodipodi:ry="3.0000000"
       d="M 154.00000 177.00000 A 3.0000000 3.0000000 0 1 1  148.00000,177.00000 A 3.0000000 3.0000000 0 1 1  154.00000 177.00000 z"
       transform="matrix(0.702594,0.217288,-0.217288,0.702594,55.41783,24.59602)" />
    <path
       sodipodi:type="arc"
       style="opacity:1.0000000;color:#000000;fill:#ffffff;fill-opacity:1.0000000;fill-rule:evenodd;stroke:#000000;stroke-width:0.95182925;stroke-linecap:butt;stroke-linejoin:miter;marker:none;marker-start:none;marker-mid:none;marker-end:none;stroke-miterlimit:4.0000000;stroke-dasharray:none;stroke-dashoffset:0.0000000;stroke-opacity:1.0000000;visibility:visible;display:inline;overflow:visible"
       id="path4765"
       sodipodi:cx="203.00000"
       sodipodi:cy="147.00000"
       sodipodi:rx="3.0000000"
       sodipodi:ry="3.0000000"
       d="M 206.00000 147.00000 A 3.0000000 3.0000000 0 1 1  200.00000,147.00000 A 3.0000000 3.0000000 0 1 1  206.00000 147.00000 z"
       transform="matrix(0.702594,0.217288,-0.217288,0.702594,106.8327,23.96511)" />
    <path
       sodipodi:type="arc"
       style="opacity:1.0000000;color:#000000;fill:#ffffff;fill-opacity:1.0000000;fill-rule:evenodd;stroke:#000000;stroke-width:0.95182925;stroke-linecap:butt;stroke-linejoin:miter;marker:none;marker-start:none;marker-mid:none;marker-end:none;stroke-miterlimit:4.0000000;stroke-dasharray:none;stroke-dashoffset:0.0000000;stroke-opacity:1.0000000;visibility:visible;display:inline;overflow:visible"
       id="path4767"
       sodipodi:cx="167.00000"
       sodipodi:cy="155.00000"
       sodipodi:rx="3.0000000"
       sodipodi:ry="3.0000000"
       d="M 170.00000 155.00000 A 3.0000000 3.0000000 0 1 1  164.00000,155.00000 A 3.0000000 3.0000000 0 1 1  170.00000 155.00000 z"
       transform="matrix(0.702594,0.217288,-0.217288,0.702594,104.6780,37.15498)" />
    <path
       sodipodi:type="arc"
       style="opacity:1.0000000;color:#000000;fill:#ffffff;fill-opacity:1.0000000;fill-rule:evenodd;stroke:#000000;stroke-width:0.95182925;stroke-linecap:butt;stroke-linejoin:miter;marker:none;marker-start:none;marker-mid:none;marker-end:none;stroke-miterlimit:4.0000000;stroke-dasharray:none;stroke-dashoffset:0.0000000;stroke-opacity:1.0000000;visibility:visible;display:inline;overflow:visible"
       id="path4769"
       sodipodi:cx="151.00000"
       sodipodi:cy="177.00000"
       sodipodi:rx="3.0000000"
       sodipodi:ry="3.0000000"
       d="M 154.00000 177.00000 A 3.0000000 3.0000000 0 1 1  148.00000,177.00000 A 3.0000000 3.0000000 0 1 1  154.00000 177.00000 z"
       transform="matrix(0.702594,0.217288,-0.217288,0.702594,105.8115,30.87826)" />
    <path
       sodipodi:type="arc"
       style="opacity:1.0000000;color:#000000;fill:#ffffff;fill-opacity:1.0000000;fill-rule:evenodd;stroke:#000000;stroke-width:0.95182925;stroke-linecap:butt;stroke-linejoin:miter;marker:none;marker-start:none;marker-mid:none;marker-end:none;stroke-miterlimit:4.0000000;stroke-dasharray:none;stroke-dashoffset:0.0000000;stroke-opacity:1.0000000;visibility:visible;display:inline;overflow:visible"
       id="path4771"
       sodipodi:cx="203.00000"
       sodipodi:cy="147.00000"
       sodipodi:rx="3.0000000"
       sodipodi:ry="3.0000000"
       d="M 206.00000 147.00000 A 3.0000000 3.0000000 0 1 1  200.00000,147.00000 A 3.0000000 3.0000000 0 1 1  206.00000 147.00000 z"
       transform="matrix(0.702594,0.217288,-0.217288,0.702594,94.49769,29.00289)" />
    <path
       sodipodi:type="arc"
       style="opacity:1.0000000;color:#000000;fill:#ffffff;fill-opacity:1.0000000;fill-rule:evenodd;stroke:#000000;stroke-width:0.95182925;stroke-linecap:butt;stroke-linejoin:miter;marker:none;marker-start:none;marker-mid:none;marker-end:none;stroke-miterlimit:4.0000000;stroke-dasharray:none;stroke-dashoffset:0.0000000;stroke-opacity:1.0000000;visibility:visible;display:inline;overflow:visible"
       id="path4773"
       sodipodi:cx="167.00000"
       sodipodi:cy="155.00000"
       sodipodi:rx="3.0000000"
       sodipodi:ry="3.0000000"
       d="M 170.00000 155.00000 A 3.0000000 3.0000000 0 1 1  164.00000,155.00000 A 3.0000000 3.0000000 0 1 1  170.00000 155.00000 z"
       transform="matrix(0.702594,0.217288,-0.217288,0.702594,111.4756,17.45895)" />
    <path
       sodipodi:type="arc"
       style="opacity:1.0000000;color:#000000;fill:#ffffff;fill-opacity:1.0000000;fill-rule:evenodd;stroke:#000000;stroke-width:0.95182925;stroke-linecap:butt;stroke-linejoin:miter;marker:none;marker-start:none;marker-mid:none;marker-end:none;stroke-miterlimit:4.0000000;stroke-dasharray:none;stroke-dashoffset:0.0000000;stroke-opacity:1.0000000;visibility:visible;display:inline;overflow:visible"
       id="path4777"
       sodipodi:cx="203.00000"
       sodipodi:cy="147.00000"
       sodipodi:rx="3.0000000"
       sodipodi:ry="3.0000000"
       d="M 206.00000 147.00000 A 3.0000000 3.0000000 0 1 1  200.00000,147.00000 A 3.0000000 3.0000000 0 1 1  206.00000 147.00000 z"
       transform="matrix(0.702594,0.217288,-0.217288,0.702594,111.2733,7.511608)" />
  </g>
</svg>
