<?xml version="1.0" encoding="UTF-8" standalone="no"?>
<!-- Created with Inkscape (http://www.inkscape.org/) -->
<svg
   xmlns:dc="http://purl.org/dc/elements/1.1/"
   xmlns:cc="http://web.resource.org/cc/"
   xmlns:rdf="http://www.w3.org/1999/02/22-rdf-syntax-ns#"
   xmlns:svg="http://www.w3.org/2000/svg"
   xmlns="http://www.w3.org/2000/svg"
   xmlns:xlink="http://www.w3.org/1999/xlink"
   xmlns:sodipodi="http://inkscape.sourceforge.net/DTD/sodipodi-0.dtd"
   xmlns:inkscape="http://www.inkscape.org/namespaces/inkscape"
   width="320.00000px"
   height="240.00000px"
   id="svg2"
   sodipodi:version="0.32"
   inkscape:version="0.42.2"
   sodipodi:docbase="/home/joe/programming/gnumch/data/animation/pics"
   sodipodi:docname="diaper__walking_up_06.svg"
   inkscape:export-filename="/home/joe/programming/gnumch/data/animation/pics/muncher__eating_down_01.png"
   inkscape:export-xdpi="36.000000"
   inkscape:export-ydpi="36.000000">
  <defs
     id="defs3">
    <linearGradient
       id="linearGradient2531">
      <stop
         style="stop-color:#91c5a9;stop-opacity:1.0000000;"
         offset="0.0000000"
         id="stop2533" />
      <stop
         id="stop2539"
         offset="0.070000000"
         style="stop-color:#91c5a9;stop-opacity:1.0000000;" />
      <stop
         style="stop-color:#9107a9;stop-opacity:1.0000000;"
         offset="1.0000000"
         id="stop2535" />
    </linearGradient>
    <linearGradient
       inkscape:collect="always"
       xlink:href="#linearGradient2531"
       id="linearGradient3270"
       x1="181.54506"
       y1="193.64807"
       x2="134.67812"
       y2="16.738197"
       gradientUnits="userSpaceOnUse" />
  </defs>
  <sodipodi:namedview
     id="base"
     pagecolor="#ffffff"
     bordercolor="#666666"
     borderopacity="1.0"
     inkscape:pageopacity="0.0000000"
     inkscape:pageshadow="2"
     inkscape:zoom="3.8833333"
     inkscape:cx="160.00000"
     inkscape:cy="120.00000"
     inkscape:document-units="px"
     inkscape:current-layer="layer2"
     showborder="true"
     borderlayer="top"
     showgrid="true"
     inkscape:grid-bbox="true"
     inkscape:grid-points="true"
     showguides="true"
     gridspacingx="2.0000000px"
     gridspacingy="2.0000000px"
     gridtolerance="2.0000000px"
     inkscape:window-width="1478"
     inkscape:window-height="1107"
     inkscape:window-x="0"
     inkscape:window-y="30" />
  <metadata
     id="metadata4">
    <rdf:RDF>
      <cc:Work
         rdf:about="">
        <dc:format>image/svg+xml</dc:format>
        <dc:type
           rdf:resource="http://purl.org/dc/dcmitype/StillImage" />
      </cc:Work>
    </rdf:RDF>
  </metadata>
  <g
     style="display:none"
     inkscape:label="Layer 1"
     inkscape:groupmode="layer"
     id="layer1">
    <path
       style="fill:#0055ff;fill-opacity:1.0000000;fill-rule:evenodd;stroke:#000000;stroke-width:2.5000000;stroke-linecap:butt;stroke-linejoin:miter;stroke-miterlimit:4.0000000;stroke-opacity:1.0000000"
       d="M 16.000000,40.000000 L 256.00000,40.000000 L 256.00000,104.00000 L 80.000000,104.00000 L 80.000000,72.000000 L 48.000000,72.000000 L 48.000000,128.00000 L 280.00000,128.00000 L 280.00000,80.000000 L 312.00000,80.000000 L 312.00000,160.00000 L 16.000000,160.00000 L 16.000000,40.000000 z "
       id="path1061"
       sodipodi:nodetypes="ccccccccccccc" />
    <path
       style="fill:#0055ff;fill-opacity:1.0000000;fill-rule:evenodd;stroke:#000000;stroke-width:4.0000000;stroke-linecap:butt;stroke-linejoin:miter;stroke-miterlimit:4.0000000;stroke-opacity:1.0000000"
       d="M 150.00000,160.00000 L 134.00000,160.00000 L 154.00000,188.00000 L 134.00000,212.00000 L 134.00000,232.00000 L 178.00000,232.00000 L 178.00000,212.00000 L 150.00000,212.00000 L 166.00000,188.00000 L 150.00000,160.00000 z "
       id="path1064"
       sodipodi:nodetypes="czcccccccs" />
    <path
       style="fill:#0055ff;fill-opacity:1.0000000;fill-rule:evenodd;stroke:#000000;stroke-width:4.0000000;stroke-linecap:butt;stroke-linejoin:miter;stroke-miterlimit:4.0000000;stroke-opacity:1.0000000"
       d="M 178.00000,160.00000 L 162.00000,160.00000 L 182.00000,188.00000 L 162.00000,212.00000 L 162.00000,232.00000 L 206.00000,232.00000 L 206.00000,212.00000 L 178.00000,212.00000 L 194.00000,188.00000 L 178.00000,160.00000 z "
       id="path2091"
       sodipodi:nodetypes="czcccccccs" />
  </g>
  <g
     style="display:inline"
     inkscape:label="Layer 2"
     id="layer2"
     inkscape:groupmode="layer">
    <path
       style="opacity:1.0000000;color:#000000;fill:#9107a9;fill-opacity:1.0000000;fill-rule:evenodd;stroke:#000000;stroke-width:2.9999986;stroke-linecap:butt;stroke-linejoin:miter;marker:none;marker-start:none;marker-mid:none;marker-end:none;stroke-miterlimit:4.0000000;stroke-dasharray:none;stroke-dashoffset:0.0000000;stroke-opacity:1.0000000;visibility:visible;display:inline;overflow:visible"
       d="M 151.22904,190.25092 L 148.82753,227.06049 L 136.16853,228.94465 L 137.51026,236.84543 L 171.26764,231.82096 L 169.92589,223.92020 L 157.26687,225.80437 L 159.66839,188.99480 L 151.22904,190.25092 z "
       id="path6961" />
    <path
       style="opacity:1.0000000;color:#000000;fill:#9107a9;fill-opacity:1.0000000;fill-rule:evenodd;stroke:#000000;stroke-width:2.9999986;stroke-linecap:butt;stroke-linejoin:miter;marker:none;marker-start:none;marker-mid:none;marker-end:none;stroke-miterlimit:4.0000000;stroke-dasharray:none;stroke-dashoffset:0.0000000;stroke-opacity:1.0000000;visibility:visible;display:inline;overflow:visible"
       d="M 199.22779,183.10676 L 223.49399,190.00000 L 220.17488,208.95893 L 232.83390,207.07478 L 234.17566,214.97552 L 200.41827,220.00000 L 199.07655,212.09922 L 211.73555,210.21505 L 214.94865,194.00000 L 190.54261,186.64503 L 199.22779,183.10676 z "
       id="path6964"
       sodipodi:nodetypes="ccccccccccc" />
    <path
       id="path1065"
       style="fill:url(#linearGradient3270);fill-opacity:1.0;fill-rule:evenodd;stroke:#000000;stroke-width:2.9999986;stroke-linecap:butt;stroke-linejoin:miter;marker-mid:none;stroke-miterlimit:4.0000000;stroke-dasharray:none;stroke-opacity:1.0000000"
       d="M 143.10300,15.348794 C 47.379047,29.596383 49.709476,213.46160 173.61542,195.01940 C 297.03917,176.64896 238.34480,1.1729722 143.10300,15.348794 z "
       sodipodi:nodetypes="csc" />
    <path
       sodipodi:type="arc"
       style="opacity:1.0000000;color:#000000;fill:#ffffff;fill-opacity:1.0000000;fill-rule:evenodd;stroke:#000000;stroke-width:0.95182928;stroke-linecap:butt;stroke-linejoin:miter;marker:none;marker-start:none;marker-mid:none;marker-end:none;stroke-miterlimit:4.0000000;stroke-dasharray:none;stroke-dashoffset:0.0000000;stroke-opacity:1.0000000;visibility:visible;display:inline;overflow:visible"
       id="path3281"
       sodipodi:cx="151.00000"
       sodipodi:cy="177.00000"
       sodipodi:rx="3.0000000"
       sodipodi:ry="3.0000000"
       d="M 154.00000 177.00000 A 3.0000000 3.0000000 0 1 1  148.00000,177.00000 A 3.0000000 3.0000000 0 1 1  154.00000 177.00000 z"
       transform="matrix(0.735426,0.000000,0.000000,0.735426,26.79148,54.85875)" />
    <path
       sodipodi:type="arc"
       style="opacity:1.0000000;color:#000000;fill:#ffffff;fill-opacity:1.0000000;fill-rule:evenodd;stroke:#000000;stroke-width:0.95182928;stroke-linecap:butt;stroke-linejoin:miter;marker:none;marker-start:none;marker-mid:none;marker-end:none;stroke-miterlimit:4.0000000;stroke-dasharray:none;stroke-dashoffset:0.0000000;stroke-opacity:1.0000000;visibility:visible;display:inline;overflow:visible"
       id="path3283"
       sodipodi:cx="203.00000"
       sodipodi:cy="147.00000"
       sodipodi:rx="3.0000000"
       sodipodi:ry="3.0000000"
       d="M 206.00000 147.00000 A 3.0000000 3.0000000 0 1 1  200.00000,147.00000 A 3.0000000 3.0000000 0 1 1  206.00000 147.00000 z"
       transform="matrix(0.735426,0.000000,0.000000,0.735426,31.93946,67.36099)" />
    <path
       sodipodi:type="arc"
       style="opacity:1.0000000;color:#000000;fill:#ffffff;fill-opacity:1.0000000;fill-rule:evenodd;stroke:#000000;stroke-width:0.95182928;stroke-linecap:butt;stroke-linejoin:miter;marker:none;marker-start:none;marker-mid:none;marker-end:none;stroke-miterlimit:4.0000000;stroke-dasharray:none;stroke-dashoffset:0.0000000;stroke-opacity:1.0000000;visibility:visible;display:inline;overflow:visible"
       id="path3285"
       sodipodi:cx="167.00000"
       sodipodi:cy="155.00000"
       sodipodi:rx="3.0000000"
       sodipodi:ry="3.0000000"
       d="M 170.00000 155.00000 A 3.0000000 3.0000000 0 1 1  164.00000,155.00000 A 3.0000000 3.0000000 0 1 1  170.00000 155.00000 z"
       transform="matrix(0.735426,0.000000,0.000000,0.735426,31.20403,62.58072)" />
    <path
       sodipodi:type="arc"
       style="opacity:1.0000000;color:#000000;fill:#ffffff;fill-opacity:1.0000000;fill-rule:evenodd;stroke:#000000;stroke-width:0.95182928;stroke-linecap:butt;stroke-linejoin:miter;marker:none;marker-start:none;marker-mid:none;marker-end:none;stroke-miterlimit:4.0000000;stroke-dasharray:none;stroke-dashoffset:0.0000000;stroke-opacity:1.0000000;visibility:visible;display:inline;overflow:visible"
       id="path4013"
       sodipodi:cx="151.00000"
       sodipodi:cy="177.00000"
       sodipodi:rx="3.0000000"
       sodipodi:ry="3.0000000"
       d="M 154.00000 177.00000 A 3.0000000 3.0000000 0 1 1  148.00000,177.00000 A 3.0000000 3.0000000 0 1 1  154.00000 177.00000 z"
       transform="matrix(0.735426,0.000000,0.000000,0.735426,51.79596,58.53588)" />
    <path
       sodipodi:type="arc"
       style="opacity:1.0000000;color:#000000;fill:#ffffff;fill-opacity:1.0000000;fill-rule:evenodd;stroke:#000000;stroke-width:0.95182928;stroke-linecap:butt;stroke-linejoin:miter;marker:none;marker-start:none;marker-mid:none;marker-end:none;stroke-miterlimit:4.0000000;stroke-dasharray:none;stroke-dashoffset:0.0000000;stroke-opacity:1.0000000;visibility:visible;display:inline;overflow:visible"
       id="path4015"
       sodipodi:cx="203.00000"
       sodipodi:cy="147.00000"
       sodipodi:rx="3.0000000"
       sodipodi:ry="3.0000000"
       d="M 206.00000 147.00000 A 3.0000000 3.0000000 0 1 1  200.00000,147.00000 A 3.0000000 3.0000000 0 1 1  206.00000 147.00000 z"
       transform="matrix(0.735426,0.000000,0.000000,0.735426,54.00224,57.06502)" />
    <path
       sodipodi:type="arc"
       style="opacity:1.0000000;color:#000000;fill:#ffffff;fill-opacity:1.0000000;fill-rule:evenodd;stroke:#000000;stroke-width:0.95182928;stroke-linecap:butt;stroke-linejoin:miter;marker:none;marker-start:none;marker-mid:none;marker-end:none;stroke-miterlimit:4.0000000;stroke-dasharray:none;stroke-dashoffset:0.0000000;stroke-opacity:1.0000000;visibility:visible;display:inline;overflow:visible"
       id="path4017"
       sodipodi:cx="167.00000"
       sodipodi:cy="155.00000"
       sodipodi:rx="3.0000000"
       sodipodi:ry="3.0000000"
       d="M 170.00000 155.00000 A 3.0000000 3.0000000 0 1 1  164.00000,155.00000 A 3.0000000 3.0000000 0 1 1  170.00000 155.00000 z"
       transform="matrix(0.735426,0.000000,0.000000,0.735426,55.84081,70.30269)" />
    <path
       sodipodi:type="arc"
       style="opacity:1.0000000;color:#000000;fill:#ffffff;fill-opacity:1.0000000;fill-rule:evenodd;stroke:#000000;stroke-width:0.95182928;stroke-linecap:butt;stroke-linejoin:miter;marker:none;marker-start:none;marker-mid:none;marker-end:none;stroke-miterlimit:4.0000000;stroke-dasharray:none;stroke-dashoffset:0.0000000;stroke-opacity:1.0000000;visibility:visible;display:inline;overflow:visible"
       id="path4019"
       sodipodi:cx="151.00000"
       sodipodi:cy="177.00000"
       sodipodi:rx="3.0000000"
       sodipodi:ry="3.0000000"
       d="M 154.00000 177.00000 A 3.0000000 3.0000000 0 1 1  148.00000,177.00000 A 3.0000000 3.0000000 0 1 1  154.00000 177.00000 z"
       transform="matrix(0.735426,0.000000,0.000000,0.735426,41.13229,55.22646)" />
    <path
       sodipodi:type="arc"
       style="opacity:1.0000000;color:#000000;fill:#ffffff;fill-opacity:1.0000000;fill-rule:evenodd;stroke:#000000;stroke-width:0.95182928;stroke-linecap:butt;stroke-linejoin:miter;marker:none;marker-start:none;marker-mid:none;marker-end:none;stroke-miterlimit:4.0000000;stroke-dasharray:none;stroke-dashoffset:0.0000000;stroke-opacity:1.0000000;visibility:visible;display:inline;overflow:visible"
       id="path4021"
       sodipodi:cx="203.00000"
       sodipodi:cy="147.00000"
       sodipodi:rx="3.0000000"
       sodipodi:ry="3.0000000"
       d="M 206.00000 147.00000 A 3.0000000 3.0000000 0 1 1  200.00000,147.00000 A 3.0000000 3.0000000 0 1 1  206.00000 147.00000 z"
       transform="matrix(0.735426,0.000000,0.000000,0.735426,43.70628,65.52242)" />
    <path
       sodipodi:type="arc"
       style="opacity:1.0000000;color:#000000;fill:#ffffff;fill-opacity:1.0000000;fill-rule:evenodd;stroke:#000000;stroke-width:0.95182928;stroke-linecap:butt;stroke-linejoin:miter;marker:none;marker-start:none;marker-mid:none;marker-end:none;stroke-miterlimit:4.0000000;stroke-dasharray:none;stroke-dashoffset:0.0000000;stroke-opacity:1.0000000;visibility:visible;display:inline;overflow:visible"
       id="path4023"
       sodipodi:cx="167.00000"
       sodipodi:cy="155.00000"
       sodipodi:rx="3.0000000"
       sodipodi:ry="3.0000000"
       d="M 170.00000 155.00000 A 3.0000000 3.0000000 0 1 1  164.00000,155.00000 A 3.0000000 3.0000000 0 1 1  170.00000 155.00000 z"
       transform="matrix(0.735426,0.000000,0.000000,0.735426,43.70628,51.91704)" />
    <path
       sodipodi:type="arc"
       style="opacity:1.0000000;color:#000000;fill:#ffffff;fill-opacity:1.0000000;fill-rule:evenodd;stroke:#000000;stroke-width:0.95182925;stroke-linecap:butt;stroke-linejoin:miter;marker:none;marker-start:none;marker-mid:none;marker-end:none;stroke-miterlimit:4.0000000;stroke-dasharray:none;stroke-dashoffset:0.0000000;stroke-opacity:1.0000000;visibility:visible;display:inline;overflow:visible"
       id="path4025"
       sodipodi:cx="151.00000"
       sodipodi:cy="177.00000"
       sodipodi:rx="3.0000000"
       sodipodi:ry="3.0000000"
       d="M 154.00000 177.00000 A 3.0000000 3.0000000 0 1 1  148.00000,177.00000 A 3.0000000 3.0000000 0 1 1  154.00000 177.00000 z"
       transform="matrix(0.735426,0.000000,0.000000,0.735426,3.506952,41.27332)" />
    <path
       sodipodi:type="arc"
       style="opacity:1.0000000;color:#000000;fill:#ffffff;fill-opacity:1.0000000;fill-rule:evenodd;stroke:#000000;stroke-width:0.95182925;stroke-linecap:butt;stroke-linejoin:miter;marker:none;marker-start:none;marker-mid:none;marker-end:none;stroke-miterlimit:4.0000000;stroke-dasharray:none;stroke-dashoffset:0.0000000;stroke-opacity:1.0000000;visibility:visible;display:inline;overflow:visible"
       id="path4027"
       sodipodi:cx="203.00000"
       sodipodi:cy="147.00000"
       sodipodi:rx="3.0000000"
       sodipodi:ry="3.0000000"
       d="M 206.00000 147.00000 A 3.0000000 3.0000000 0 1 1  200.00000,147.00000 A 3.0000000 3.0000000 0 1 1  206.00000 147.00000 z"
       transform="matrix(0.735426,0.000000,0.000000,0.735426,45.26480,51.33610)" />
    <path
       sodipodi:type="arc"
       style="opacity:1.0000000;color:#000000;fill:#ffffff;fill-opacity:1.0000000;fill-rule:evenodd;stroke:#000000;stroke-width:0.95182925;stroke-linecap:butt;stroke-linejoin:miter;marker:none;marker-start:none;marker-mid:none;marker-end:none;stroke-miterlimit:4.0000000;stroke-dasharray:none;stroke-dashoffset:0.0000000;stroke-opacity:1.0000000;visibility:visible;display:inline;overflow:visible"
       id="path4029"
       sodipodi:cx="167.00000"
       sodipodi:cy="155.00000"
       sodipodi:rx="3.0000000"
       sodipodi:ry="3.0000000"
       d="M 170.00000 155.00000 A 3.0000000 3.0000000 0 1 1  164.00000,155.00000 A 3.0000000 3.0000000 0 1 1  170.00000 155.00000 z"
       transform="matrix(0.735426,0.000000,0.000000,0.735426,15.74014,55.45269)" />
    <path
       sodipodi:type="arc"
       style="opacity:1.0000000;color:#000000;fill:#ffffff;fill-opacity:1.0000000;fill-rule:evenodd;stroke:#000000;stroke-width:0.95182925;stroke-linecap:butt;stroke-linejoin:miter;marker:none;marker-start:none;marker-mid:none;marker-end:none;stroke-miterlimit:4.0000000;stroke-dasharray:none;stroke-dashoffset:0.0000000;stroke-opacity:1.0000000;visibility:visible;display:inline;overflow:visible"
       id="path4757"
       sodipodi:cx="151.00000"
       sodipodi:cy="177.00000"
       sodipodi:rx="3.0000000"
       sodipodi:ry="3.0000000"
       d="M 154.00000 177.00000 A 3.0000000 3.0000000 0 1 1  148.00000,177.00000 A 3.0000000 3.0000000 0 1 1  154.00000 177.00000 z"
       transform="matrix(0.735426,0.000000,0.000000,0.735426,16.39440,56.38588)" />
    <path
       sodipodi:type="arc"
       style="opacity:1.0000000;color:#000000;fill:#ffffff;fill-opacity:1.0000000;fill-rule:evenodd;stroke:#000000;stroke-width:0.95182925;stroke-linecap:butt;stroke-linejoin:miter;marker:none;marker-start:none;marker-mid:none;marker-end:none;stroke-miterlimit:4.0000000;stroke-dasharray:none;stroke-dashoffset:0.0000000;stroke-opacity:1.0000000;visibility:visible;display:inline;overflow:visible"
       id="path4759"
       sodipodi:cx="203.00000"
       sodipodi:cy="147.00000"
       sodipodi:rx="3.0000000"
       sodipodi:ry="3.0000000"
       d="M 206.00000 147.00000 A 3.0000000 3.0000000 0 1 1  200.00000,147.00000 A 3.0000000 3.0000000 0 1 1  206.00000 147.00000 z"
       transform="matrix(0.735426,0.000000,0.000000,0.735426,61.26480,53.77556)" />
    <path
       sodipodi:type="arc"
       style="opacity:1.0000000;color:#000000;fill:#ffffff;fill-opacity:1.0000000;fill-rule:evenodd;stroke:#000000;stroke-width:0.95182925;stroke-linecap:butt;stroke-linejoin:miter;marker:none;marker-start:none;marker-mid:none;marker-end:none;stroke-miterlimit:4.0000000;stroke-dasharray:none;stroke-dashoffset:0.0000000;stroke-opacity:1.0000000;visibility:visible;display:inline;overflow:visible"
       id="path4761"
       sodipodi:cx="167.00000"
       sodipodi:cy="155.00000"
       sodipodi:rx="3.0000000"
       sodipodi:ry="3.0000000"
       d="M 170.00000 155.00000 A 3.0000000 3.0000000 0 1 1  164.00000,155.00000 A 3.0000000 3.0000000 0 1 1  170.00000 155.00000 z"
       transform="matrix(0.735426,0.000000,0.000000,0.735426,57.18386,46.56525)" />
    <path
       sodipodi:type="arc"
       style="opacity:1.0000000;color:#000000;fill:#ffffff;fill-opacity:1.0000000;fill-rule:evenodd;stroke:#000000;stroke-width:0.95182925;stroke-linecap:butt;stroke-linejoin:miter;marker:none;marker-start:none;marker-mid:none;marker-end:none;stroke-miterlimit:4.0000000;stroke-dasharray:none;stroke-dashoffset:0.0000000;stroke-opacity:1.0000000;visibility:visible;display:inline;overflow:visible"
       id="path4763"
       sodipodi:cx="151.00000"
       sodipodi:cy="177.00000"
       sodipodi:rx="3.0000000"
       sodipodi:ry="3.0000000"
       d="M 154.00000 177.00000 A 3.0000000 3.0000000 0 1 1  148.00000,177.00000 A 3.0000000 3.0000000 0 1 1  154.00000 177.00000 z"
       transform="matrix(0.735426,0.000000,0.000000,0.735426,34.39440,59.27332)" />
    <path
       sodipodi:type="arc"
       style="opacity:1.0000000;color:#000000;fill:#ffffff;fill-opacity:1.0000000;fill-rule:evenodd;stroke:#000000;stroke-width:0.95182925;stroke-linecap:butt;stroke-linejoin:miter;marker:none;marker-start:none;marker-mid:none;marker-end:none;stroke-miterlimit:4.0000000;stroke-dasharray:none;stroke-dashoffset:0.0000000;stroke-opacity:1.0000000;visibility:visible;display:inline;overflow:visible"
       id="path4765"
       sodipodi:cx="203.00000"
       sodipodi:cy="147.00000"
       sodipodi:rx="3.0000000"
       sodipodi:ry="3.0000000"
       d="M 206.00000 147.00000 A 3.0000000 3.0000000 0 1 1  200.00000,147.00000 A 3.0000000 3.0000000 0 1 1  206.00000 147.00000 z"
       transform="matrix(0.735426,0.000000,0.000000,0.735426,83.32754,43.47959)" />
    <path
       sodipodi:type="arc"
       style="opacity:1.0000000;color:#000000;fill:#ffffff;fill-opacity:1.0000000;fill-rule:evenodd;stroke:#000000;stroke-width:0.95182925;stroke-linecap:butt;stroke-linejoin:miter;marker:none;marker-start:none;marker-mid:none;marker-end:none;stroke-miterlimit:4.0000000;stroke-dasharray:none;stroke-dashoffset:0.0000000;stroke-opacity:1.0000000;visibility:visible;display:inline;overflow:visible"
       id="path4767"
       sodipodi:cx="167.00000"
       sodipodi:cy="155.00000"
       sodipodi:rx="3.0000000"
       sodipodi:ry="3.0000000"
       d="M 170.00000 155.00000 A 3.0000000 3.0000000 0 1 1  164.00000,155.00000 A 3.0000000 3.0000000 0 1 1  170.00000 155.00000 z"
       transform="matrix(0.735426,0.000000,0.000000,0.735426,85.16614,56.71726)" />
    <path
       sodipodi:type="arc"
       style="opacity:1.0000000;color:#000000;fill:#ffffff;fill-opacity:1.0000000;fill-rule:evenodd;stroke:#000000;stroke-width:0.95182925;stroke-linecap:butt;stroke-linejoin:miter;marker:none;marker-start:none;marker-mid:none;marker-end:none;stroke-miterlimit:4.0000000;stroke-dasharray:none;stroke-dashoffset:0.0000000;stroke-opacity:1.0000000;visibility:visible;display:inline;overflow:visible"
       id="path4769"
       sodipodi:cx="151.00000"
       sodipodi:cy="177.00000"
       sodipodi:rx="3.0000000"
       sodipodi:ry="3.0000000"
       d="M 154.00000 177.00000 A 3.0000000 3.0000000 0 1 1  148.00000,177.00000 A 3.0000000 3.0000000 0 1 1  154.00000 177.00000 z"
       transform="matrix(0.735426,0.000000,0.000000,0.735426,84.39440,50.38588)" />
    <path
       sodipodi:type="arc"
       style="opacity:1.0000000;color:#000000;fill:#ffffff;fill-opacity:1.0000000;fill-rule:evenodd;stroke:#000000;stroke-width:0.95182925;stroke-linecap:butt;stroke-linejoin:miter;marker:none;marker-start:none;marker-mid:none;marker-end:none;stroke-miterlimit:4.0000000;stroke-dasharray:none;stroke-dashoffset:0.0000000;stroke-opacity:1.0000000;visibility:visible;display:inline;overflow:visible"
       id="path4771"
       sodipodi:cx="203.00000"
       sodipodi:cy="147.00000"
       sodipodi:rx="3.0000000"
       sodipodi:ry="3.0000000"
       d="M 206.00000 147.00000 A 3.0000000 3.0000000 0 1 1  200.00000,147.00000 A 3.0000000 3.0000000 0 1 1  206.00000 147.00000 z"
       transform="matrix(0.735426,0.000000,0.000000,0.735426,73.03162,51.93699)" />
    <path
       sodipodi:type="arc"
       style="opacity:1.0000000;color:#000000;fill:#ffffff;fill-opacity:1.0000000;fill-rule:evenodd;stroke:#000000;stroke-width:0.95182925;stroke-linecap:butt;stroke-linejoin:miter;marker:none;marker-start:none;marker-mid:none;marker-end:none;stroke-miterlimit:4.0000000;stroke-dasharray:none;stroke-dashoffset:0.0000000;stroke-opacity:1.0000000;visibility:visible;display:inline;overflow:visible"
       id="path4773"
       sodipodi:cx="167.00000"
       sodipodi:cy="155.00000"
       sodipodi:rx="3.0000000"
       sodipodi:ry="3.0000000"
       d="M 170.00000 155.00000 A 3.0000000 3.0000000 0 1 1  164.00000,155.00000 A 3.0000000 3.0000000 0 1 1  170.00000 155.00000 z"
       transform="matrix(0.735426,0.000000,0.000000,0.735426,79.74014,30.56525)" />
    <path
       sodipodi:type="arc"
       style="opacity:1.0000000;color:#000000;fill:#ffffff;fill-opacity:1.0000000;fill-rule:evenodd;stroke:#000000;stroke-width:0.95182925;stroke-linecap:butt;stroke-linejoin:miter;marker:none;marker-start:none;marker-mid:none;marker-end:none;stroke-miterlimit:4.0000000;stroke-dasharray:none;stroke-dashoffset:0.0000000;stroke-opacity:1.0000000;visibility:visible;display:inline;overflow:visible"
       id="path4775"
       sodipodi:cx="151.00000"
       sodipodi:cy="177.00000"
       sodipodi:rx="3.0000000"
       sodipodi:ry="3.0000000"
       d="M 154.00000 177.00000 A 3.0000000 3.0000000 0 1 1  148.00000,177.00000 A 3.0000000 3.0000000 0 1 1  154.00000 177.00000 z"
       transform="matrix(0.735426,0.000000,0.000000,0.735426,42.14373,23.99080)" />
    <path
       sodipodi:type="arc"
       style="opacity:1.0000000;color:#000000;fill:#ffffff;fill-opacity:1.0000000;fill-rule:evenodd;stroke:#000000;stroke-width:0.95182925;stroke-linecap:butt;stroke-linejoin:miter;marker:none;marker-start:none;marker-mid:none;marker-end:none;stroke-miterlimit:4.0000000;stroke-dasharray:none;stroke-dashoffset:0.0000000;stroke-opacity:1.0000000;visibility:visible;display:inline;overflow:visible"
       id="path4777"
       sodipodi:cx="203.00000"
       sodipodi:cy="147.00000"
       sodipodi:rx="3.0000000"
       sodipodi:ry="3.0000000"
       d="M 206.00000 147.00000 A 3.0000000 3.0000000 0 1 1  200.00000,147.00000 A 3.0000000 3.0000000 0 1 1  206.00000 147.00000 z"
       transform="matrix(0.735426,0.000000,0.000000,0.735426,82.70852,26.44866)" />
    <path
       sodipodi:type="arc"
       style="opacity:1.0000000;color:#000000;fill:#ffffff;fill-opacity:1.0000000;fill-rule:evenodd;stroke:#000000;stroke-width:0.95182925;stroke-linecap:butt;stroke-linejoin:miter;marker:none;marker-start:none;marker-mid:none;marker-end:none;stroke-miterlimit:4.0000000;stroke-dasharray:none;stroke-dashoffset:0.0000000;stroke-opacity:1.0000000;visibility:visible;display:inline;overflow:visible"
       id="path4779"
       sodipodi:cx="167.00000"
       sodipodi:cy="155.00000"
       sodipodi:rx="3.0000000"
       sodipodi:ry="3.0000000"
       d="M 170.00000 155.00000 A 3.0000000 3.0000000 0 1 1  164.00000,155.00000 A 3.0000000 3.0000000 0 1 1  170.00000 155.00000 z"
       transform="matrix(0.735426,0.000000,0.000000,0.735426,51.33655,33.91906)" />
  </g>
</svg>
