<?xml version="1.0" encoding="UTF-8" standalone="no"?>
<!-- Created with Inkscape (http://www.inkscape.org/) -->
<svg
   xmlns:dc="http://purl.org/dc/elements/1.1/"
   xmlns:cc="http://web.resource.org/cc/"
   xmlns:rdf="http://www.w3.org/1999/02/22-rdf-syntax-ns#"
   xmlns:svg="http://www.w3.org/2000/svg"
   xmlns="http://www.w3.org/2000/svg"
   xmlns:xlink="http://www.w3.org/1999/xlink"
   xmlns:sodipodi="http://inkscape.sourceforge.net/DTD/sodipodi-0.dtd"
   xmlns:inkscape="http://www.inkscape.org/namespaces/inkscape"
   width="320.00000px"
   height="240.00000px"
   id="svg2"
   sodipodi:version="0.32"
   inkscape:version="0.42.2"
   sodipodi:docbase="/home/joe/programming/gnumch/data/animation/pics"
   sodipodi:docname="diaper__walking_up_01.svg"
   inkscape:export-filename="/home/joe/programming/gnumch/data/animation/pics/muncher__eating_down_01.png"
   inkscape:export-xdpi="36.000000"
   inkscape:export-ydpi="36.000000">
  <defs
     id="defs3">
    <linearGradient
       id="linearGradient2531">
      <stop
         style="stop-color:#91c5a9;stop-opacity:1.0000000;"
         offset="0.0000000"
         id="stop2533" />
      <stop
         id="stop2539"
         offset="0.070000000"
         style="stop-color:#91c5a9;stop-opacity:1.0000000;" />
      <stop
         style="stop-color:#9107a9;stop-opacity:1.0000000;"
         offset="1.0000000"
         id="stop2535" />
    </linearGradient>
    <linearGradient
       inkscape:collect="always"
       xlink:href="#linearGradient2531"
       id="linearGradient3270"
       x1="152.18884"
       y1="195.45065"
       x2="175.10728"
       y2="14.163093"
       gradientUnits="userSpaceOnUse" />
  </defs>
  <sodipodi:namedview
     id="base"
     pagecolor="#ffffff"
     bordercolor="#666666"
     borderopacity="1.0"
     inkscape:pageopacity="0.0000000"
     inkscape:pageshadow="2"
     inkscape:zoom="3.8833333"
     inkscape:cx="160.06746"
     inkscape:cy="119.98738"
     inkscape:document-units="px"
     inkscape:current-layer="layer2"
     showborder="true"
     borderlayer="top"
     showgrid="true"
     inkscape:grid-bbox="true"
     inkscape:grid-points="true"
     showguides="true"
     gridspacingx="2.0000000px"
     gridspacingy="2.0000000px"
     gridtolerance="2.0000000px"
     inkscape:window-width="1478"
     inkscape:window-height="1107"
     inkscape:window-x="0"
     inkscape:window-y="30" />
  <metadata
     id="metadata4">
    <rdf:RDF>
      <cc:Work
         rdf:about="">
        <dc:format>image/svg+xml</dc:format>
        <dc:type
           rdf:resource="http://purl.org/dc/dcmitype/StillImage" />
      </cc:Work>
    </rdf:RDF>
  </metadata>
  <g
     style="display:none"
     inkscape:label="Layer 1"
     inkscape:groupmode="layer"
     id="layer1">
    <path
       style="fill:#0055ff;fill-opacity:1.0000000;fill-rule:evenodd;stroke:#000000;stroke-width:2.5000000;stroke-linecap:butt;stroke-linejoin:miter;stroke-miterlimit:4.0000000;stroke-opacity:1.0000000"
       d="M 16.000000,40.000000 L 256.00000,40.000000 L 256.00000,104.00000 L 80.000000,104.00000 L 80.000000,72.000000 L 48.000000,72.000000 L 48.000000,128.00000 L 280.00000,128.00000 L 280.00000,80.000000 L 312.00000,80.000000 L 312.00000,160.00000 L 16.000000,160.00000 L 16.000000,40.000000 z "
       id="path1061"
       sodipodi:nodetypes="ccccccccccccc" />
    <path
       style="fill:#0055ff;fill-opacity:1.0000000;fill-rule:evenodd;stroke:#000000;stroke-width:4.0000000;stroke-linecap:butt;stroke-linejoin:miter;stroke-miterlimit:4.0000000;stroke-opacity:1.0000000"
       d="M 150.00000,160.00000 L 134.00000,160.00000 L 154.00000,188.00000 L 134.00000,212.00000 L 134.00000,232.00000 L 178.00000,232.00000 L 178.00000,212.00000 L 150.00000,212.00000 L 166.00000,188.00000 L 150.00000,160.00000 z "
       id="path1064"
       sodipodi:nodetypes="czcccccccs" />
    <path
       style="fill:#0055ff;fill-opacity:1.0000000;fill-rule:evenodd;stroke:#000000;stroke-width:4.0000000;stroke-linecap:butt;stroke-linejoin:miter;stroke-miterlimit:4.0000000;stroke-opacity:1.0000000"
       d="M 178.00000,160.00000 L 162.00000,160.00000 L 182.00000,188.00000 L 162.00000,212.00000 L 162.00000,232.00000 L 206.00000,232.00000 L 206.00000,212.00000 L 178.00000,212.00000 L 194.00000,188.00000 L 178.00000,160.00000 z "
       id="path2091"
       sodipodi:nodetypes="czcccccccs" />
  </g>
  <g
     style="display:inline"
     inkscape:label="Layer 2"
     id="layer2"
     inkscape:groupmode="layer">
    <path
       style="opacity:1.0000000;color:#000000;fill:#9107a9;fill-opacity:1.0000000;fill-rule:evenodd;stroke:#000000;stroke-width:2.9999990;stroke-linecap:butt;stroke-linejoin:miter;marker:none;marker-start:none;marker-mid:none;marker-end:none;stroke-miterlimit:4.0000000;stroke-dasharray:none;stroke-dashoffset:0.0000000;stroke-opacity:1.0000000;visibility:visible;display:inline;overflow:visible"
       d="M 131.61054,185.60938 L 115.09921,201.16457 L 118.93218,220.57535 L 106.02313,219.32042 L 105.11817,227.27654 L 139.54229,230.62304 L 140.44726,222.66691 L 127.53820,221.41198 L 123.80685,202.95235 L 140.21657,186.44601 L 131.61054,185.60938 z "
       id="path6961"
       sodipodi:nodetypes="ccccccccccc" />
    <path
       style="opacity:1.0000000;color:#000000;fill:#9107a9;fill-opacity:1.0000000;fill-rule:evenodd;stroke:#000000;stroke-width:2.9999990;stroke-linecap:butt;stroke-linejoin:miter;marker:none;marker-start:none;marker-mid:none;marker-end:none;stroke-miterlimit:4.0000000;stroke-dasharray:none;stroke-dashoffset:0.0000000;stroke-opacity:1.0000000;visibility:visible;display:inline;overflow:visible"
       d="M 180.55733,190.36769 L 185.09103,227.00689 L 198.00006,228.26183 L 197.09510,236.21796 L 162.67099,232.87147 L 163.57595,224.91533 L 176.48499,226.17027 L 171.95130,189.53106 L 180.55733,190.36769 z "
       id="path6964" />
    <path
       id="path1065"
       style="fill:url(#linearGradient3270);fill-opacity:1.0000000;fill-rule:evenodd;stroke:#000000;stroke-width:2.9999986;stroke-linecap:butt;stroke-linejoin:miter;marker-mid:none;stroke-miterlimit:4.0000000;stroke-dasharray:none;stroke-opacity:1.0000000;opacity:1.0000000;color:#000000;marker:none;marker-start:none;marker-end:none;stroke-dashoffset:0.0000000;visibility:visible;display:inline;overflow:visible"
       d="M 172.74552,14.722140 C 75.130927,5.2326680 25.812655,183.36849 152.16586,195.65175 C 278.02737,207.88721 269.86843,24.163812 172.74552,14.722140 z "
       sodipodi:nodetypes="csc" />
    <path
       sodipodi:type="arc"
       style="opacity:1.0000000;color:#000000;fill:#ffffff;fill-opacity:1.0000000;fill-rule:evenodd;stroke:#000000;stroke-width:0.95182925;stroke-linecap:butt;stroke-linejoin:miter;marker:none;marker-start:none;marker-mid:none;marker-end:none;stroke-miterlimit:4.0000000;stroke-dasharray:none;stroke-dashoffset:0.0000000;stroke-opacity:1.0000000;visibility:visible;display:inline;overflow:visible"
       id="path3281"
       sodipodi:cx="151.00000"
       sodipodi:cy="177.00000"
       sodipodi:rx="3.0000000"
       sodipodi:ry="3.0000000"
       d="M 154.00000 177.00000 A 3.0000000 3.0000000 0 1 1  148.00000,177.00000 A 3.0000000 3.0000000 0 1 1  154.00000 177.00000 z"
       transform="matrix(0.654270,0.335830,-0.335830,0.654270,70.52135,-1.683438)" />
    <path
       sodipodi:type="arc"
       style="opacity:1.0000000;color:#000000;fill:#ffffff;fill-opacity:1.0000000;fill-rule:evenodd;stroke:#000000;stroke-width:0.95182925;stroke-linecap:butt;stroke-linejoin:miter;marker:none;marker-start:none;marker-mid:none;marker-end:none;stroke-miterlimit:4.0000000;stroke-dasharray:none;stroke-dashoffset:0.0000000;stroke-opacity:1.0000000;visibility:visible;display:inline;overflow:visible"
       id="path3283"
       sodipodi:cx="203.00000"
       sodipodi:cy="147.00000"
       sodipodi:rx="3.0000000"
       sodipodi:ry="3.0000000"
       d="M 206.00000 147.00000 A 3.0000000 3.0000000 0 1 1  200.00000,147.00000 A 3.0000000 3.0000000 0 1 1  206.00000 147.00000 z"
       transform="matrix(0.654270,0.335830,-0.335830,0.654270,69.39211,11.78997)" />
    <path
       sodipodi:type="arc"
       style="opacity:1.0000000;color:#000000;fill:#ffffff;fill-opacity:1.0000000;fill-rule:evenodd;stroke:#000000;stroke-width:0.95182925;stroke-linecap:butt;stroke-linejoin:miter;marker:none;marker-start:none;marker-mid:none;marker-end:none;stroke-miterlimit:4.0000000;stroke-dasharray:none;stroke-dashoffset:0.0000000;stroke-opacity:1.0000000;visibility:visible;display:inline;overflow:visible"
       id="path3285"
       sodipodi:cx="167.00000"
       sodipodi:cy="155.00000"
       sodipodi:rx="3.0000000"
       sodipodi:ry="3.0000000"
       d="M 170.00000 155.00000 A 3.0000000 3.0000000 0 1 1  164.00000,155.00000 A 3.0000000 3.0000000 0 1 1  170.00000 155.00000 z"
       transform="matrix(0.654270,0.335830,-0.335830,0.654270,70.92069,7.201385)" />
    <path
       sodipodi:type="arc"
       style="opacity:1.0000000;color:#000000;fill:#ffffff;fill-opacity:1.0000000;fill-rule:evenodd;stroke:#000000;stroke-width:0.95182925;stroke-linecap:butt;stroke-linejoin:miter;marker:none;marker-start:none;marker-mid:none;marker-end:none;stroke-miterlimit:4.0000000;stroke-dasharray:none;stroke-dashoffset:0.0000000;stroke-opacity:1.0000000;visibility:visible;display:inline;overflow:visible"
       id="path4013"
       sodipodi:cx="151.00000"
       sodipodi:cy="177.00000"
       sodipodi:rx="3.0000000"
       sodipodi:ry="3.0000000"
       d="M 154.00000 177.00000 A 3.0000000 3.0000000 0 1 1  148.00000,177.00000 A 3.0000000 3.0000000 0 1 1  154.00000 177.00000 z"
       transform="matrix(0.654270,0.335830,-0.335830,0.654270,91.08736,13.00616)" />
    <path
       sodipodi:type="arc"
       style="opacity:1.0000000;color:#000000;fill:#ffffff;fill-opacity:1.0000000;fill-rule:evenodd;stroke:#000000;stroke-width:0.95182925;stroke-linecap:butt;stroke-linejoin:miter;marker:none;marker-start:none;marker-mid:none;marker-end:none;stroke-miterlimit:4.0000000;stroke-dasharray:none;stroke-dashoffset:0.0000000;stroke-opacity:1.0000000;visibility:visible;display:inline;overflow:visible"
       id="path4015"
       sodipodi:cx="203.00000"
       sodipodi:cy="147.00000"
       sodipodi:rx="3.0000000"
       sodipodi:ry="3.0000000"
       d="M 206.00000 147.00000 A 3.0000000 3.0000000 0 1 1  200.00000,147.00000 A 3.0000000 3.0000000 0 1 1  206.00000 147.00000 z"
       transform="matrix(0.654270,0.335830,-0.335830,0.654270,93.72183,12.70509)" />
    <path
       sodipodi:type="arc"
       style="opacity:1.0000000;color:#000000;fill:#ffffff;fill-opacity:1.0000000;fill-rule:evenodd;stroke:#000000;stroke-width:0.95182925;stroke-linecap:butt;stroke-linejoin:miter;marker:none;marker-start:none;marker-mid:none;marker-end:none;stroke-miterlimit:4.0000000;stroke-dasharray:none;stroke-dashoffset:0.0000000;stroke-opacity:1.0000000;visibility:visible;display:inline;overflow:visible"
       id="path4017"
       sodipodi:cx="167.00000"
       sodipodi:cy="155.00000"
       sodipodi:rx="3.0000000"
       sodipodi:ry="3.0000000"
       d="M 170.00000 155.00000 A 3.0000000 3.0000000 0 1 1  164.00000,155.00000 A 3.0000000 3.0000000 0 1 1  170.00000 155.00000 z"
       transform="matrix(0.654270,0.335830,-0.335830,0.654270,89.31256,25.32154)" />
    <path
       sodipodi:type="arc"
       style="opacity:1.0000000;color:#000000;fill:#ffffff;fill-opacity:1.0000000;fill-rule:evenodd;stroke:#000000;stroke-width:0.95182925;stroke-linecap:butt;stroke-linejoin:miter;marker:none;marker-start:none;marker-mid:none;marker-end:none;stroke-miterlimit:4.0000000;stroke-dasharray:none;stroke-dashoffset:0.0000000;stroke-opacity:1.0000000;visibility:visible;display:inline;overflow:visible"
       id="path4019"
       sodipodi:cx="151.00000"
       sodipodi:cy="177.00000"
       sodipodi:rx="3.0000000"
       sodipodi:ry="3.0000000"
       d="M 154.00000 177.00000 A 3.0000000 3.0000000 0 1 1  148.00000,177.00000 A 3.0000000 3.0000000 0 1 1  154.00000 177.00000 z"
       transform="matrix(0.654270,0.335830,-0.335830,0.654270,83.11167,5.192398)" />
    <path
       sodipodi:type="arc"
       style="opacity:1.0000000;color:#000000;fill:#ffffff;fill-opacity:1.0000000;fill-rule:evenodd;stroke:#000000;stroke-width:0.95182925;stroke-linecap:butt;stroke-linejoin:miter;marker:none;marker-start:none;marker-mid:none;marker-end:none;stroke-miterlimit:4.0000000;stroke-dasharray:none;stroke-dashoffset:0.0000000;stroke-opacity:1.0000000;visibility:visible;display:inline;overflow:visible"
       id="path4021"
       sodipodi:cx="203.00000"
       sodipodi:cy="147.00000"
       sodipodi:rx="3.0000000"
       sodipodi:ry="3.0000000"
       d="M 206.00000 147.00000 A 3.0000000 3.0000000 0 1 1  200.00000,147.00000 A 3.0000000 3.0000000 0 1 1  206.00000 147.00000 z"
       transform="matrix(0.654270,0.335830,-0.335830,0.654270,80.69996,15.52758)" />
    <path
       sodipodi:type="arc"
       style="opacity:1.0000000;color:#000000;fill:#ffffff;fill-opacity:1.0000000;fill-rule:evenodd;stroke:#000000;stroke-width:0.95182925;stroke-linecap:butt;stroke-linejoin:miter;marker:none;marker-start:none;marker-mid:none;marker-end:none;stroke-miterlimit:4.0000000;stroke-dasharray:none;stroke-dashoffset:0.0000000;stroke-opacity:1.0000000;visibility:visible;display:inline;overflow:visible"
       id="path4023"
       sodipodi:cx="167.00000"
       sodipodi:cy="155.00000"
       sodipodi:rx="3.0000000"
       sodipodi:ry="3.0000000"
       d="M 170.00000 155.00000 A 3.0000000 3.0000000 0 1 1  164.00000,155.00000 A 3.0000000 3.0000000 0 1 1  170.00000 155.00000 z"
       transform="matrix(0.654270,0.335830,-0.335830,0.654270,86.91291,3.423586)" />
    <path
       sodipodi:type="arc"
       style="opacity:1.0000000;color:#000000;fill:#ffffff;fill-opacity:1.0000000;fill-rule:evenodd;stroke:#000000;stroke-width:0.95182925;stroke-linecap:butt;stroke-linejoin:miter;marker:none;marker-start:none;marker-mid:none;marker-end:none;stroke-miterlimit:4.0000000;stroke-dasharray:none;stroke-dashoffset:0.0000000;stroke-opacity:1.0000000;visibility:visible;display:inline;overflow:visible"
       id="path4025"
       sodipodi:cx="151.00000"
       sodipodi:cy="177.00000"
       sodipodi:rx="3.0000000"
       sodipodi:ry="3.0000000"
       d="M 154.00000 177.00000 A 3.0000000 3.0000000 0 1 1  148.00000,177.00000 A 3.0000000 3.0000000 0 1 1  154.00000 177.00000 z"
       transform="matrix(0.654270,0.335830,-0.335830,0.654270,56.01010,-24.40249)" />
    <path
       sodipodi:type="arc"
       style="opacity:1.0000000;color:#000000;fill:#ffffff;fill-opacity:1.0000000;fill-rule:evenodd;stroke:#000000;stroke-width:0.95182925;stroke-linecap:butt;stroke-linejoin:miter;marker:none;marker-start:none;marker-mid:none;marker-end:none;stroke-miterlimit:4.0000000;stroke-dasharray:none;stroke-dashoffset:0.0000000;stroke-opacity:1.0000000;visibility:visible;display:inline;overflow:visible"
       id="path4027"
       sodipodi:cx="203.00000"
       sodipodi:cy="147.00000"
       sodipodi:rx="3.0000000"
       sodipodi:ry="3.0000000"
       d="M 206.00000 147.00000 A 3.0000000 3.0000000 0 1 1  200.00000,147.00000 A 3.0000000 3.0000000 0 1 1  206.00000 147.00000 z"
       transform="matrix(0.654270,0.335830,-0.335830,0.654270,88.56475,3.618452)" />
    <path
       sodipodi:type="arc"
       style="opacity:1.0000000;color:#000000;fill:#ffffff;fill-opacity:1.0000000;fill-rule:evenodd;stroke:#000000;stroke-width:0.95182925;stroke-linecap:butt;stroke-linejoin:miter;marker:none;marker-start:none;marker-mid:none;marker-end:none;stroke-miterlimit:4.0000000;stroke-dasharray:none;stroke-dashoffset:0.0000000;stroke-opacity:1.0000000;visibility:visible;display:inline;overflow:visible"
       id="path4029"
       sodipodi:cx="167.00000"
       sodipodi:cy="155.00000"
       sodipodi:rx="3.0000000"
       sodipodi:ry="3.0000000"
       d="M 170.00000 155.00000 A 3.0000000 3.0000000 0 1 1  164.00000,155.00000 A 3.0000000 3.0000000 0 1 1  170.00000 155.00000 z"
       transform="matrix(0.654270,0.335830,-0.335830,0.654270,60.41824,-6.201615)" />
    <path
       sodipodi:type="arc"
       style="opacity:1.0000000;color:#000000;fill:#ffffff;fill-opacity:1.0000000;fill-rule:evenodd;stroke:#000000;stroke-width:0.95182925;stroke-linecap:butt;stroke-linejoin:miter;marker:none;marker-start:none;marker-mid:none;marker-end:none;stroke-miterlimit:4.0000000;stroke-dasharray:none;stroke-dashoffset:0.0000000;stroke-opacity:1.0000000;visibility:visible;display:inline;overflow:visible"
       id="path4757"
       sodipodi:cx="151.00000"
       sodipodi:cy="177.00000"
       sodipodi:rx="3.0000000"
       sodipodi:ry="3.0000000"
       d="M 154.00000 177.00000 A 3.0000000 3.0000000 0 1 1  148.00000,177.00000 A 3.0000000 3.0000000 0 1 1  154.00000 177.00000 z"
       transform="matrix(0.654270,0.335830,-0.335830,0.654270,60.57419,-5.072631)" />
    <path
       sodipodi:type="arc"
       style="opacity:1.0000000;color:#000000;fill:#ffffff;fill-opacity:1.0000000;fill-rule:evenodd;stroke:#000000;stroke-width:0.95182925;stroke-linecap:butt;stroke-linejoin:miter;marker:none;marker-start:none;marker-mid:none;marker-end:none;stroke-miterlimit:4.0000000;stroke-dasharray:none;stroke-dashoffset:0.0000000;stroke-opacity:1.0000000;visibility:visible;display:inline;overflow:visible"
       id="path4759"
       sodipodi:cx="203.00000"
       sodipodi:cy="147.00000"
       sodipodi:rx="3.0000000"
       sodipodi:ry="3.0000000"
       d="M 206.00000 147.00000 A 3.0000000 3.0000000 0 1 1  200.00000,147.00000 A 3.0000000 3.0000000 0 1 1  206.00000 147.00000 z"
       transform="matrix(0.654270,0.335830,-0.335830,0.654270,101.6851,13.09508)" />
    <path
       sodipodi:type="arc"
       style="opacity:1.0000000;color:#000000;fill:#ffffff;fill-opacity:1.0000000;fill-rule:evenodd;stroke:#000000;stroke-width:0.95182925;stroke-linecap:butt;stroke-linejoin:miter;marker:none;marker-start:none;marker-mid:none;marker-end:none;stroke-miterlimit:4.0000000;stroke-dasharray:none;stroke-dashoffset:0.0000000;stroke-opacity:1.0000000;visibility:visible;display:inline;overflow:visible"
       id="path4761"
       sodipodi:cx="167.00000"
       sodipodi:cy="155.00000"
       sodipodi:rx="3.0000000"
       sodipodi:ry="3.0000000"
       d="M 170.00000 155.00000 A 3.0000000 3.0000000 0 1 1  164.00000,155.00000 A 3.0000000 3.0000000 0 1 1  170.00000 155.00000 z"
       transform="matrix(0.654270,0.335830,-0.335830,0.654270,101.3471,4.816892)" />
    <path
       sodipodi:type="arc"
       style="opacity:1.0000000;color:#000000;fill:#ffffff;fill-opacity:1.0000000;fill-rule:evenodd;stroke:#000000;stroke-width:0.95182925;stroke-linecap:butt;stroke-linejoin:miter;marker:none;marker-start:none;marker-mid:none;marker-end:none;stroke-miterlimit:4.0000000;stroke-dasharray:none;stroke-dashoffset:0.0000000;stroke-opacity:1.0000000;visibility:visible;display:inline;overflow:visible"
       id="path4763"
       sodipodi:cx="151.00000"
       sodipodi:cy="177.00000"
       sodipodi:rx="3.0000000"
       sodipodi:ry="3.0000000"
       d="M 154.00000 177.00000 A 3.0000000 3.0000000 0 1 1  148.00000,177.00000 A 3.0000000 3.0000000 0 1 1  154.00000 177.00000 z"
       transform="matrix(0.654270,0.335830,-0.335830,0.654270,75.26935,5.715843)" />
    <path
       sodipodi:type="arc"
       style="opacity:1.0000000;color:#000000;fill:#ffffff;fill-opacity:1.0000000;fill-rule:evenodd;stroke:#000000;stroke-width:0.95182925;stroke-linecap:butt;stroke-linejoin:miter;marker:none;marker-start:none;marker-mid:none;marker-end:none;stroke-miterlimit:4.0000000;stroke-dasharray:none;stroke-dashoffset:0.0000000;stroke-opacity:1.0000000;visibility:visible;display:inline;overflow:visible"
       id="path4765"
       sodipodi:cx="203.00000"
       sodipodi:cy="147.00000"
       sodipodi:rx="3.0000000"
       sodipodi:ry="3.0000000"
       d="M 206.00000 147.00000 A 3.0000000 3.0000000 0 1 1  200.00000,147.00000 A 3.0000000 3.0000000 0 1 1  206.00000 147.00000 z"
       transform="matrix(0.654270,0.335830,-0.335830,0.654270,126.0148,14.01019)" />
    <path
       sodipodi:type="arc"
       style="opacity:1.0000000;color:#000000;fill:#ffffff;fill-opacity:1.0000000;fill-rule:evenodd;stroke:#000000;stroke-width:0.95182925;stroke-linecap:butt;stroke-linejoin:miter;marker:none;marker-start:none;marker-mid:none;marker-end:none;stroke-miterlimit:4.0000000;stroke-dasharray:none;stroke-dashoffset:0.0000000;stroke-opacity:1.0000000;visibility:visible;display:inline;overflow:visible"
       id="path4767"
       sodipodi:cx="167.00000"
       sodipodi:cy="155.00000"
       sodipodi:rx="3.0000000"
       sodipodi:ry="3.0000000"
       d="M 170.00000 155.00000 A 3.0000000 3.0000000 0 1 1  164.00000,155.00000 A 3.0000000 3.0000000 0 1 1  170.00000 155.00000 z"
       transform="matrix(0.654270,0.335830,-0.335830,0.654270,121.6055,26.62664)" />
    <path
       sodipodi:type="arc"
       style="opacity:1.0000000;color:#000000;fill:#ffffff;fill-opacity:1.0000000;fill-rule:evenodd;stroke:#000000;stroke-width:0.95182925;stroke-linecap:butt;stroke-linejoin:miter;marker:none;marker-start:none;marker-mid:none;marker-end:none;stroke-miterlimit:4.0000000;stroke-dasharray:none;stroke-dashoffset:0.0000000;stroke-opacity:1.0000000;visibility:visible;display:inline;overflow:visible"
       id="path4769"
       sodipodi:cx="151.00000"
       sodipodi:cy="177.00000"
       sodipodi:rx="3.0000000"
       sodipodi:ry="3.0000000"
       d="M 154.00000 177.00000 A 3.0000000 3.0000000 0 1 1  148.00000,177.00000 A 3.0000000 3.0000000 0 1 1  154.00000 177.00000 z"
       transform="matrix(0.654270,0.335830,-0.335830,0.654270,123.8101,20.64153)" />
    <path
       sodipodi:type="arc"
       style="opacity:1.0000000;color:#000000;fill:#ffffff;fill-opacity:1.0000000;fill-rule:evenodd;stroke:#000000;stroke-width:0.95182925;stroke-linecap:butt;stroke-linejoin:miter;marker:none;marker-start:none;marker-mid:none;marker-end:none;stroke-miterlimit:4.0000000;stroke-dasharray:none;stroke-dashoffset:0.0000000;stroke-opacity:1.0000000;visibility:visible;display:inline;overflow:visible"
       id="path4771"
       sodipodi:cx="203.00000"
       sodipodi:cy="147.00000"
       sodipodi:rx="3.0000000"
       sodipodi:ry="3.0000000"
       d="M 206.00000 147.00000 A 3.0000000 3.0000000 0 1 1  200.00000,147.00000 A 3.0000000 3.0000000 0 1 1  206.00000 147.00000 z"
       transform="matrix(0.654270,0.335830,-0.335830,0.654270,112.9929,16.83268)" />
    <path
       sodipodi:type="arc"
       style="opacity:1.0000000;color:#000000;fill:#ffffff;fill-opacity:1.0000000;fill-rule:evenodd;stroke:#000000;stroke-width:0.95182925;stroke-linecap:butt;stroke-linejoin:miter;marker:none;marker-start:none;marker-mid:none;marker-end:none;stroke-miterlimit:4.0000000;stroke-dasharray:none;stroke-dashoffset:0.0000000;stroke-opacity:1.0000000;visibility:visible;display:inline;overflow:visible"
       id="path4773"
       sodipodi:cx="167.00000"
       sodipodi:cy="155.00000"
       sodipodi:rx="3.0000000"
       sodipodi:ry="3.0000000"
       d="M 170.00000 155.00000 A 3.0000000 3.0000000 0 1 1  164.00000,155.00000 A 3.0000000 3.0000000 0 1 1  170.00000 155.00000 z"
       transform="matrix(0.654270,0.335830,-0.335830,0.654270,128.7205,0.882810)" />
    <path
       sodipodi:type="arc"
       style="opacity:1.0000000;color:#000000;fill:#ffffff;fill-opacity:1.0000000;fill-rule:evenodd;stroke:#000000;stroke-width:0.95182925;stroke-linecap:butt;stroke-linejoin:miter;marker:none;marker-start:none;marker-mid:none;marker-end:none;stroke-miterlimit:4.0000000;stroke-dasharray:none;stroke-dashoffset:0.0000000;stroke-opacity:1.0000000;visibility:visible;display:inline;overflow:visible"
       id="path4775"
       sodipodi:cx="151.00000"
       sodipodi:cy="177.00000"
       sodipodi:rx="3.0000000"
       sodipodi:ry="3.0000000"
       d="M 154.00000 177.00000 A 3.0000000 3.0000000 0 1 1  148.00000,177.00000 A 3.0000000 3.0000000 0 1 1  154.00000 177.00000 z"
       transform="matrix(0.654270,0.335830,-0.335830,0.654270,98.27520,-22.13446)" />
    <path
       sodipodi:type="arc"
       style="opacity:1.0000000;color:#000000;fill:#ffffff;fill-opacity:1.0000000;fill-rule:evenodd;stroke:#000000;stroke-width:0.95182925;stroke-linecap:butt;stroke-linejoin:miter;marker:none;marker-start:none;marker-mid:none;marker-end:none;stroke-miterlimit:4.0000000;stroke-dasharray:none;stroke-dashoffset:0.0000000;stroke-opacity:1.0000000;visibility:visible;display:inline;overflow:visible"
       id="path4777"
       sodipodi:cx="203.00000"
       sodipodi:cy="147.00000"
       sodipodi:rx="3.0000000"
       sodipodi:ry="3.0000000"
       d="M 206.00000 147.00000 A 3.0000000 3.0000000 0 1 1  200.00000,147.00000 A 3.0000000 3.0000000 0 1 1  206.00000 147.00000 z"
       transform="matrix(0.654270,0.335830,-0.335830,0.654270,133.2411,-1.424004)" />
    <path
       sodipodi:type="arc"
       style="opacity:1.0000000;color:#000000;fill:#ffffff;fill-opacity:1.0000000;fill-rule:evenodd;stroke:#000000;stroke-width:0.95182925;stroke-linecap:butt;stroke-linejoin:miter;marker:none;marker-start:none;marker-mid:none;marker-end:none;stroke-miterlimit:4.0000000;stroke-dasharray:none;stroke-dashoffset:0.0000000;stroke-opacity:1.0000000;visibility:visible;display:inline;overflow:visible"
       id="path4779"
       sodipodi:cx="167.00000"
       sodipodi:cy="155.00000"
       sodipodi:rx="3.0000000"
       sodipodi:ry="3.0000000"
       d="M 170.00000 155.00000 A 3.0000000 3.0000000 0 1 1  164.00000,155.00000 A 3.0000000 3.0000000 0 1 1  170.00000 155.00000 z"
       transform="matrix(0.654270,0.335830,-0.335830,0.654270,101.9199,-9.103937)" />
  </g>
</svg>
