<?xml version="1.0" encoding="UTF-8" standalone="no"?>
<!-- Created with Inkscape (http://www.inkscape.org/) -->
<svg
   xmlns:dc="http://purl.org/dc/elements/1.1/"
   xmlns:cc="http://web.resource.org/cc/"
   xmlns:rdf="http://www.w3.org/1999/02/22-rdf-syntax-ns#"
   xmlns:svg="http://www.w3.org/2000/svg"
   xmlns="http://www.w3.org/2000/svg"
   xmlns:xlink="http://www.w3.org/1999/xlink"
   xmlns:sodipodi="http://inkscape.sourceforge.net/DTD/sodipodi-0.dtd"
   xmlns:inkscape="http://www.inkscape.org/namespaces/inkscape"
   width="320.00000px"
   height="240.00000px"
   id="svg2"
   sodipodi:version="0.32"
   inkscape:version="0.42.2"
   sodipodi:docbase="/home/joe/programming/gnumch/data/animation/pics"
   sodipodi:docname="diaper__walking_right_02.svg"
   inkscape:export-filename="/home/joe/programming/gnumch/data/animation/pics/muncher__eating_down_01.png"
   inkscape:export-xdpi="36.000000"
   inkscape:export-ydpi="36.000000">
  <defs
     id="defs3">
    <linearGradient
       id="linearGradient2531">
      <stop
         style="stop-color:#91c5a9;stop-opacity:1.0000000;"
         offset="0.0000000"
         id="stop2533" />
      <stop
         id="stop2539"
         offset="0.070000000"
         style="stop-color:#91c5a9;stop-opacity:1.0000000;" />
      <stop
         style="stop-color:#9107a9;stop-opacity:1.0000000;"
         offset="1.0000000"
         id="stop2535" />
    </linearGradient>
    <linearGradient
       inkscape:collect="always"
       xlink:href="#linearGradient2531"
       id="linearGradient3270"
       x1="153.21889"
       y1="195.70815"
       x2="171.75966"
       y2="14.117819"
       gradientUnits="userSpaceOnUse" />
  </defs>
  <sodipodi:namedview
     id="base"
     pagecolor="#ffffff"
     bordercolor="#666666"
     borderopacity="1.0"
     inkscape:pageopacity="0.0000000"
     inkscape:pageshadow="2"
     inkscape:zoom="3.8833333"
     inkscape:cx="160.00000"
     inkscape:cy="120.00000"
     inkscape:document-units="px"
     inkscape:current-layer="layer2"
     showborder="true"
     borderlayer="top"
     showgrid="true"
     inkscape:grid-bbox="true"
     inkscape:grid-points="true"
     showguides="true"
     gridspacingx="2.0000000px"
     gridspacingy="2.0000000px"
     gridtolerance="2.0000000px"
     inkscape:window-width="1478"
     inkscape:window-height="1107"
     inkscape:window-x="0"
     inkscape:window-y="30" />
  <metadata
     id="metadata4">
    <rdf:RDF>
      <cc:Work
         rdf:about="">
        <dc:format>image/svg+xml</dc:format>
        <dc:type
           rdf:resource="http://purl.org/dc/dcmitype/StillImage" />
      </cc:Work>
    </rdf:RDF>
  </metadata>
  <g
     style="display:none"
     inkscape:label="Layer 1"
     inkscape:groupmode="layer"
     id="layer1">
    <path
       style="fill:#0055ff;fill-opacity:1.0000000;fill-rule:evenodd;stroke:#000000;stroke-width:2.5000000;stroke-linecap:butt;stroke-linejoin:miter;stroke-miterlimit:4.0000000;stroke-opacity:1.0000000"
       d="M 16.000000,40.000000 L 256.00000,40.000000 L 256.00000,104.00000 L 80.000000,104.00000 L 80.000000,72.000000 L 48.000000,72.000000 L 48.000000,128.00000 L 280.00000,128.00000 L 280.00000,80.000000 L 312.00000,80.000000 L 312.00000,160.00000 L 16.000000,160.00000 L 16.000000,40.000000 z "
       id="path1061"
       sodipodi:nodetypes="ccccccccccccc" />
    <path
       style="fill:#0055ff;fill-opacity:1.0000000;fill-rule:evenodd;stroke:#000000;stroke-width:4.0000000;stroke-linecap:butt;stroke-linejoin:miter;stroke-miterlimit:4.0000000;stroke-opacity:1.0000000"
       d="M 150.00000,160.00000 L 134.00000,160.00000 L 154.00000,188.00000 L 134.00000,212.00000 L 134.00000,232.00000 L 178.00000,232.00000 L 178.00000,212.00000 L 150.00000,212.00000 L 166.00000,188.00000 L 150.00000,160.00000 z "
       id="path1064"
       sodipodi:nodetypes="czcccccccs" />
    <path
       style="fill:#0055ff;fill-opacity:1.0000000;fill-rule:evenodd;stroke:#000000;stroke-width:4.0000000;stroke-linecap:butt;stroke-linejoin:miter;stroke-miterlimit:4.0000000;stroke-opacity:1.0000000"
       d="M 178.00000,160.00000 L 162.00000,160.00000 L 182.00000,188.00000 L 162.00000,212.00000 L 162.00000,232.00000 L 206.00000,232.00000 L 206.00000,212.00000 L 178.00000,212.00000 L 194.00000,188.00000 L 178.00000,160.00000 z "
       id="path2091"
       sodipodi:nodetypes="czcccccccs" />
  </g>
  <g
     style="display:inline"
     inkscape:label="Layer 2"
     id="layer2"
     inkscape:groupmode="layer">
    <path
       style="opacity:1.0000000;color:#000000;fill:#9107a9;fill-opacity:1.0000000;fill-rule:evenodd;stroke:#000000;stroke-width:3.0000005;stroke-linecap:butt;stroke-linejoin:miter;marker:none;marker-start:none;marker-mid:none;marker-end:none;stroke-miterlimit:4.0000000;stroke-dasharray:none;stroke-dashoffset:0.0000000;stroke-opacity:1.0000000;visibility:visible;display:inline;overflow:visible"
       d="M 155.36927,189.97375 L 155.74197,208.57831 L 146.03452,219.81934 L 158.68485,222.87856 L 155.78027,230.66901 L 121.91866,223.83915 L 124.82324,216.04870 L 137.47358,219.10792 L 147.37211,205.87481 L 146.80832,189.26233"
       id="path1485"
       sodipodi:nodetypes="cccccccccc" />
    <path
       style="fill:#ffffff;fill-opacity:1.0000000;fill-rule:evenodd;stroke:#000000;stroke-width:3.0000005;stroke-linecap:butt;stroke-linejoin:miter;stroke-miterlimit:4.0000000;stroke-dasharray:none;stroke-opacity:1.0000000"
       d="M 176.71405,130.50489 L 177.46892,145.12530 L 186.22096,143.84465 L 185.27499,131.21632 L 176.71405,130.50489 z "
       id="path5501"
       sodipodi:nodetypes="ccccc" />
    <path
       style="fill:#ffffff;fill-opacity:1.0000000;fill-rule:evenodd;stroke:#000000;stroke-width:3.0000005;stroke-linecap:butt;stroke-linejoin:miter;stroke-miterlimit:4.0000000;stroke-dasharray:none;stroke-opacity:1.0000000"
       d="M 184.20499,159.23877 L 185.35150,147.28632 L 195.66092,146.63708 L 192.76593,159.95020 L 184.20499,159.23877 z "
       id="path5503"
       sodipodi:nodetypes="ccccc" />
    <path
       style="fill:#ffffff;fill-opacity:1.0000000;fill-rule:evenodd;stroke:#000000;stroke-width:3.0000005;stroke-linecap:butt;stroke-linejoin:miter;stroke-miterlimit:4.0000000;stroke-dasharray:none;stroke-opacity:1.0000000"
       d="M 202.69309,135.17373 L 201.73766,145.13411 L 210.10752,147.83761 L 215.53450,136.24086 L 202.69309,135.17373 z "
       id="path5505"
       sodipodi:nodetypes="ccccc" />
    <path
       style="fill:#ffffff;fill-opacity:1.0000000;fill-rule:evenodd;stroke:#000000;stroke-width:3.0000005;stroke-linecap:butt;stroke-linejoin:miter;stroke-miterlimit:4.0000000;stroke-dasharray:none;stroke-opacity:1.0000000"
       d="M 213.39439,164.17439 L 217.06329,148.41564 L 225.43315,151.11914 L 222.33749,160.90167 L 213.39439,164.17439 z "
       id="path5507"
       sodipodi:nodetypes="ccccc" />
    <path
       id="path1065"
       style="fill:url(#linearGradient3270);fill-opacity:1.0000000;fill-rule:evenodd;stroke:#000000;stroke-width:2.9999986;stroke-linecap:butt;stroke-linejoin:miter;marker-mid:none;stroke-miterlimit:4.0000000;stroke-dasharray:none;stroke-opacity:1.0000000;opacity:1.0000000;color:#000000;marker:none;marker-start:none;marker-end:none;stroke-dashoffset:0.0000000;visibility:visible;display:inline;overflow:visible"
       d="M 169.44793,14.516674 C 120.89631,10.481972 85.128053,53.172309 77.209116,98.176963 C 69.290179,143.18161 89.220557,190.50058 152.06621,195.72313 C 183.36675,198.32425 206.14175,188.80120 221.18812,172.92805 C 223.06892,170.94391 224.82895,168.86054 226.46979,166.68924 C 228.11063,164.51793 229.63225,162.25868 231.03622,159.92276 C 232.44020,157.58685 172.87320,159.30107 166.83466,154.78334 C 162.09765,151.23935 161.53533,137.50114 168.74551,134.86258 C 177.68863,131.58986 238.97179,142.46651 239.38453,141.14214 C 239.79726,139.81775 240.18155,138.48126 240.53761,137.13405 C 241.24971,134.43964 241.84884,131.70239 242.33656,128.93360 C 242.82425,126.16480 243.20054,123.36444 243.46696,120.54382 C 243.73338,117.72319 243.88992,114.88227 243.93818,112.03236 C 244.71011,66.433782 217.75498,18.531052 169.44793,14.516674 z "
       sodipodi:nodetypes="cssssssssssssc" />
    <path
       sodipodi:type="arc"
       style="opacity:1.0000000;color:#000000;fill:#ffffff;fill-opacity:1.0000000;fill-rule:evenodd;stroke:#000000;stroke-width:2.3932910;stroke-linecap:butt;stroke-linejoin:round;marker:none;marker-start:none;marker-mid:none;marker-end:none;stroke-miterlimit:4.0000000;stroke-dasharray:none;stroke-dashoffset:0.0000000;stroke-opacity:1.0000000;visibility:visible;display:inline;overflow:visible"
       id="path4043"
       sodipodi:cx="138.00000"
       sodipodi:cy="70.000000"
       sodipodi:rx="14.000000"
       sodipodi:ry="18.000000"
       d="M 152.00000 70.000000 A 14.000000 18.000000 0 1 1  124.00000,70.000000 A 14.000000 18.000000 0 1 1  152.00000 70.000000 z"
       transform="matrix(1.203883,0.100044,-0.124206,1.294849,34.71254,-39.32171)" />
    <path
       sodipodi:type="arc"
       style="opacity:1.0000000;color:#000000;fill:#000000;fill-opacity:1.0000000;fill-rule:evenodd;stroke:#000000;stroke-width:2.8942995;stroke-linecap:butt;stroke-linejoin:round;marker:none;marker-start:none;marker-mid:none;marker-end:none;stroke-miterlimit:4.0000000;stroke-dasharray:none;stroke-dashoffset:0.0000000;stroke-opacity:1.0000000;visibility:visible;display:inline;overflow:visible"
       id="path4045"
       sodipodi:cx="182.00000"
       sodipodi:cy="66.000000"
       sodipodi:rx="2.0000000"
       sodipodi:ry="2.0000000"
       d="M 184.00000 66.000000 A 2.0000000 2.0000000 0 1 1  180.00000,66.000000 A 2.0000000 2.0000000 0 1 1  184.00000 66.000000 z"
       transform="matrix(1.070118,8.892818e-2,-9.554215e-2,0.996038,-2.426185,-20.42087)" />
    <path
       style="opacity:1.0000000;color:#000000;fill:#9107a9;fill-opacity:1.0000000;fill-rule:evenodd;stroke:#000000;stroke-width:3.0000005;stroke-linecap:butt;stroke-linejoin:miter;marker:none;marker-start:none;marker-mid:none;marker-end:none;stroke-miterlimit:4.0000000;stroke-dasharray:none;stroke-dashoffset:0.0000000;stroke-opacity:1.0000000;visibility:visible;display:inline;overflow:visible"
       d="M 161.88551,189.51128 L 168.58339,209.64545 L 167.24579,223.58998 L 177.94698,224.47927 L 177.18263,232.44757 L 147.21933,229.95758 L 147.98367,221.98928 L 158.68485,222.87856 L 160.02245,208.93403 L 152.99017,192.28599"
       id="path1483"
       sodipodi:nodetypes="cccccccccc" />
    <path
       sodipodi:type="arc"
       style="opacity:1.0000000;color:#000000;fill:#ffffff;fill-opacity:1.0000000;fill-rule:evenodd;stroke:#000000;stroke-width:0.95182925;stroke-linecap:butt;stroke-linejoin:miter;marker:none;marker-start:none;marker-mid:none;marker-end:none;stroke-miterlimit:4.0000000;stroke-dasharray:none;stroke-dashoffset:0.0000000;stroke-opacity:1.0000000;visibility:visible;display:inline;overflow:visible"
       id="path3281"
       sodipodi:cx="151.00000"
       sodipodi:cy="177.00000"
       sodipodi:rx="3.0000000"
       sodipodi:ry="3.0000000"
       d="M 154.00000 177.00000 A 3.0000000 3.0000000 0 1 1  148.00000,177.00000 A 3.0000000 3.0000000 0 1 1  154.00000 177.00000 z"
       transform="matrix(0.662601,0.319080,-0.319080,0.662601,64.21974,2.399930)" />
    <path
       sodipodi:type="arc"
       style="opacity:1.0000000;color:#000000;fill:#ffffff;fill-opacity:1.0000000;fill-rule:evenodd;stroke:#000000;stroke-width:0.95182925;stroke-linecap:butt;stroke-linejoin:miter;marker:none;marker-start:none;marker-mid:none;marker-end:none;stroke-miterlimit:4.0000000;stroke-dasharray:none;stroke-dashoffset:0.0000000;stroke-opacity:1.0000000;visibility:visible;display:inline;overflow:visible"
       id="path3283"
       sodipodi:cx="203.00000"
       sodipodi:cy="147.00000"
       sodipodi:rx="3.0000000"
       sodipodi:ry="3.0000000"
       d="M 206.00000 147.00000 A 3.0000000 3.0000000 0 1 1  200.00000,147.00000 A 3.0000000 3.0000000 0 1 1  206.00000 147.00000 z"
       transform="matrix(0.662601,0.319080,-0.319080,0.662601,63.43362,15.89771)" />
    <path
       sodipodi:type="arc"
       style="opacity:1.0000000;color:#000000;fill:#ffffff;fill-opacity:1.0000000;fill-rule:evenodd;stroke:#000000;stroke-width:0.95182925;stroke-linecap:butt;stroke-linejoin:miter;marker:none;marker-start:none;marker-mid:none;marker-end:none;stroke-miterlimit:4.0000000;stroke-dasharray:none;stroke-dashoffset:0.0000000;stroke-opacity:1.0000000;visibility:visible;display:inline;overflow:visible"
       id="path3285"
       sodipodi:cx="167.00000"
       sodipodi:cy="155.00000"
       sodipodi:rx="3.0000000"
       sodipodi:ry="3.0000000"
       d="M 170.00000 155.00000 A 3.0000000 3.0000000 0 1 1  164.00000,155.00000 A 3.0000000 3.0000000 0 1 1  170.00000 155.00000 z"
       transform="matrix(0.662601,0.319080,-0.319080,0.662601,64.84496,11.27176)" />
    <path
       sodipodi:type="arc"
       style="opacity:1.0000000;color:#000000;fill:#ffffff;fill-opacity:1.0000000;fill-rule:evenodd;stroke:#000000;stroke-width:0.95182925;stroke-linecap:butt;stroke-linejoin:miter;marker:none;marker-start:none;marker-mid:none;marker-end:none;stroke-miterlimit:4.0000000;stroke-dasharray:none;stroke-dashoffset:0.0000000;stroke-opacity:1.0000000;visibility:visible;display:inline;overflow:visible"
       id="path4013"
       sodipodi:cx="151.00000"
       sodipodi:cy="177.00000"
       sodipodi:rx="3.0000000"
       sodipodi:ry="3.0000000"
       d="M 154.00000 177.00000 A 3.0000000 3.0000000 0 1 1  148.00000,177.00000 A 3.0000000 3.0000000 0 1 1  154.00000 177.00000 z"
       transform="matrix(0.662601,0.319080,-0.319080,0.662601,85.15281,16.56172)" />
    <path
       sodipodi:type="arc"
       style="opacity:1.0000000;color:#000000;fill:#ffffff;fill-opacity:1.0000000;fill-rule:evenodd;stroke:#000000;stroke-width:0.95182925;stroke-linecap:butt;stroke-linejoin:miter;marker:none;marker-start:none;marker-mid:none;marker-end:none;stroke-miterlimit:4.0000000;stroke-dasharray:none;stroke-dashoffset:0.0000000;stroke-opacity:1.0000000;visibility:visible;display:inline;overflow:visible"
       id="path4015"
       sodipodi:cx="203.00000"
       sodipodi:cy="147.00000"
       sodipodi:rx="3.0000000"
       sodipodi:ry="3.0000000"
       d="M 206.00000 147.00000 A 3.0000000 3.0000000 0 1 1  200.00000,147.00000 A 3.0000000 3.0000000 0 1 1  206.00000 147.00000 z"
       transform="matrix(0.662601,0.319080,-0.319080,0.662601,87.77873,16.19368)" />
    <path
       sodipodi:type="arc"
       style="opacity:1.0000000;color:#000000;fill:#ffffff;fill-opacity:1.0000000;fill-rule:evenodd;stroke:#000000;stroke-width:0.95182925;stroke-linecap:butt;stroke-linejoin:miter;marker:none;marker-start:none;marker-mid:none;marker-end:none;stroke-miterlimit:4.0000000;stroke-dasharray:none;stroke-dashoffset:0.0000000;stroke-opacity:1.0000000;visibility:visible;display:inline;overflow:visible"
       id="path4017"
       sodipodi:cx="167.00000"
       sodipodi:cy="155.00000"
       sodipodi:rx="3.0000000"
       sodipodi:ry="3.0000000"
       d="M 170.00000 155.00000 A 3.0000000 3.0000000 0 1 1  164.00000,155.00000 A 3.0000000 3.0000000 0 1 1  170.00000 155.00000 z"
       transform="matrix(0.662601,0.319080,-0.319080,0.662601,83.69178,28.91822)" />
    <path
       sodipodi:type="arc"
       style="opacity:1.0000000;color:#000000;fill:#ffffff;fill-opacity:1.0000000;fill-rule:evenodd;stroke:#000000;stroke-width:0.95182925;stroke-linecap:butt;stroke-linejoin:miter;marker:none;marker-start:none;marker-mid:none;marker-end:none;stroke-miterlimit:4.0000000;stroke-dasharray:none;stroke-dashoffset:0.0000000;stroke-opacity:1.0000000;visibility:visible;display:inline;overflow:visible"
       id="path4019"
       sodipodi:cx="151.00000"
       sodipodi:cy="177.00000"
       sodipodi:rx="3.0000000"
       sodipodi:ry="3.0000000"
       d="M 154.00000 177.00000 A 3.0000000 3.0000000 0 1 1  148.00000,177.00000 A 3.0000000 3.0000000 0 1 1  154.00000 177.00000 z"
       transform="matrix(0.662601,0.319080,-0.319080,0.662601,76.98098,8.953290)" />
    <path
       sodipodi:type="arc"
       style="opacity:1.0000000;color:#000000;fill:#ffffff;fill-opacity:1.0000000;fill-rule:evenodd;stroke:#000000;stroke-width:0.95182925;stroke-linecap:butt;stroke-linejoin:miter;marker:none;marker-start:none;marker-mid:none;marker-end:none;stroke-miterlimit:4.0000000;stroke-dasharray:none;stroke-dashoffset:0.0000000;stroke-opacity:1.0000000;visibility:visible;display:inline;overflow:visible"
       id="path4021"
       sodipodi:cx="203.00000"
       sodipodi:cy="147.00000"
       sodipodi:rx="3.0000000"
       sodipodi:ry="3.0000000"
       d="M 206.00000 147.00000 A 3.0000000 3.0000000 0 1 1  200.00000,147.00000 A 3.0000000 3.0000000 0 1 1  206.00000 147.00000 z"
       transform="matrix(0.662601,0.319080,-0.319080,0.662601,74.83292,19.34647)" />
    <path
       sodipodi:type="arc"
       style="opacity:1.0000000;color:#000000;fill:#ffffff;fill-opacity:1.0000000;fill-rule:evenodd;stroke:#000000;stroke-width:0.95182925;stroke-linecap:butt;stroke-linejoin:miter;marker:none;marker-start:none;marker-mid:none;marker-end:none;stroke-miterlimit:4.0000000;stroke-dasharray:none;stroke-dashoffset:0.0000000;stroke-opacity:1.0000000;visibility:visible;display:inline;overflow:visible"
       id="path4023"
       sodipodi:cx="167.00000"
       sodipodi:cy="155.00000"
       sodipodi:rx="3.0000000"
       sodipodi:ry="3.0000000"
       d="M 170.00000 155.00000 A 3.0000000 3.0000000 0 1 1  164.00000,155.00000 A 3.0000000 3.0000000 0 1 1  170.00000 155.00000 z"
       transform="matrix(0.662601,0.319080,-0.319080,0.662601,133.7417,16.28735)" />
    <path
       sodipodi:type="arc"
       style="opacity:1.0000000;color:#000000;fill:#ffffff;fill-opacity:1.0000000;fill-rule:evenodd;stroke:#000000;stroke-width:0.95182925;stroke-linecap:butt;stroke-linejoin:miter;marker:none;marker-start:none;marker-mid:none;marker-end:none;stroke-miterlimit:4.0000000;stroke-dasharray:none;stroke-dashoffset:0.0000000;stroke-opacity:1.0000000;visibility:visible;display:inline;overflow:visible"
       id="path4025"
       sodipodi:cx="151.00000"
       sodipodi:cy="177.00000"
       sodipodi:rx="3.0000000"
       sodipodi:ry="3.0000000"
       d="M 154.00000 177.00000 A 3.0000000 3.0000000 0 1 1  148.00000,177.00000 A 3.0000000 3.0000000 0 1 1  154.00000 177.00000 z"
       transform="matrix(0.662601,0.319080,-0.319080,0.662601,49.13530,-19.94264)" />
    <path
       sodipodi:type="arc"
       style="opacity:1.0000000;color:#000000;fill:#ffffff;fill-opacity:1.0000000;fill-rule:evenodd;stroke:#000000;stroke-width:0.95182925;stroke-linecap:butt;stroke-linejoin:miter;marker:none;marker-start:none;marker-mid:none;marker-end:none;stroke-miterlimit:4.0000000;stroke-dasharray:none;stroke-dashoffset:0.0000000;stroke-opacity:1.0000000;visibility:visible;display:inline;overflow:visible"
       id="path4027"
       sodipodi:cx="203.00000"
       sodipodi:cy="147.00000"
       sodipodi:rx="3.0000000"
       sodipodi:ry="3.0000000"
       d="M 206.00000 147.00000 A 3.0000000 3.0000000 0 1 1  200.00000,147.00000 A 3.0000000 3.0000000 0 1 1  206.00000 147.00000 z"
       transform="matrix(0.662601,0.319080,-0.319080,0.662601,51.98152,11.34937)" />
    <path
       sodipodi:type="arc"
       style="opacity:1.0000000;color:#000000;fill:#ffffff;fill-opacity:1.0000000;fill-rule:evenodd;stroke:#000000;stroke-width:0.95182925;stroke-linecap:butt;stroke-linejoin:miter;marker:none;marker-start:none;marker-mid:none;marker-end:none;stroke-miterlimit:4.0000000;stroke-dasharray:none;stroke-dashoffset:0.0000000;stroke-opacity:1.0000000;visibility:visible;display:inline;overflow:visible"
       id="path4029"
       sodipodi:cx="167.00000"
       sodipodi:cy="155.00000"
       sodipodi:rx="3.0000000"
       sodipodi:ry="3.0000000"
       d="M 170.00000 155.00000 A 3.0000000 3.0000000 0 1 1  164.00000,155.00000 A 3.0000000 3.0000000 0 1 1  170.00000 155.00000 z"
       transform="matrix(0.662601,0.319080,-0.319080,0.662601,54.00504,-1.859820)" />
    <path
       sodipodi:type="arc"
       style="opacity:1.0000000;color:#000000;fill:#ffffff;fill-opacity:1.0000000;fill-rule:evenodd;stroke:#000000;stroke-width:0.95182925;stroke-linecap:butt;stroke-linejoin:miter;marker:none;marker-start:none;marker-mid:none;marker-end:none;stroke-miterlimit:4.0000000;stroke-dasharray:none;stroke-dashoffset:0.0000000;stroke-opacity:1.0000000;visibility:visible;display:inline;overflow:visible"
       id="path4757"
       sodipodi:cx="151.00000"
       sodipodi:cy="177.00000"
       sodipodi:rx="3.0000000"
       sodipodi:ry="3.0000000"
       d="M 154.00000 177.00000 A 3.0000000 3.0000000 0 1 1  148.00000,177.00000 A 3.0000000 3.0000000 0 1 1  154.00000 177.00000 z"
       transform="matrix(0.662601,0.319080,-0.319080,0.662601,54.18966,-0.735110)" />
    <path
       sodipodi:type="arc"
       style="opacity:1.0000000;color:#000000;fill:#ffffff;fill-opacity:1.0000000;fill-rule:evenodd;stroke:#000000;stroke-width:0.95182925;stroke-linecap:butt;stroke-linejoin:miter;marker:none;marker-start:none;marker-mid:none;marker-end:none;stroke-miterlimit:4.0000000;stroke-dasharray:none;stroke-dashoffset:0.0000000;stroke-opacity:1.0000000;visibility:visible;display:inline;overflow:visible"
       id="path4759"
       sodipodi:cx="203.00000"
       sodipodi:cy="147.00000"
       sodipodi:rx="3.0000000"
       sodipodi:ry="3.0000000"
       d="M 206.00000 147.00000 A 3.0000000 3.0000000 0 1 1  200.00000,147.00000 A 3.0000000 3.0000000 0 1 1  206.00000 147.00000 z"
       transform="matrix(0.662601,0.319080,-0.319080,0.662601,95.74931,16.38099)" />
    <path
       sodipodi:type="arc"
       style="opacity:1.0000000;color:#000000;fill:#ffffff;fill-opacity:1.0000000;fill-rule:evenodd;stroke:#000000;stroke-width:0.95182925;stroke-linecap:butt;stroke-linejoin:miter;marker:none;marker-start:none;marker-mid:none;marker-end:none;stroke-miterlimit:4.0000000;stroke-dasharray:none;stroke-dashoffset:0.0000000;stroke-opacity:1.0000000;visibility:visible;display:inline;overflow:visible"
       id="path4761"
       sodipodi:cx="167.00000"
       sodipodi:cy="155.00000"
       sodipodi:rx="3.0000000"
       sodipodi:ry="3.0000000"
       d="M 170.00000 155.00000 A 3.0000000 3.0000000 0 1 1  164.00000,155.00000 A 3.0000000 3.0000000 0 1 1  170.00000 155.00000 z"
       transform="matrix(0.662601,0.319080,-0.319080,0.662601,93.97001,11.78266)" />
    <path
       sodipodi:type="arc"
       style="opacity:1.0000000;color:#000000;fill:#ffffff;fill-opacity:1.0000000;fill-rule:evenodd;stroke:#000000;stroke-width:0.95182925;stroke-linecap:butt;stroke-linejoin:miter;marker:none;marker-start:none;marker-mid:none;marker-end:none;stroke-miterlimit:4.0000000;stroke-dasharray:none;stroke-dashoffset:0.0000000;stroke-opacity:1.0000000;visibility:visible;display:inline;overflow:visible"
       id="path4763"
       sodipodi:cx="151.00000"
       sodipodi:cy="177.00000"
       sodipodi:rx="3.0000000"
       sodipodi:ry="3.0000000"
       d="M 154.00000 177.00000 A 3.0000000 3.0000000 0 1 1  148.00000,177.00000 A 3.0000000 3.0000000 0 1 1  154.00000 177.00000 z"
       transform="matrix(0.662601,0.319080,-0.319080,0.662601,69.15446,9.676015)" />
    <path
       sodipodi:type="arc"
       style="opacity:1.0000000;color:#000000;fill:#ffffff;fill-opacity:1.0000000;fill-rule:evenodd;stroke:#000000;stroke-width:0.95182925;stroke-linecap:butt;stroke-linejoin:miter;marker:none;marker-start:none;marker-mid:none;marker-end:none;stroke-miterlimit:4.0000000;stroke-dasharray:none;stroke-dashoffset:0.0000000;stroke-opacity:1.0000000;visibility:visible;display:inline;overflow:visible"
       id="path4765"
       sodipodi:cx="203.00000"
       sodipodi:cy="147.00000"
       sodipodi:rx="3.0000000"
       sodipodi:ry="3.0000000"
       d="M 206.00000 147.00000 A 3.0000000 3.0000000 0 1 1  200.00000,147.00000 A 3.0000000 3.0000000 0 1 1  206.00000 147.00000 z"
       transform="matrix(0.662601,0.319080,-0.319080,0.662601,120.0943,16.67694)" />
    <path
       sodipodi:type="arc"
       style="opacity:1.0000000;color:#000000;fill:#ffffff;fill-opacity:1.0000000;fill-rule:evenodd;stroke:#000000;stroke-width:0.95182925;stroke-linecap:butt;stroke-linejoin:miter;marker:none;marker-start:none;marker-mid:none;marker-end:none;stroke-miterlimit:4.0000000;stroke-dasharray:none;stroke-dashoffset:0.0000000;stroke-opacity:1.0000000;visibility:visible;display:inline;overflow:visible"
       id="path4767"
       sodipodi:cx="167.00000"
       sodipodi:cy="155.00000"
       sodipodi:rx="3.0000000"
       sodipodi:ry="3.0000000"
       d="M 170.00000 155.00000 A 3.0000000 3.0000000 0 1 1  164.00000,155.00000 A 3.0000000 3.0000000 0 1 1  170.00000 155.00000 z"
       transform="matrix(0.662601,0.319080,-0.319080,0.662601,116.0074,29.40145)" />
    <path
       sodipodi:type="arc"
       style="opacity:1.0000000;color:#000000;fill:#ffffff;fill-opacity:1.0000000;fill-rule:evenodd;stroke:#000000;stroke-width:0.95182925;stroke-linecap:butt;stroke-linejoin:miter;marker:none;marker-start:none;marker-mid:none;marker-end:none;stroke-miterlimit:4.0000000;stroke-dasharray:none;stroke-dashoffset:0.0000000;stroke-opacity:1.0000000;visibility:visible;display:inline;overflow:visible"
       id="path4769"
       sodipodi:cx="151.00000"
       sodipodi:cy="177.00000"
       sodipodi:rx="3.0000000"
       sodipodi:ry="3.0000000"
       d="M 154.00000 177.00000 A 3.0000000 3.0000000 0 1 1  148.00000,177.00000 A 3.0000000 3.0000000 0 1 1  154.00000 177.00000 z"
       transform="matrix(0.662601,0.319080,-0.319080,0.662601,118.0592,23.36225)" />
    <path
       sodipodi:type="arc"
       style="opacity:1.0000000;color:#000000;fill:#ffffff;fill-opacity:1.0000000;fill-rule:evenodd;stroke:#000000;stroke-width:0.95182925;stroke-linecap:butt;stroke-linejoin:miter;marker:none;marker-start:none;marker-mid:none;marker-end:none;stroke-miterlimit:4.0000000;stroke-dasharray:none;stroke-dashoffset:0.0000000;stroke-opacity:1.0000000;visibility:visible;display:inline;overflow:visible"
       id="path4771"
       sodipodi:cx="203.00000"
       sodipodi:cy="147.00000"
       sodipodi:rx="3.0000000"
       sodipodi:ry="3.0000000"
       d="M 206.00000 147.00000 A 3.0000000 3.0000000 0 1 1  200.00000,147.00000 A 3.0000000 3.0000000 0 1 1  206.00000 147.00000 z"
       transform="matrix(0.662601,0.319080,-0.319080,0.662601,107.1486,19.82975)" />
    <path
       sodipodi:type="arc"
       style="opacity:1.0000000;color:#000000;fill:#ffffff;fill-opacity:1.0000000;fill-rule:evenodd;stroke:#000000;stroke-width:0.95182925;stroke-linecap:butt;stroke-linejoin:miter;marker:none;marker-start:none;marker-mid:none;marker-end:none;stroke-miterlimit:4.0000000;stroke-dasharray:none;stroke-dashoffset:0.0000000;stroke-opacity:1.0000000;visibility:visible;display:inline;overflow:visible"
       id="path4773"
       sodipodi:cx="167.00000"
       sodipodi:cy="155.00000"
       sodipodi:rx="3.0000000"
       sodipodi:ry="3.0000000"
       d="M 170.00000 155.00000 A 3.0000000 3.0000000 0 1 1  164.00000,155.00000 A 3.0000000 3.0000000 0 1 1  170.00000 155.00000 z"
       transform="matrix(0.662601,0.319080,-0.319080,0.662601,109.9245,13.27878)" />
    <path
       sodipodi:type="arc"
       style="opacity:1.0000000;color:#000000;fill:#ffffff;fill-opacity:1.0000000;fill-rule:evenodd;stroke:#000000;stroke-width:0.95182925;stroke-linecap:butt;stroke-linejoin:miter;marker:none;marker-start:none;marker-mid:none;marker-end:none;stroke-miterlimit:4.0000000;stroke-dasharray:none;stroke-dashoffset:0.0000000;stroke-opacity:1.0000000;visibility:visible;display:inline;overflow:visible"
       id="path4777"
       sodipodi:cx="203.00000"
       sodipodi:cy="147.00000"
       sodipodi:rx="3.0000000"
       sodipodi:ry="3.0000000"
       d="M 206.00000 147.00000 A 3.0000000 3.0000000 0 1 1  200.00000,147.00000 A 3.0000000 3.0000000 0 1 1  206.00000 147.00000 z"
       transform="matrix(0.662601,0.319080,-0.319080,0.662601,45.68445,-0.603170)" />
  </g>
</svg>
