<?xml version="1.0" encoding="UTF-8" standalone="no"?>
<!-- Created with Inkscape (http://www.inkscape.org/) -->
<svg
   xmlns:dc="http://purl.org/dc/elements/1.1/"
   xmlns:cc="http://web.resource.org/cc/"
   xmlns:rdf="http://www.w3.org/1999/02/22-rdf-syntax-ns#"
   xmlns:svg="http://www.w3.org/2000/svg"
   xmlns="http://www.w3.org/2000/svg"
   xmlns:xlink="http://www.w3.org/1999/xlink"
   xmlns:sodipodi="http://inkscape.sourceforge.net/DTD/sodipodi-0.dtd"
   xmlns:inkscape="http://www.inkscape.org/namespaces/inkscape"
   width="320.00000px"
   height="240.00000px"
   id="svg2"
   sodipodi:version="0.32"
   inkscape:version="0.42.2"
   sodipodi:docbase="/home/joe/programming/gnumch/data/animation/pics"
   sodipodi:docname="diaper__normal_right_00.svg"
   inkscape:export-filename="/home/joe/programming/gnumch/data/animation/pics/muncher__eating_down_01.png"
   inkscape:export-xdpi="36.000000"
   inkscape:export-ydpi="36.000000">
  <defs
     id="defs3">
    <linearGradient
       id="linearGradient2531">
      <stop
         style="stop-color:#91c5a9;stop-opacity:1.0000000;"
         offset="0.0000000"
         id="stop2533" />
      <stop
         id="stop2539"
         offset="0.070000000"
         style="stop-color:#91c5a9;stop-opacity:1.0000000;" />
      <stop
         style="stop-color:#9107a9;stop-opacity:1.0000000;"
         offset="1.0000000"
         id="stop2535" />
    </linearGradient>
    <linearGradient
       inkscape:collect="always"
       xlink:href="#linearGradient2531"
       id="linearGradient3270"
       x1="161.71674"
       y1="195.70815"
       x2="161.45923"
       y2="12.572755"
       gradientUnits="userSpaceOnUse" />
  </defs>
  <sodipodi:namedview
     id="base"
     pagecolor="#ffffff"
     bordercolor="#666666"
     borderopacity="1.0"
     inkscape:pageopacity="0.0000000"
     inkscape:pageshadow="2"
     inkscape:zoom="3.8833333"
     inkscape:cx="160.06746"
     inkscape:cy="119.98738"
     inkscape:document-units="px"
     inkscape:current-layer="layer2"
     showborder="true"
     borderlayer="top"
     showgrid="true"
     inkscape:grid-bbox="true"
     inkscape:grid-points="true"
     showguides="true"
     gridspacingx="2.0000000px"
     gridspacingy="2.0000000px"
     gridtolerance="2.0000000px"
     inkscape:window-width="1478"
     inkscape:window-height="1107"
     inkscape:window-x="0"
     inkscape:window-y="30" />
  <metadata
     id="metadata4">
    <rdf:RDF>
      <cc:Work
         rdf:about="">
        <dc:format>image/svg+xml</dc:format>
        <dc:type
           rdf:resource="http://purl.org/dc/dcmitype/StillImage" />
      </cc:Work>
    </rdf:RDF>
  </metadata>
  <g
     style="display:none"
     inkscape:label="Layer 1"
     inkscape:groupmode="layer"
     id="layer1">
    <path
       style="fill:#0055ff;fill-opacity:1.0000000;fill-rule:evenodd;stroke:#000000;stroke-width:2.5000000;stroke-linecap:butt;stroke-linejoin:miter;stroke-miterlimit:4.0000000;stroke-opacity:1.0000000"
       d="M 16.000000,40.000000 L 256.00000,40.000000 L 256.00000,104.00000 L 80.000000,104.00000 L 80.000000,72.000000 L 48.000000,72.000000 L 48.000000,128.00000 L 280.00000,128.00000 L 280.00000,80.000000 L 312.00000,80.000000 L 312.00000,160.00000 L 16.000000,160.00000 L 16.000000,40.000000 z "
       id="path1061"
       sodipodi:nodetypes="ccccccccccccc" />
    <path
       style="fill:#0055ff;fill-opacity:1.0000000;fill-rule:evenodd;stroke:#000000;stroke-width:4.0000000;stroke-linecap:butt;stroke-linejoin:miter;stroke-miterlimit:4.0000000;stroke-opacity:1.0000000"
       d="M 150.00000,160.00000 L 134.00000,160.00000 L 154.00000,188.00000 L 134.00000,212.00000 L 134.00000,232.00000 L 178.00000,232.00000 L 178.00000,212.00000 L 150.00000,212.00000 L 166.00000,188.00000 L 150.00000,160.00000 z "
       id="path1064"
       sodipodi:nodetypes="czcccccccs" />
    <path
       style="fill:#0055ff;fill-opacity:1.0000000;fill-rule:evenodd;stroke:#000000;stroke-width:4.0000000;stroke-linecap:butt;stroke-linejoin:miter;stroke-miterlimit:4.0000000;stroke-opacity:1.0000000"
       d="M 178.00000,160.00000 L 162.00000,160.00000 L 182.00000,188.00000 L 162.00000,212.00000 L 162.00000,232.00000 L 206.00000,232.00000 L 206.00000,212.00000 L 178.00000,212.00000 L 194.00000,188.00000 L 178.00000,160.00000 z "
       id="path2091"
       sodipodi:nodetypes="czcccccccs" />
  </g>
  <g
     style="display:inline"
     inkscape:label="Layer 2"
     id="layer2"
     inkscape:groupmode="layer">
    <path
       style="opacity:1.0000000;color:#000000;fill:#9107a9;fill-opacity:1.0000000;fill-rule:evenodd;stroke:#000000;stroke-width:3.0000007;stroke-linecap:butt;stroke-linejoin:miter;marker:none;marker-start:none;marker-mid:none;marker-end:none;stroke-miterlimit:4.0000000;stroke-dasharray:none;stroke-dashoffset:0.0000000;stroke-opacity:1.0000000;visibility:visible;display:inline;overflow:visible"
       d="M 169.02040,188.50000 L 179.92655,210.00000 L 177.74532,224.50000 L 190.83270,224.50000 L 190.83270,232.50000 L 155.93303,232.50000 L 155.93303,224.50000 L 169.02040,224.50000 L 171.20163,210.00000 L 160.29548,188.50000 L 169.02040,188.50000 z "
       id="path6964"
       sodipodi:nodetypes="ccccccccccc" />
    <path
       style="fill:#ffffff;fill-opacity:1.0000000;fill-rule:evenodd;stroke:#000000;stroke-width:3.0000007;stroke-linecap:butt;stroke-linejoin:miter;stroke-miterlimit:4.0000000;stroke-dasharray:none;stroke-opacity:1.0000000"
       d="M 170.11102,129.00000 L 172.29225,143.50000 L 181.01717,141.50000 L 178.83593,129.00000 L 170.11102,129.00000 z "
       id="path5501"
       sodipodi:nodetypes="ccccc" />
    <path
       style="fill:#ffffff;fill-opacity:1.0000000;fill-rule:evenodd;stroke:#000000;stroke-width:3.0000007;stroke-linecap:butt;stroke-linejoin:miter;stroke-miterlimit:4.0000000;stroke-dasharray:none;stroke-opacity:1.0000000"
       d="M 181.56247,157.00000 L 181.56247,145.00000 L 191.92332,143.50000 L 190.28739,157.00000 L 181.56247,157.00000 z "
       id="path5503"
       sodipodi:nodetypes="ccccc" />
    <path
       style="fill:#ffffff;fill-opacity:1.0000000;fill-rule:evenodd;stroke:#000000;stroke-width:3.0000007;stroke-linecap:butt;stroke-linejoin:miter;stroke-miterlimit:4.0000000;stroke-dasharray:none;stroke-opacity:1.0000000"
       d="M 205.01069,131.50000 L 205.01069,141.50000 L 213.73561,143.50000 L 218.09807,131.50000 L 205.01069,131.50000 z "
       id="path5505"
       sodipodi:nodetypes="ccccc" />
    <path
       style="fill:#ffffff;fill-opacity:1.0000000;fill-rule:evenodd;stroke:#000000;stroke-width:3.0000007;stroke-linecap:butt;stroke-linejoin:miter;stroke-miterlimit:4.0000000;stroke-dasharray:none;stroke-opacity:1.0000000"
       d="M 222.46052,159.50000 L 224.64176,143.50000 L 233.36667,145.50000 L 231.18545,155.50000 L 222.46052,159.50000 z "
       id="path5507"
       sodipodi:nodetypes="ccccc" />
    <path
       id="path1065"
       style="fill:url(#linearGradient3270);fill-opacity:1.0000000;fill-rule:evenodd;stroke:#000000;stroke-width:2.9999986;stroke-linecap:butt;stroke-linejoin:miter;marker-mid:none;stroke-miterlimit:4.0000000;stroke-dasharray:none;stroke-opacity:1.0000000;opacity:1.0000000;color:#000000;marker:none;marker-start:none;marker-end:none;stroke-dashoffset:0.0000000;visibility:visible;display:inline;overflow:visible"
       d="M 160.23993,14.072755 C 110.75837,14.072755 78.733678,59.554566 75.091725,105.03638 C 71.449774,150.51819 96.190553,196.00000 160.23993,196.00000 C 192.14000,196.00000 214.24407,184.62955 227.91788,167.57387 C 229.62711,165.44191 231.20461,163.22112 232.65307,160.92260 C 234.10151,158.62408 235.42090,156.24783 236.61391,153.80496 C 237.80691,151.36209 173.38286,158.00000 166.83918,154.00000 C 161.70588,150.86214 159.80491,137.22490 166.83918,134.00000 C 175.56410,130.00000 242.94448,135.76103 243.23335,134.40774 C 243.52222,133.05444 243.78116,131.69143 244.01050,130.32009 C 244.46918,127.57741 244.80948,124.80142 245.03406,122.00323 C 245.25864,119.20503 245.36751,116.38462 245.36331,113.55312 C 245.35913,110.72161 245.24189,107.87899 245.01427,105.03638 C 241.37232,59.554566 209.47224,14.072755 160.23993,14.072755 z "
       sodipodi:nodetypes="cssssssssssssc" />
    <path
       sodipodi:type="arc"
       style="opacity:1.0000000;color:#000000;fill:#ffffff;fill-opacity:1.0000000;fill-rule:evenodd;stroke:#000000;stroke-width:2.3754053;stroke-linecap:butt;stroke-linejoin:round;marker:none;marker-start:none;marker-mid:none;marker-end:none;stroke-miterlimit:4.0000000;stroke-dasharray:none;stroke-dashoffset:0.0000000;stroke-opacity:1.0000000;visibility:visible;display:inline;overflow:visible"
       id="path4043"
       sodipodi:cx="138.00000"
       sodipodi:cy="70.000000"
       sodipodi:rx="14.000000"
       sodipodi:ry="18.000000"
       d="M 152.00000 70.000000 A 14.000000 18.000000 0 1 1  124.00000,70.000000 A 14.000000 18.000000 0 1 1  152.00000 70.000000 z"
       transform="matrix(1.226942,0.000000,0.000000,1.300000,17.15228,-28.40000)" />
    <path
       sodipodi:type="arc"
       style="opacity:1.0000000;color:#000000;fill:#000000;fill-opacity:1.0000000;fill-rule:evenodd;stroke:#000000;stroke-width:2.8726695;stroke-linecap:butt;stroke-linejoin:round;marker:none;marker-start:none;marker-mid:none;marker-end:none;stroke-miterlimit:4.0000000;stroke-dasharray:none;stroke-dashoffset:0.0000000;stroke-opacity:1.0000000;visibility:visible;display:inline;overflow:visible"
       id="path4045"
       sodipodi:cx="182.00000"
       sodipodi:cy="66.000000"
       sodipodi:rx="2.0000000"
       sodipodi:ry="2.0000000"
       d="M 184.00000 66.000000 A 2.0000000 2.0000000 0 1 1  180.00000,66.000000 A 2.0000000 2.0000000 0 1 1  184.00000 66.000000 z"
       transform="matrix(1.090615,0.000000,0.000000,1.000000,-12.02165,2.000000)" />
    <path
       style="opacity:1.0000000;color:#000000;fill:#9107a9;fill-opacity:1.0000000;fill-rule:evenodd;stroke:#000000;stroke-width:3.0000007;stroke-linecap:butt;stroke-linejoin:miter;marker:none;marker-start:none;marker-mid:none;marker-end:none;stroke-miterlimit:4.0000000;stroke-dasharray:none;stroke-dashoffset:0.0000000;stroke-opacity:1.0000000;visibility:visible;display:inline;overflow:visible"
       d="M 155.38772,189.50000 L 166.29387,211.00000 L 164.11264,225.50000 L 177.20001,225.50000 L 177.20001,233.50000 L 142.30034,233.50000 L 142.30034,225.50000 L 155.38772,225.50000 L 157.56895,211.00000 L 146.66280,189.50000"
       id="path8279"
       sodipodi:nodetypes="cccccccccc" />
    <path
       sodipodi:type="arc"
       style="opacity:1.0000000;color:#000000;fill:#ffffff;fill-opacity:1.0000000;fill-rule:evenodd;stroke:#000000;stroke-width:0.95182925;stroke-linecap:butt;stroke-linejoin:miter;marker:none;marker-start:none;marker-mid:none;marker-end:none;stroke-miterlimit:4.0000000;stroke-dasharray:none;stroke-dashoffset:0.0000000;stroke-opacity:1.0000000;visibility:visible;display:inline;overflow:visible"
       id="path3281"
       sodipodi:cx="151.00000"
       sodipodi:cy="177.00000"
       sodipodi:rx="3.0000000"
       sodipodi:ry="3.0000000"
       d="M 154.00000 177.00000 A 3.0000000 3.0000000 0 1 1  148.00000,177.00000 A 3.0000000 3.0000000 0 1 1  154.00000 177.00000 z"
       transform="matrix(0.702594,0.217288,-0.217288,0.702594,49.53373,19.38712)" />
    <path
       sodipodi:type="arc"
       style="opacity:1.0000000;color:#000000;fill:#ffffff;fill-opacity:1.0000000;fill-rule:evenodd;stroke:#000000;stroke-width:0.95182925;stroke-linecap:butt;stroke-linejoin:miter;marker:none;marker-start:none;marker-mid:none;marker-end:none;stroke-miterlimit:4.0000000;stroke-dasharray:none;stroke-dashoffset:0.0000000;stroke-opacity:1.0000000;visibility:visible;display:inline;overflow:visible"
       id="path3283"
       sodipodi:cx="203.00000"
       sodipodi:cy="147.00000"
       sodipodi:rx="3.0000000"
       sodipodi:ry="3.0000000"
       d="M 206.00000 147.00000 A 3.0000000 3.0000000 0 1 1  200.00000,147.00000 A 3.0000000 3.0000000 0 1 1  206.00000 147.00000 z"
       transform="matrix(0.702594,0.217288,-0.217288,0.702594,50.75801,32.85222)" />
    <path
       sodipodi:type="arc"
       style="opacity:1.0000000;color:#000000;fill:#ffffff;fill-opacity:1.0000000;fill-rule:evenodd;stroke:#000000;stroke-width:0.95182925;stroke-linecap:butt;stroke-linejoin:miter;marker:none;marker-start:none;marker-mid:none;marker-end:none;stroke-miterlimit:4.0000000;stroke-dasharray:none;stroke-dashoffset:0.0000000;stroke-opacity:1.0000000;visibility:visible;display:inline;overflow:visible"
       id="path3285"
       sodipodi:cx="167.00000"
       sodipodi:cy="155.00000"
       sodipodi:rx="3.0000000"
       sodipodi:ry="3.0000000"
       d="M 170.00000 155.00000 A 3.0000000 3.0000000 0 1 1  164.00000,155.00000 A 3.0000000 3.0000000 0 1 1  170.00000 155.00000 z"
       transform="matrix(0.702594,0.217288,-0.217288,0.702594,51.46772,28.06806)" />
    <path
       sodipodi:type="arc"
       style="opacity:1.0000000;color:#000000;fill:#ffffff;fill-opacity:1.0000000;fill-rule:evenodd;stroke:#000000;stroke-width:0.95182925;stroke-linecap:butt;stroke-linejoin:miter;marker:none;marker-start:none;marker-mid:none;marker-end:none;stroke-miterlimit:4.0000000;stroke-dasharray:none;stroke-dashoffset:0.0000000;stroke-opacity:1.0000000;visibility:visible;display:inline;overflow:visible"
       id="path4013"
       sodipodi:cx="151.00000"
       sodipodi:cy="177.00000"
       sodipodi:rx="3.0000000"
       sodipodi:ry="3.0000000"
       d="M 154.00000 177.00000 A 3.0000000 3.0000000 0 1 1  148.00000,177.00000 A 3.0000000 3.0000000 0 1 1  154.00000 177.00000 z"
       transform="matrix(0.702594,0.217288,-0.217288,0.702594,72.33548,30.28788)" />
    <path
       sodipodi:type="arc"
       style="opacity:1.0000000;color:#000000;fill:#ffffff;fill-opacity:1.0000000;fill-rule:evenodd;stroke:#000000;stroke-width:0.95182925;stroke-linecap:butt;stroke-linejoin:miter;marker:none;marker-start:none;marker-mid:none;marker-end:none;stroke-miterlimit:4.0000000;stroke-dasharray:none;stroke-dashoffset:0.0000000;stroke-opacity:1.0000000;visibility:visible;display:inline;overflow:visible"
       id="path4015"
       sodipodi:cx="203.00000"
       sodipodi:cy="147.00000"
       sodipodi:rx="3.0000000"
       sodipodi:ry="3.0000000"
       d="M 206.00000 147.00000 A 3.0000000 3.0000000 0 1 1  200.00000,147.00000 A 3.0000000 3.0000000 0 1 1  206.00000 147.00000 z"
       transform="matrix(0.702594,0.217288,-0.217288,0.702594,74.87777,29.53451)" />
    <path
       sodipodi:type="arc"
       style="opacity:1.0000000;color:#000000;fill:#ffffff;fill-opacity:1.0000000;fill-rule:evenodd;stroke:#000000;stroke-width:0.95182925;stroke-linecap:butt;stroke-linejoin:miter;marker:none;marker-start:none;marker-mid:none;marker-end:none;stroke-miterlimit:4.0000000;stroke-dasharray:none;stroke-dashoffset:0.0000000;stroke-opacity:1.0000000;visibility:visible;display:inline;overflow:visible"
       id="path4017"
       sodipodi:cx="167.00000"
       sodipodi:cy="155.00000"
       sodipodi:rx="3.0000000"
       sodipodi:ry="3.0000000"
       d="M 170.00000 155.00000 A 3.0000000 3.0000000 0 1 1  164.00000,155.00000 A 3.0000000 3.0000000 0 1 1  170.00000 155.00000 z"
       transform="matrix(0.702594,0.217288,-0.217288,0.702594,72.72310,42.72443)" />
    <path
       sodipodi:type="arc"
       style="opacity:1.0000000;color:#000000;fill:#ffffff;fill-opacity:1.0000000;fill-rule:evenodd;stroke:#000000;stroke-width:0.95182925;stroke-linecap:butt;stroke-linejoin:miter;marker:none;marker-start:none;marker-mid:none;marker-end:none;stroke-miterlimit:4.0000000;stroke-dasharray:none;stroke-dashoffset:0.0000000;stroke-opacity:1.0000000;visibility:visible;display:inline;overflow:visible"
       id="path4019"
       sodipodi:cx="151.00000"
       sodipodi:cy="177.00000"
       sodipodi:rx="3.0000000"
       sodipodi:ry="3.0000000"
       d="M 154.00000 177.00000 A 3.0000000 3.0000000 0 1 1  148.00000,177.00000 A 3.0000000 3.0000000 0 1 1  154.00000 177.00000 z"
       transform="matrix(0.702594,0.217288,-0.217288,0.702594,63.12566,23.97553)" />
    <path
       sodipodi:type="arc"
       style="opacity:1.0000000;color:#000000;fill:#ffffff;fill-opacity:1.0000000;fill-rule:evenodd;stroke:#000000;stroke-width:0.95182925;stroke-linecap:butt;stroke-linejoin:miter;marker:none;marker-start:none;marker-mid:none;marker-end:none;stroke-miterlimit:4.0000000;stroke-dasharray:none;stroke-dashoffset:0.0000000;stroke-opacity:1.0000000;visibility:visible;display:inline;overflow:visible"
       id="path4021"
       sodipodi:cx="203.00000"
       sodipodi:cy="147.00000"
       sodipodi:rx="3.0000000"
       sodipodi:ry="3.0000000"
       d="M 206.00000 147.00000 A 3.0000000 3.0000000 0 1 1  200.00000,147.00000 A 3.0000000 3.0000000 0 1 1  206.00000 147.00000 z"
       transform="matrix(0.702594,0.217288,-0.217288,0.702594,62.54272,34.57233)" />
    <path
       sodipodi:type="arc"
       style="opacity:1.0000000;color:#000000;fill:#ffffff;fill-opacity:1.0000000;fill-rule:evenodd;stroke:#000000;stroke-width:0.95182925;stroke-linecap:butt;stroke-linejoin:miter;marker:none;marker-start:none;marker-mid:none;marker-end:none;stroke-miterlimit:4.0000000;stroke-dasharray:none;stroke-dashoffset:0.0000000;stroke-opacity:1.0000000;visibility:visible;display:inline;overflow:visible"
       id="path4023"
       sodipodi:cx="167.00000"
       sodipodi:cy="155.00000"
       sodipodi:rx="3.0000000"
       sodipodi:ry="3.0000000"
       d="M 170.00000 155.00000 A 3.0000000 3.0000000 0 1 1  164.00000,155.00000 A 3.0000000 3.0000000 0 1 1  170.00000 155.00000 z"
       transform="matrix(0.702594,0.217288,-0.217288,0.702594,120.3464,22.81083)" />
    <path
       sodipodi:type="arc"
       style="opacity:1.0000000;color:#000000;fill:#ffffff;fill-opacity:1.0000000;fill-rule:evenodd;stroke:#000000;stroke-width:0.95182925;stroke-linecap:butt;stroke-linejoin:miter;marker:none;marker-start:none;marker-mid:none;marker-end:none;stroke-miterlimit:4.0000000;stroke-dasharray:none;stroke-dashoffset:0.0000000;stroke-opacity:1.0000000;visibility:visible;display:inline;overflow:visible"
       id="path4025"
       sodipodi:cx="151.00000"
       sodipodi:cy="177.00000"
       sodipodi:rx="3.0000000"
       sodipodi:ry="3.0000000"
       d="M 154.00000 177.00000 A 3.0000000 3.0000000 0 1 1  148.00000,177.00000 A 3.0000000 3.0000000 0 1 1  154.00000 177.00000 z"
       transform="matrix(0.702594,0.217288,-0.217288,0.702594,31.30264,-0.471448)" />
    <path
       sodipodi:type="arc"
       style="opacity:1.0000000;color:#000000;fill:#ffffff;fill-opacity:1.0000000;fill-rule:evenodd;stroke:#000000;stroke-width:0.95182925;stroke-linecap:butt;stroke-linejoin:miter;marker:none;marker-start:none;marker-mid:none;marker-end:none;stroke-miterlimit:4.0000000;stroke-dasharray:none;stroke-dashoffset:0.0000000;stroke-opacity:1.0000000;visibility:visible;display:inline;overflow:visible"
       id="path4027"
       sodipodi:cx="203.00000"
       sodipodi:cy="147.00000"
       sodipodi:rx="3.0000000"
       sodipodi:ry="3.0000000"
       d="M 206.00000 147.00000 A 3.0000000 3.0000000 0 1 1  200.00000,147.00000 A 3.0000000 3.0000000 0 1 1  206.00000 147.00000 z"
       transform="matrix(0.702594,0.217288,-0.217288,0.702594,38.75801,30.05247)" />
    <path
       sodipodi:type="arc"
       style="opacity:1.0000000;color:#000000;fill:#ffffff;fill-opacity:1.0000000;fill-rule:evenodd;stroke:#000000;stroke-width:0.95182925;stroke-linecap:butt;stroke-linejoin:miter;marker:none;marker-start:none;marker-mid:none;marker-end:none;stroke-miterlimit:4.0000000;stroke-dasharray:none;stroke-dashoffset:0.0000000;stroke-opacity:1.0000000;visibility:visible;display:inline;overflow:visible"
       id="path4029"
       sodipodi:cx="167.00000"
       sodipodi:cy="155.00000"
       sodipodi:rx="3.0000000"
       sodipodi:ry="3.0000000"
       d="M 170.00000 155.00000 A 3.0000000 3.0000000 0 1 1  164.00000,155.00000 A 3.0000000 3.0000000 0 1 1  170.00000 155.00000 z"
       transform="matrix(0.702594,0.217288,-0.217288,0.702594,38.80023,16.68931)" />
    <path
       sodipodi:type="arc"
       style="opacity:1.0000000;color:#000000;fill:#ffffff;fill-opacity:1.0000000;fill-rule:evenodd;stroke:#000000;stroke-width:0.95182925;stroke-linecap:butt;stroke-linejoin:miter;marker:none;marker-start:none;marker-mid:none;marker-end:none;stroke-miterlimit:4.0000000;stroke-dasharray:none;stroke-dashoffset:0.0000000;stroke-opacity:1.0000000;visibility:visible;display:inline;overflow:visible"
       id="path4757"
       sodipodi:cx="151.00000"
       sodipodi:cy="177.00000"
       sodipodi:rx="3.0000000"
       sodipodi:ry="3.0000000"
       d="M 154.00000 177.00000 A 3.0000000 3.0000000 0 1 1  148.00000,177.00000 A 3.0000000 3.0000000 0 1 1  154.00000 177.00000 z"
       transform="matrix(0.702594,0.217288,-0.217288,0.702594,39.14960,17.77416)" />
    <path
       sodipodi:type="arc"
       style="opacity:1.0000000;color:#000000;fill:#ffffff;fill-opacity:1.0000000;fill-rule:evenodd;stroke:#000000;stroke-width:0.95182925;stroke-linecap:butt;stroke-linejoin:miter;marker:none;marker-start:none;marker-mid:none;marker-end:none;stroke-miterlimit:4.0000000;stroke-dasharray:none;stroke-dashoffset:0.0000000;stroke-opacity:1.0000000;visibility:visible;display:inline;overflow:visible"
       id="path4759"
       sodipodi:cx="203.00000"
       sodipodi:cy="147.00000"
       sodipodi:rx="3.0000000"
       sodipodi:ry="3.0000000"
       d="M 206.00000 147.00000 A 3.0000000 3.0000000 0 1 1  200.00000,147.00000 A 3.0000000 3.0000000 0 1 1  206.00000 147.00000 z"
       transform="matrix(0.702594,0.217288,-0.217288,0.702594,82.78804,28.53770)" />
    <path
       sodipodi:type="arc"
       style="opacity:1.0000000;color:#000000;fill:#ffffff;fill-opacity:1.0000000;fill-rule:evenodd;stroke:#000000;stroke-width:0.95182925;stroke-linecap:butt;stroke-linejoin:miter;marker:none;marker-start:none;marker-mid:none;marker-end:none;stroke-miterlimit:4.0000000;stroke-dasharray:none;stroke-dashoffset:0.0000000;stroke-opacity:1.0000000;visibility:visible;display:inline;overflow:visible"
       id="path4761"
       sodipodi:cx="167.00000"
       sodipodi:cy="155.00000"
       sodipodi:rx="3.0000000"
       sodipodi:ry="3.0000000"
       d="M 170.00000 155.00000 A 3.0000000 3.0000000 0 1 1  164.00000,155.00000 A 3.0000000 3.0000000 0 1 1  170.00000 155.00000 z"
       transform="matrix(0.702594,0.217288,-0.217288,0.702594,80.34644,24.25409)" />
    <path
       sodipodi:type="arc"
       style="opacity:1.0000000;color:#000000;fill:#ffffff;fill-opacity:1.0000000;fill-rule:evenodd;stroke:#000000;stroke-width:0.95182925;stroke-linecap:butt;stroke-linejoin:miter;marker:none;marker-start:none;marker-mid:none;marker-end:none;stroke-miterlimit:4.0000000;stroke-dasharray:none;stroke-dashoffset:0.0000000;stroke-opacity:1.0000000;visibility:visible;display:inline;overflow:visible"
       id="path4763"
       sodipodi:cx="151.00000"
       sodipodi:cy="177.00000"
       sodipodi:rx="3.0000000"
       sodipodi:ry="3.0000000"
       d="M 154.00000 177.00000 A 3.0000000 3.0000000 0 1 1  148.00000,177.00000 A 3.0000000 3.0000000 0 1 1  154.00000 177.00000 z"
       transform="matrix(0.702594,0.217288,-0.217288,0.702594,55.49288,25.85094)" />
    <path
       sodipodi:type="arc"
       style="opacity:1.0000000;color:#000000;fill:#ffffff;fill-opacity:1.0000000;fill-rule:evenodd;stroke:#000000;stroke-width:0.95182925;stroke-linecap:butt;stroke-linejoin:miter;marker:none;marker-start:none;marker-mid:none;marker-end:none;stroke-miterlimit:4.0000000;stroke-dasharray:none;stroke-dashoffset:0.0000000;stroke-opacity:1.0000000;visibility:visible;display:inline;overflow:visible"
       id="path4765"
       sodipodi:cx="203.00000"
       sodipodi:cy="147.00000"
       sodipodi:rx="3.0000000"
       sodipodi:ry="3.0000000"
       d="M 206.00000 147.00000 A 3.0000000 3.0000000 0 1 1  200.00000,147.00000 A 3.0000000 3.0000000 0 1 1  206.00000 147.00000 z"
       transform="matrix(0.702594,0.217288,-0.217288,0.702594,106.9077,25.22003)" />
    <path
       sodipodi:type="arc"
       style="opacity:1.0000000;color:#000000;fill:#ffffff;fill-opacity:1.0000000;fill-rule:evenodd;stroke:#000000;stroke-width:0.95182925;stroke-linecap:butt;stroke-linejoin:miter;marker:none;marker-start:none;marker-mid:none;marker-end:none;stroke-miterlimit:4.0000000;stroke-dasharray:none;stroke-dashoffset:0.0000000;stroke-opacity:1.0000000;visibility:visible;display:inline;overflow:visible"
       id="path4767"
       sodipodi:cx="167.00000"
       sodipodi:cy="155.00000"
       sodipodi:rx="3.0000000"
       sodipodi:ry="3.0000000"
       d="M 170.00000 155.00000 A 3.0000000 3.0000000 0 1 1  164.00000,155.00000 A 3.0000000 3.0000000 0 1 1  170.00000 155.00000 z"
       transform="matrix(0.702594,0.217288,-0.217288,0.702594,104.7530,38.40990)" />
    <path
       sodipodi:type="arc"
       style="opacity:1.0000000;color:#000000;fill:#ffffff;fill-opacity:1.0000000;fill-rule:evenodd;stroke:#000000;stroke-width:0.95182925;stroke-linecap:butt;stroke-linejoin:miter;marker:none;marker-start:none;marker-mid:none;marker-end:none;stroke-miterlimit:4.0000000;stroke-dasharray:none;stroke-dashoffset:0.0000000;stroke-opacity:1.0000000;visibility:visible;display:inline;overflow:visible"
       id="path4769"
       sodipodi:cx="151.00000"
       sodipodi:cy="177.00000"
       sodipodi:rx="3.0000000"
       sodipodi:ry="3.0000000"
       d="M 154.00000 177.00000 A 3.0000000 3.0000000 0 1 1  148.00000,177.00000 A 3.0000000 3.0000000 0 1 1  154.00000 177.00000 z"
       transform="matrix(0.702594,0.217288,-0.217288,0.702594,105.8865,32.13318)" />
    <path
       sodipodi:type="arc"
       style="opacity:1.0000000;color:#000000;fill:#ffffff;fill-opacity:1.0000000;fill-rule:evenodd;stroke:#000000;stroke-width:0.95182925;stroke-linecap:butt;stroke-linejoin:miter;marker:none;marker-start:none;marker-mid:none;marker-end:none;stroke-miterlimit:4.0000000;stroke-dasharray:none;stroke-dashoffset:0.0000000;stroke-opacity:1.0000000;visibility:visible;display:inline;overflow:visible"
       id="path4771"
       sodipodi:cx="203.00000"
       sodipodi:cy="147.00000"
       sodipodi:rx="3.0000000"
       sodipodi:ry="3.0000000"
       d="M 206.00000 147.00000 A 3.0000000 3.0000000 0 1 1  200.00000,147.00000 A 3.0000000 3.0000000 0 1 1  206.00000 147.00000 z"
       transform="matrix(0.702594,0.217288,-0.217288,0.702594,94.57274,30.25781)" />
    <path
       sodipodi:type="arc"
       style="opacity:1.0000000;color:#000000;fill:#ffffff;fill-opacity:1.0000000;fill-rule:evenodd;stroke:#000000;stroke-width:0.95182925;stroke-linecap:butt;stroke-linejoin:miter;marker:none;marker-start:none;marker-mid:none;marker-end:none;stroke-miterlimit:4.0000000;stroke-dasharray:none;stroke-dashoffset:0.0000000;stroke-opacity:1.0000000;visibility:visible;display:inline;overflow:visible"
       id="path4773"
       sodipodi:cx="167.00000"
       sodipodi:cy="155.00000"
       sodipodi:rx="3.0000000"
       sodipodi:ry="3.0000000"
       d="M 170.00000 155.00000 A 3.0000000 3.0000000 0 1 1  164.00000,155.00000 A 3.0000000 3.0000000 0 1 1  170.00000 155.00000 z"
       transform="matrix(0.702594,0.217288,-0.217288,0.702594,96.34644,23.36758)" />
    <path
       sodipodi:type="arc"
       style="opacity:1.0000000;color:#000000;fill:#ffffff;fill-opacity:1.0000000;fill-rule:evenodd;stroke:#000000;stroke-width:0.95182925;stroke-linecap:butt;stroke-linejoin:miter;marker:none;marker-start:none;marker-mid:none;marker-end:none;stroke-miterlimit:4.0000000;stroke-dasharray:none;stroke-dashoffset:0.0000000;stroke-opacity:1.0000000;visibility:visible;display:inline;overflow:visible"
       id="path4777"
       sodipodi:cx="203.00000"
       sodipodi:cy="147.00000"
       sodipodi:rx="3.0000000"
       sodipodi:ry="3.0000000"
       d="M 206.00000 147.00000 A 3.0000000 3.0000000 0 1 1  200.00000,147.00000 A 3.0000000 3.0000000 0 1 1  206.00000 147.00000 z"
       transform="matrix(0.702594,0.217288,-0.217288,0.702594,30.75801,19.16597)" />
  </g>
</svg>
