<?xml version="1.0" encoding="UTF-8" standalone="no"?>
<!-- Created with Inkscape (http://www.inkscape.org/) -->
<svg
   xmlns:dc="http://purl.org/dc/elements/1.1/"
   xmlns:cc="http://web.resource.org/cc/"
   xmlns:rdf="http://www.w3.org/1999/02/22-rdf-syntax-ns#"
   xmlns:svg="http://www.w3.org/2000/svg"
   xmlns="http://www.w3.org/2000/svg"
   xmlns:xlink="http://www.w3.org/1999/xlink"
   xmlns:sodipodi="http://inkscape.sourceforge.net/DTD/sodipodi-0.dtd"
   xmlns:inkscape="http://www.inkscape.org/namespaces/inkscape"
   width="320.00000px"
   height="240.00000px"
   id="svg2"
   sodipodi:version="0.32"
   inkscape:version="0.43"
   sodipodi:docbase="/home/joe/programming/gnumch/data/animation/pics"
   sodipodi:docname="eater__eating_down_02.svg"
   inkscape:export-filename="/home/joe/programming/gnumch/data/animation/pics/muncher__eating_down_01.png"
   inkscape:export-xdpi="36.000000"
   inkscape:export-ydpi="36.000000">
  <defs
     id="defs3">
    <linearGradient
       id="linearGradient5235">
      <stop
         id="stop5237"
         offset="0"
         style="stop-color:#2e4742;stop-opacity:1;" />
      <stop
         id="stop6013"
         offset="0.50999999"
         style="stop-color:#2e4742;stop-opacity:0.91752577;" />
      <stop
         id="stop7531"
         offset="0.81000000"
         style="stop-color:#2e4742;stop-opacity:0.0000000;" />
      <stop
         id="stop5239"
         offset="1"
         style="stop-color:#2e4742;stop-opacity:0;" />
    </linearGradient>
    <radialGradient
       gradientUnits="userSpaceOnUse"
       r="13.261579"
       fy="434.21671"
       fx="1032.0625"
       cy="434.05731"
       cx="1031.8485"
       gradientTransform="matrix(0.287107,-0.967403,-1.302591,-0.386585,399.0235,1266.53)"
       id="radialGradient6011"
       xlink:href="#linearGradient5235"
       inkscape:collect="always" />
    <linearGradient
       id="linearGradient2531">
      <stop
         style="stop-color:#91c5a9;stop-opacity:1.0000000;"
         offset="0.0000000"
         id="stop2533" />
      <stop
         id="stop2539"
         offset="0.070000000"
         style="stop-color:#91c5a9;stop-opacity:1.0000000;" />
      <stop
         style="stop-color:#9107a9;stop-opacity:1.0000000;"
         offset="1.0000000"
         id="stop2535" />
    </linearGradient>
    <radialGradient
       inkscape:collect="always"
       xlink:href="#linearGradient5235"
       id="radialGradient2905"
       gradientUnits="userSpaceOnUse"
       gradientTransform="matrix(-0.287107,-0.967403,1.302591,-0.386585,-104.8182,1266.4)"
       cx="1031.8485"
       cy="434.05731"
       fx="1032.0625"
       fy="434.21671"
       r="13.261579" />
  </defs>
  <sodipodi:namedview
     id="base"
     pagecolor="#ffffff"
     bordercolor="#666666"
     borderopacity="1.0"
     inkscape:pageopacity="0.0000000"
     inkscape:pageshadow="2"
     inkscape:zoom="4.0083333"
     inkscape:cx="160"
     inkscape:cy="114.08244"
     inkscape:document-units="px"
     inkscape:current-layer="layer2"
     showborder="true"
     borderlayer="top"
     showgrid="true"
     inkscape:grid-bbox="false"
     inkscape:grid-points="false"
     showguides="true"
     gridspacingx="2.0000000px"
     gridspacingy="2.0000000px"
     gridtolerance="2.0000000px"
     inkscape:window-width="1479"
     inkscape:window-height="1137"
     inkscape:window-x="0"
     inkscape:window-y="0"
     inkscape:guide-bbox="true" />
  <metadata
     id="metadata4">
    <rdf:RDF>
      <cc:Work
         rdf:about="">
        <dc:format>image/svg+xml</dc:format>
        <dc:type
           rdf:resource="http://purl.org/dc/dcmitype/StillImage" />
      </cc:Work>
    </rdf:RDF>
  </metadata>
  <g
     style="display:none"
     inkscape:label="Layer 1"
     inkscape:groupmode="layer"
     id="layer1">
    <path
       style="fill:#0055ff;fill-opacity:1.0000000;fill-rule:evenodd;stroke:#000000;stroke-width:2.5000000;stroke-linecap:butt;stroke-linejoin:miter;stroke-miterlimit:4.0000000;stroke-opacity:1.0000000"
       d="M 16.000000,40.000000 L 256.00000,40.000000 L 256.00000,104.00000 L 80.000000,104.00000 L 80.000000,72.000000 L 48.000000,72.000000 L 48.000000,128.00000 L 280.00000,128.00000 L 280.00000,80.000000 L 312.00000,80.000000 L 312.00000,160.00000 L 16.000000,160.00000 L 16.000000,40.000000 z "
       id="path1061"
       sodipodi:nodetypes="ccccccccccccc" />
    <path
       style="fill:#0055ff;fill-opacity:1.0000000;fill-rule:evenodd;stroke:#000000;stroke-width:4.0000000;stroke-linecap:butt;stroke-linejoin:miter;stroke-miterlimit:4.0000000;stroke-opacity:1.0000000"
       d="M 150.00000,160.00000 L 134.00000,160.00000 L 154.00000,188.00000 L 134.00000,212.00000 L 134.00000,232.00000 L 178.00000,232.00000 L 178.00000,212.00000 L 150.00000,212.00000 L 166.00000,188.00000 L 150.00000,160.00000 z "
       id="path1064"
       sodipodi:nodetypes="czcccccccs" />
    <path
       style="fill:#0055ff;fill-opacity:1.0000000;fill-rule:evenodd;stroke:#000000;stroke-width:4.0000000;stroke-linecap:butt;stroke-linejoin:miter;stroke-miterlimit:4.0000000;stroke-opacity:1.0000000"
       d="M 178.00000,160.00000 L 162.00000,160.00000 L 182.00000,188.00000 L 162.00000,212.00000 L 162.00000,232.00000 L 206.00000,232.00000 L 206.00000,212.00000 L 178.00000,212.00000 L 194.00000,188.00000 L 178.00000,160.00000 z "
       id="path2091"
       sodipodi:nodetypes="czcccccccs" />
  </g>
  <g
     style="display:inline"
     inkscape:label="Layer 2"
     id="layer2"
     inkscape:groupmode="layer">
    <path
       sodipodi:nodetypes="ccccccccccc"
       id="path8478"
       d="M 137.15428,211.76173 L 132.37909,224.67766 L 136.13594,232.441 L 134.20477,239.54803 L 138.44091,235.22649 L 142.97642,238.69118 L 142.43933,234.45075 L 147.53775,232.69424 L 140.87652,232.00091 L 137.36959,225.36078 L 142.40212,212.64486"
       style="color:#000000;fill:#005b4d;fill-opacity:1;fill-rule:evenodd;stroke:#000000;stroke-width:3;stroke-linecap:butt;stroke-linejoin:bevel;marker:none;marker-start:none;marker-mid:none;marker-end:none;stroke-miterlimit:4;stroke-dasharray:none;stroke-dashoffset:0;stroke-opacity:1;visibility:visible;display:inline;overflow:visible" />
    <path
       sodipodi:nodetypes="ccccccccccc"
       id="path3784"
       d="M 149.71306,210.51711 L 145.93579,223.18356 L 150.1916,231.94482 L 148.26043,239.05185 L 152.49657,234.73031 L 157.03208,238.195 L 156.49499,233.95457 L 161.59341,232.19806 L 154.93218,231.50473 L 150.92629,223.86668 L 154.9609,211.40024"
       style="color:#000000;fill:#005b4d;fill-opacity:1;fill-rule:evenodd;stroke:#000000;stroke-width:3;stroke-linecap:butt;stroke-linejoin:bevel;marker:none;marker-start:none;marker-mid:none;marker-end:none;stroke-miterlimit:4;stroke-dashoffset:0;stroke-opacity:1;visibility:visible;display:inline;overflow:visible;stroke-dasharray:none" />
    <path
       sodipodi:nodetypes="csszzsscc"
       id="path1362"
       d="M 93.49203,211.91622 C 90.134851,204.42501 98.067552,166.31442 99.661199,156.86625 C 100.91366,149.44087 102.24473,129.43365 101.40824,124.39248 C 100.30337,117.73389 88.97941,87.299287 105.52727,65.752821 C 121.895,44.440717 172.84874,44.373831 187.45672,66.270885 C 201.98832,88.053447 191.6721,117.7987 190.38614,124.71212 C 189.35657,130.24714 187.89671,149.56887 188.2097,156.12978 C 188.52277,162.69068 194.59195,204.41324 192.00896,211.86527 C 167.15069,217.07809 119.18987,217.27217 93.49203,211.91622 z "
       style="color:#000000;fill:#005b4d;fill-opacity:1;fill-rule:evenodd;stroke:#000000;stroke-width:3;stroke-linecap:butt;stroke-linejoin:bevel;marker:none;marker-start:none;marker-mid:none;marker-end:none;stroke-miterlimit:4;stroke-dasharray:none;stroke-dashoffset:0;stroke-opacity:1;visibility:visible;display:inline;overflow:visible" />
    <path
       sodipodi:nodetypes="csscc"
       id="path4435"
       d="M 142.87791,87.13909 C 149.40311,96.074012 132.81382,113.06074 130.5297,116.53689 C 127.76106,120.75045 122.53063,113.70955 118.39482,110.32111 C 115.91975,108.29331 115.17957,93.369794 115.51613,90.347409 C 121.19307,88.421616 138.74503,83.753041 142.87791,87.13909 z "
       style="fill:url(#radialGradient6011);fill-opacity:1;fill-rule:evenodd;stroke:none;stroke-width:3;stroke-linecap:butt;stroke-linejoin:miter;stroke-miterlimit:4;stroke-dasharray:none;stroke-opacity:1" />
    <path
       sodipodi:nodetypes="cczzc"
       id="path2131"
       d="M 115.70801,93.732957 C 124.29321,82.730477 133.64564,84.388985 141.54722,89.251275 C 141.96119,96.872237 136.98375,100.74378 134.70673,102.07701 C 132.56785,103.32934 129.09451,104.07228 126.61962,103.45503 C 124.22841,102.85871 118.94948,100.11347 115.70801,93.732957 z "
       style="color:#000000;fill:#ffffff;fill-opacity:1;fill-rule:evenodd;stroke:#000000;stroke-width:3;stroke-linecap:butt;stroke-linejoin:bevel;marker:none;marker-start:none;marker-mid:none;marker-end:none;stroke-miterlimit:4;stroke-dasharray:none;stroke-dashoffset:0;stroke-opacity:1;visibility:visible;display:inline;overflow:visible" />
    <path
       sodipodi:type="arc"
       style="color:#000000;fill:#000000;fill-opacity:1;fill-rule:evenodd;stroke:#000000;stroke-width:3.06269789;stroke-linecap:butt;stroke-linejoin:bevel;marker:none;marker-start:none;marker-mid:none;marker-end:none;stroke-miterlimit:4;stroke-dasharray:none;stroke-dashoffset:0;stroke-opacity:1;visibility:visible;display:inline;overflow:visible"
       id="path2129"
       sodipodi:cx="856.15509"
       sodipodi:cy="549.38312"
       sodipodi:rx="2.8401482"
       sodipodi:ry="2.1353037"
       d="M 858.99524 549.38312 A 2.8401482 2.1353037 0 1 1  853.31494,549.38312 A 2.8401482 2.1353037 0 1 1  858.99524 549.38312 z"
       transform="matrix(0.621591,-0.723821,-0.759493,-0.659178,18.1404,1076.292)" />
    <path
       sodipodi:nodetypes="csscc"
       id="path2899"
       d="M 151.32725,87.009933 C 144.80205,95.944855 161.39134,112.93159 163.67546,116.40773 C 166.4441,120.62129 171.67453,113.58039 175.81034,110.19195 C 178.28541,108.16415 179.02559,93.240637 178.68903,90.218252 C 173.01209,88.292459 155.46013,83.623884 151.32725,87.009933 z "
       style="fill:url(#radialGradient2905);fill-opacity:1;fill-rule:evenodd;stroke:none;stroke-width:3;stroke-linecap:butt;stroke-linejoin:miter;stroke-miterlimit:4;stroke-dasharray:none;stroke-opacity:1;display:inline" />
    <path
       sodipodi:nodetypes="cczzc"
       id="path2901"
       d="M 178.49715,93.6038 C 169.91195,82.60132 160.55952,84.259828 152.65794,89.122118 C 152.24397,96.74308 157.22141,100.61463 159.49843,101.94786 C 161.63731,103.20018 165.11065,103.94312 167.58554,103.32588 C 169.97675,102.72955 175.25568,99.984309 178.49715,93.6038 z "
       style="color:#000000;fill:#ffffff;fill-opacity:1;fill-rule:evenodd;stroke:#000000;stroke-width:3;stroke-linecap:butt;stroke-linejoin:bevel;marker:none;marker-start:none;marker-mid:none;marker-end:none;stroke-miterlimit:4;stroke-dasharray:none;stroke-dashoffset:0;stroke-opacity:1;visibility:visible;display:inline;overflow:visible" />
    <path
       sodipodi:type="arc"
       style="color:#000000;fill:#000000;fill-opacity:1;fill-rule:evenodd;stroke:#000000;stroke-width:3.06269789;stroke-linecap:butt;stroke-linejoin:bevel;marker:none;marker-start:none;marker-mid:none;marker-end:none;stroke-miterlimit:4;stroke-dasharray:none;stroke-dashoffset:0;stroke-opacity:1;visibility:visible;display:inline;overflow:visible"
       id="path2903"
       sodipodi:cx="856.15509"
       sodipodi:cy="549.38312"
       sodipodi:rx="2.8401482"
       sodipodi:ry="2.1353037"
       d="M 858.99524 549.38312 A 2.8401482 2.1353037 0 1 1  853.31494,549.38312 A 2.8401482 2.1353037 0 1 1  858.99524 549.38312 z"
       transform="matrix(-0.621591,-0.723821,0.759493,-0.659178,278.0607,1077.909)" />
    <path
       sodipodi:nodetypes="czcscsczss"
       id="path2907"
       d="M 143.04291,107.94478 C 144.20458,103.41659 153.35324,86.538867 157.46251,93.974269 C 161.57172,101.40971 169.09724,101.30328 171.75895,113.93895 C 168.26582,107.42145 164.16689,107.38713 161.07011,108.16863 C 154.21422,109.89878 156.52766,132.78767 151.37182,138.63947 C 156.57967,146.89222 151.08209,161.21466 155.82272,166.95407 C 157.42925,168.89907 162.78972,169.67251 164.31013,165.84105 C 163.16105,176.64705 153.44818,173.37404 150.08483,173.96566 C 146.74691,174.55281 141.56322,164.67962 140.89681,161.13928 C 139.5083,153.76292 141.80715,112.76169 143.04291,107.94478 z "
       style="color:#000000;fill:#1f312d;fill-opacity:1;fill-rule:evenodd;stroke:#000000;stroke-width:3;stroke-linecap:butt;stroke-linejoin:bevel;marker:none;marker-start:none;marker-mid:none;marker-end:none;stroke-miterlimit:4;stroke-dasharray:none;stroke-dashoffset:0;stroke-opacity:1;visibility:visible;display:inline;overflow:visible" />
    <path
       sodipodi:nodetypes="czcscsczss"
       id="path2135"
       d="M 138.30032,105.65799 C 139.46199,101.12979 153.9108,83.470235 158.95693,86.697855 C 163.89299,89.855074 169.84322,98.517528 172.50493,114.8954 C 164.77064,103.88726 163.21216,103.58412 157.07596,105.63235 C 150.48533,107.83227 147.33452,127.22651 141.63963,136.85163 C 146.84748,145.10438 149.33327,165.16486 154.0739,170.90427 C 155.68043,172.84927 161.29038,170.12998 164.80663,166.04904 C 164.65547,177.354 155.44156,188.05189 152.07821,187.64559 C 148.68787,187.23603 136.32167,166.63398 135.65526,163.09364 C 134.26675,155.71728 137.06456,110.47489 138.30032,105.65799 z "
       style="color:#000000;fill:#2e4742;fill-opacity:1;fill-rule:evenodd;stroke:#000000;stroke-width:3;stroke-linecap:butt;stroke-linejoin:bevel;marker:none;marker-start:none;marker-mid:none;marker-end:none;stroke-miterlimit:4;stroke-dasharray:none;stroke-dashoffset:0;stroke-opacity:1;visibility:visible;display:inline;overflow:visible" />
    <path
       sodipodi:nodetypes="cczcc"
       id="path1366"
       d="M 134.37959,65.4627 C 136.05141,51.584347 137.12277,50.053437 150.0788,39.410315 C 153.24161,39.107816 162.63316,33.128751 156.36995,27.630358 C 150.0901,22.117384 144.87612,30.09677 145.03313,34.621677 C 134.86003,41.283239 129.39767,49.135052 128.17982,64.736115"
       style="color:#000000;fill:#005b4d;fill-opacity:1;fill-rule:evenodd;stroke:#000000;stroke-width:3;stroke-linecap:butt;stroke-linejoin:bevel;marker:none;marker-start:none;marker-mid:none;marker-end:none;stroke-miterlimit:4;stroke-dasharray:none;stroke-dashoffset:0;stroke-opacity:1;visibility:visible;display:inline;overflow:visible" />
    <path
       sodipodi:nodetypes="cczcc"
       id="path3671"
       d="M 156.54544,65.800019 C 154.83937,53.826904 152.50747,48.706536 143.14016,46.191436 C 140.001,46.681903 132.42386,48.65708 132.04123,40.828248 C 131.65893,33.006038 143.73891,35.720559 144.70775,40.143319 C 156.21403,44.077024 161.36552,49.112227 162.70569,65.160143"
       style="color:#000000;fill:#005b4d;fill-opacity:1;fill-rule:evenodd;stroke:#000000;stroke-width:3;stroke-linecap:butt;stroke-linejoin:bevel;marker:none;marker-start:none;marker-mid:none;marker-end:none;stroke-miterlimit:4;stroke-dasharray:none;stroke-dashoffset:0;stroke-opacity:1;visibility:visible;display:inline;overflow:visible" />
  </g>
</svg>
