<?xml version="1.0" encoding="UTF-8" standalone="no"?>
<!-- Created with Inkscape (http://www.inkscape.org/) -->
<svg
   xmlns:dc="http://purl.org/dc/elements/1.1/"
   xmlns:cc="http://web.resource.org/cc/"
   xmlns:rdf="http://www.w3.org/1999/02/22-rdf-syntax-ns#"
   xmlns:svg="http://www.w3.org/2000/svg"
   xmlns="http://www.w3.org/2000/svg"
   xmlns:xlink="http://www.w3.org/1999/xlink"
   xmlns:sodipodi="http://inkscape.sourceforge.net/DTD/sodipodi-0.dtd"
   xmlns:inkscape="http://www.inkscape.org/namespaces/inkscape"
   width="320.00000px"
   height="240.00000px"
   id="svg2"
   sodipodi:version="0.32"
   inkscape:version="0.43"
   sodipodi:docbase="/home/joe/programming/gnumch/data/animation/pics"
   sodipodi:docname="eater__normal_right_00.svg"
   inkscape:export-filename="/home/joe/programming/gnumch/data/animation/pics/muncher__eating_down_01.png"
   inkscape:export-xdpi="36.000000"
   inkscape:export-ydpi="36.000000">
  <defs
     id="defs3">
    <linearGradient
       id="linearGradient5235">
      <stop
         id="stop5237"
         offset="0"
         style="stop-color:#2e4742;stop-opacity:1;" />
      <stop
         id="stop6013"
         offset="0.50999999"
         style="stop-color:#2e4742;stop-opacity:0.91752577;" />
      <stop
         id="stop7531"
         offset="0.81000000"
         style="stop-color:#2e4742;stop-opacity:0.0000000;" />
      <stop
         id="stop5239"
         offset="1"
         style="stop-color:#2e4742;stop-opacity:0;" />
    </linearGradient>
    <radialGradient
       gradientUnits="userSpaceOnUse"
       r="13.261579"
       fy="434.21671"
       fx="1032.0625"
       cy="434.05731"
       cx="1031.8485"
       gradientTransform="matrix(-0.364039,-0.941156,-1.26725,0.490172,1096.393,835.6061)"
       id="radialGradient6011"
       xlink:href="#linearGradient5235"
       inkscape:collect="always" />
    <linearGradient
       id="linearGradient2531">
      <stop
         style="stop-color:#91c5a9;stop-opacity:1.0000000;"
         offset="0.0000000"
         id="stop2533" />
      <stop
         id="stop2539"
         offset="0.070000000"
         style="stop-color:#91c5a9;stop-opacity:1.0000000;" />
      <stop
         style="stop-color:#9107a9;stop-opacity:1.0000000;"
         offset="1.0000000"
         id="stop2535" />
    </linearGradient>
  </defs>
  <sodipodi:namedview
     id="base"
     pagecolor="#ffffff"
     bordercolor="#666666"
     borderopacity="1.0"
     inkscape:pageopacity="0.0000000"
     inkscape:pageshadow="2"
     inkscape:zoom="4.0083333"
     inkscape:cx="160"
     inkscape:cy="119.38061"
     inkscape:document-units="px"
     inkscape:current-layer="layer2"
     showborder="true"
     borderlayer="top"
     showgrid="true"
     inkscape:grid-bbox="false"
     inkscape:grid-points="false"
     showguides="true"
     gridspacingx="2.0000000px"
     gridspacingy="2.0000000px"
     gridtolerance="2.0000000px"
     inkscape:window-width="1479"
     inkscape:window-height="1137"
     inkscape:window-x="0"
     inkscape:window-y="0"
     inkscape:guide-bbox="true" />
  <metadata
     id="metadata4">
    <rdf:RDF>
      <cc:Work
         rdf:about="">
        <dc:format>image/svg+xml</dc:format>
        <dc:type
           rdf:resource="http://purl.org/dc/dcmitype/StillImage" />
      </cc:Work>
    </rdf:RDF>
  </metadata>
  <g
     style="display:none"
     inkscape:label="Layer 1"
     inkscape:groupmode="layer"
     id="layer1">
    <path
       style="fill:#0055ff;fill-opacity:1.0000000;fill-rule:evenodd;stroke:#000000;stroke-width:2.5000000;stroke-linecap:butt;stroke-linejoin:miter;stroke-miterlimit:4.0000000;stroke-opacity:1.0000000"
       d="M 16.000000,40.000000 L 256.00000,40.000000 L 256.00000,104.00000 L 80.000000,104.00000 L 80.000000,72.000000 L 48.000000,72.000000 L 48.000000,128.00000 L 280.00000,128.00000 L 280.00000,80.000000 L 312.00000,80.000000 L 312.00000,160.00000 L 16.000000,160.00000 L 16.000000,40.000000 z "
       id="path1061"
       sodipodi:nodetypes="ccccccccccccc" />
    <path
       style="fill:#0055ff;fill-opacity:1.0000000;fill-rule:evenodd;stroke:#000000;stroke-width:4.0000000;stroke-linecap:butt;stroke-linejoin:miter;stroke-miterlimit:4.0000000;stroke-opacity:1.0000000"
       d="M 150.00000,160.00000 L 134.00000,160.00000 L 154.00000,188.00000 L 134.00000,212.00000 L 134.00000,232.00000 L 178.00000,232.00000 L 178.00000,212.00000 L 150.00000,212.00000 L 166.00000,188.00000 L 150.00000,160.00000 z "
       id="path1064"
       sodipodi:nodetypes="czcccccccs" />
    <path
       style="fill:#0055ff;fill-opacity:1.0000000;fill-rule:evenodd;stroke:#000000;stroke-width:4.0000000;stroke-linecap:butt;stroke-linejoin:miter;stroke-miterlimit:4.0000000;stroke-opacity:1.0000000"
       d="M 178.00000,160.00000 L 162.00000,160.00000 L 182.00000,188.00000 L 162.00000,212.00000 L 162.00000,232.00000 L 206.00000,232.00000 L 206.00000,212.00000 L 178.00000,212.00000 L 194.00000,188.00000 L 178.00000,160.00000 z "
       id="path2091"
       sodipodi:nodetypes="czcccccccs" />
  </g>
  <g
     style="display:inline"
     inkscape:label="Layer 2"
     id="layer2"
     inkscape:groupmode="layer">
    <path
       sodipodi:nodetypes="cccccccc"
       id="path2895"
       d="M 140.3013,193.81855 L 127.77664,215.81911 L 138.37998,237.67491 L 151.56186,236.99448 L 151.18373,230.82113 L 141.52355,232.77394 L 132.76714,216.50223 L 145.54914,194.70168"
       style="color:#000000;fill:#005b4d;fill-opacity:1;fill-rule:evenodd;stroke:#000000;stroke-width:3;stroke-linecap:butt;stroke-linejoin:bevel;marker:none;marker-start:none;marker-mid:none;marker-end:none;stroke-miterlimit:4;stroke-dashoffset:0;stroke-opacity:1;visibility:visible;display:inline;overflow:visible;stroke-dasharray:none" />
    <path
       sodipodi:nodetypes="cczcc"
       id="path3671"
       d="M 138.79322,49.802132 C 142.77336,36.402058 145.47968,33.991789 160.03993,25.677097 C 163.2086,25.910376 172.28236,22.96347 167.03216,16.490816 C 161.76799,10.000961 158.51764,18.420896 157.91208,22.907848 C 146.76423,27.765226 139.37298,33.084722 135.5509,48.2593"
       style="color:#000000;fill:#005b4d;fill-opacity:1;fill-rule:evenodd;stroke:#000000;stroke-width:3;stroke-linecap:butt;stroke-linejoin:bevel;marker:none;marker-start:none;marker-mid:none;marker-end:none;stroke-miterlimit:4;stroke-dashoffset:0;stroke-opacity:1;visibility:visible;display:inline;overflow:visible;stroke-dasharray:none" />
    <path
       sodipodi:nodetypes="cczzscscc"
       id="path1362"
       d="M 89.189161,184.9374 C 84.981771,180.49176 108.2366,130.52445 106.90884,117.70219 C 105.58109,104.87993 85.411991,80.739476 100.15081,57.917365 C 114.72919,35.343501 167.35915,33.384774 180.54137,54.123541 C 187.13246,64.492876 184.55302,100.48907 183.46363,106.01263 C 182.37425,111.53619 170.6139,120.25547 170.13861,124.79499 C 169.66338,129.33462 180.80882,131.66963 181.65489,138.18328 C 182.50105,144.69692 189.52114,186.73595 187.55339,194.37353 C 154.2807,196.56431 111.91967,202.72226 89.189161,184.9374 z "
       style="color:#000000;fill:#005b4d;fill-opacity:1;fill-rule:evenodd;stroke:#000000;stroke-width:3;stroke-linecap:butt;stroke-linejoin:bevel;marker:none;marker-start:none;marker-mid:none;marker-end:none;stroke-miterlimit:4;stroke-dashoffset:0;stroke-opacity:1;visibility:visible;display:inline;overflow:visible;stroke-dasharray:none" />
    <path
       sodipodi:nodetypes="cczcc"
       id="path1366"
       d="M 136.43935,46.652223 C 136.97578,32.683834 138.25377,29.040948 150.30034,17.3784 C 153.42802,16.81942 162.23578,12.353812 155.54574,7.3835589 C 148.83792,2.40013 147.29498,10.782431 147.81985,15.279535 C 138.22283,22.747181 132.85959,30.312287 132.91587,45.96071"
       style="color:#000000;fill:#005b4d;fill-opacity:1;fill-rule:evenodd;stroke:#000000;stroke-width:3;stroke-linecap:butt;stroke-linejoin:bevel;marker:none;marker-start:none;marker-mid:none;marker-end:none;stroke-miterlimit:4;stroke-dashoffset:0;stroke-opacity:1;visibility:visible;display:inline;overflow:visible;stroke-dasharray:none" />
    <path
       sodipodi:nodetypes="csscc"
       id="path4435"
       d="M 172.81609,58.704022 C 183.44165,61.787593 180.69394,85.371564 181.01073,89.518904 C 181.39475,94.546032 172.95158,92.170168 167.60718,92.016111 C 164.40883,91.923919 154.70173,80.564711 153.12082,77.966866 C 156.43694,72.972897 167.47545,58.550067 172.81609,58.704022 z "
       style="fill:url(#radialGradient6011);fill-opacity:1;fill-rule:evenodd;stroke:none;stroke-width:3;stroke-linecap:butt;stroke-linejoin:miter;stroke-miterlimit:4;stroke-opacity:1;stroke-dasharray:none" />
    <path
       sodipodi:nodetypes="cczzc"
       id="path2131"
       d="M 155.34194,80.529166 C 155.4122,66.573691 163.8281,62.170151 173.05384,61.189084 C 178.03943,66.967874 176.46619,73.074324 175.47886,75.521258 C 174.55141,77.819728 172.25643,80.530656 169.92036,81.554771 C 167.6633,82.544305 161.80726,83.597996 155.34194,80.529166 z "
       style="color:#000000;fill:#ffffff;fill-opacity:1;fill-rule:evenodd;stroke:#000000;stroke-width:3;stroke-linecap:butt;stroke-linejoin:bevel;marker:none;marker-start:none;marker-mid:none;marker-end:none;stroke-miterlimit:4;stroke-dashoffset:0;stroke-opacity:1;visibility:visible;display:inline;overflow:visible;stroke-dasharray:none" />
    <path
       sodipodi:type="arc"
       style="color:#000000;fill:#000000;fill-opacity:1;fill-rule:evenodd;stroke:#000000;stroke-width:3.06269762;stroke-linecap:butt;stroke-linejoin:bevel;marker:none;marker-start:none;marker-mid:none;marker-end:none;stroke-miterlimit:4;stroke-dashoffset:0;stroke-opacity:1;visibility:visible;display:inline;overflow:visible;stroke-dasharray:none"
       id="path2129"
       sodipodi:cx="856.15509"
       sodipodi:cy="549.38312"
       sodipodi:rx="2.8401482"
       sodipodi:ry="2.1353037"
       d="M 858.99524 549.38312 A 2.8401482 2.1353037 0 1 1  853.31494,549.38312 A 2.8401482 2.1353037 0 1 1  858.99524 549.38312 z"
       transform="matrix(4.957469e-2,-0.952804,-1.00401,-5.752109e-2,680.2917,920.3551)" />
    <path
       sodipodi:nodetypes="czcscsczsss"
       id="path2135"
       d="M 165.27978,93.887164 C 168.54617,89.077081 218.26102,90.477773 231.72488,96.83819 C 245.18857,103.19867 244.45013,118.75296 246.06203,132.04998 C 238.13859,121.65238 240.21108,115.35973 225.75823,115.57218 C 203.98657,115.89238 188.58275,118.91185 172.9257,126.06202 C 189.89376,132.95628 206.19837,143.89774 222.24824,145.91162 C 227.61203,146.58468 232.72119,138.33 237.16685,134.12266 C 234.45093,145.18648 231.73108,159.47642 222.83097,162.6611 C 213.93076,165.84582 197.14138,154.8689 183.76589,153.23098 C 178.35729,152.5686 169.72007,157.20664 167.34655,153.84839 C 162.40118,146.85141 161.80504,99.003944 165.27978,93.887164 z "
       style="color:#000000;fill:#2e4742;fill-opacity:1;fill-rule:evenodd;stroke:#000000;stroke-width:3;stroke-linecap:butt;stroke-linejoin:bevel;marker:none;marker-start:none;marker-mid:none;marker-end:none;stroke-miterlimit:4;stroke-dashoffset:0;stroke-opacity:1;visibility:visible;display:inline;overflow:visible;stroke-dasharray:none" />
    <path
       sodipodi:nodetypes="cccccccc"
       id="path1565"
       d="M 145.01998,194.12171 L 131.99636,215.87279 L 141.35229,238.47703 L 154.53417,237.7966 L 154.15604,231.62325 L 144.49586,233.57606 L 136.98686,216.55591 L 150.26782,195.00484"
       style="color:#000000;fill:#005b4d;fill-opacity:1;fill-rule:evenodd;stroke:#000000;stroke-width:3;stroke-linecap:butt;stroke-linejoin:bevel;marker:none;marker-start:none;marker-mid:none;marker-end:none;stroke-miterlimit:4;stroke-dashoffset:0;stroke-opacity:1;visibility:visible;display:inline;overflow:visible;stroke-dasharray:none" />
  </g>
</svg>
