<?xml version="1.0" encoding="UTF-8" standalone="no"?>
<!-- Created with Inkscape (http://www.inkscape.org/) -->
<svg
   xmlns:dc="http://purl.org/dc/elements/1.1/"
   xmlns:cc="http://web.resource.org/cc/"
   xmlns:rdf="http://www.w3.org/1999/02/22-rdf-syntax-ns#"
   xmlns:svg="http://www.w3.org/2000/svg"
   xmlns="http://www.w3.org/2000/svg"
   xmlns:xlink="http://www.w3.org/1999/xlink"
   xmlns:sodipodi="http://inkscape.sourceforge.net/DTD/sodipodi-0.dtd"
   xmlns:inkscape="http://www.inkscape.org/namespaces/inkscape"
   width="320.00000px"
   height="240.00000px"
   id="svg2"
   sodipodi:version="0.32"
   inkscape:version="0.43"
   sodipodi:docbase="/home/joe/programming/gnumch/data/animation/pics"
   sodipodi:docname="eater__eating_down_01.svg"
   inkscape:export-filename="/home/joe/programming/gnumch/data/animation/pics/muncher__eating_down_01.png"
   inkscape:export-xdpi="36.000000"
   inkscape:export-ydpi="36.000000">
  <defs
     id="defs3">
    <linearGradient
       id="linearGradient5235">
      <stop
         id="stop5237"
         offset="0"
         style="stop-color:#2e4742;stop-opacity:1;" />
      <stop
         id="stop6013"
         offset="0.50999999"
         style="stop-color:#2e4742;stop-opacity:0.91752577;" />
      <stop
         id="stop7531"
         offset="0.81000000"
         style="stop-color:#2e4742;stop-opacity:0.0000000;" />
      <stop
         id="stop5239"
         offset="1"
         style="stop-color:#2e4742;stop-opacity:0;" />
    </linearGradient>
    <radialGradient
       gradientUnits="userSpaceOnUse"
       r="13.261579"
       fy="434.21671"
       fx="1032.0625"
       cy="434.05731"
       cx="1031.8485"
       gradientTransform="matrix(0.287107,-0.967403,-1.302591,-0.386585,399.0235,1262.538)"
       id="radialGradient6011"
       xlink:href="#linearGradient5235"
       inkscape:collect="always" />
    <linearGradient
       id="linearGradient2531">
      <stop
         style="stop-color:#91c5a9;stop-opacity:1.0000000;"
         offset="0.0000000"
         id="stop2533" />
      <stop
         id="stop2539"
         offset="0.070000000"
         style="stop-color:#91c5a9;stop-opacity:1.0000000;" />
      <stop
         style="stop-color:#9107a9;stop-opacity:1.0000000;"
         offset="1.0000000"
         id="stop2535" />
    </linearGradient>
    <radialGradient
       inkscape:collect="always"
       xlink:href="#linearGradient5235"
       id="radialGradient2905"
       gradientUnits="userSpaceOnUse"
       gradientTransform="matrix(-0.287107,-0.967403,1.302591,-0.386585,-104.8182,1262.408)"
       cx="1031.8485"
       cy="434.05731"
       fx="1032.0625"
       fy="434.21671"
       r="13.261579" />
  </defs>
  <sodipodi:namedview
     id="base"
     pagecolor="#ffffff"
     bordercolor="#666666"
     borderopacity="1.0"
     inkscape:pageopacity="0.0000000"
     inkscape:pageshadow="2"
     inkscape:zoom="4.0083333"
     inkscape:cx="160"
     inkscape:cy="96.622008"
     inkscape:document-units="px"
     inkscape:current-layer="layer2"
     showborder="true"
     borderlayer="top"
     showgrid="true"
     inkscape:grid-bbox="false"
     inkscape:grid-points="false"
     showguides="true"
     gridspacingx="2.0000000px"
     gridspacingy="2.0000000px"
     gridtolerance="2.0000000px"
     inkscape:window-width="1479"
     inkscape:window-height="1137"
     inkscape:window-x="0"
     inkscape:window-y="0"
     inkscape:guide-bbox="true" />
  <metadata
     id="metadata4">
    <rdf:RDF>
      <cc:Work
         rdf:about="">
        <dc:format>image/svg+xml</dc:format>
        <dc:type
           rdf:resource="http://purl.org/dc/dcmitype/StillImage" />
      </cc:Work>
    </rdf:RDF>
  </metadata>
  <g
     style="display:none"
     inkscape:label="Layer 1"
     inkscape:groupmode="layer"
     id="layer1">
    <path
       style="fill:#0055ff;fill-opacity:1.0000000;fill-rule:evenodd;stroke:#000000;stroke-width:2.5000000;stroke-linecap:butt;stroke-linejoin:miter;stroke-miterlimit:4.0000000;stroke-opacity:1.0000000"
       d="M 16.000000,40.000000 L 256.00000,40.000000 L 256.00000,104.00000 L 80.000000,104.00000 L 80.000000,72.000000 L 48.000000,72.000000 L 48.000000,128.00000 L 280.00000,128.00000 L 280.00000,80.000000 L 312.00000,80.000000 L 312.00000,160.00000 L 16.000000,160.00000 L 16.000000,40.000000 z "
       id="path1061"
       sodipodi:nodetypes="ccccccccccccc" />
    <path
       style="fill:#0055ff;fill-opacity:1.0000000;fill-rule:evenodd;stroke:#000000;stroke-width:4.0000000;stroke-linecap:butt;stroke-linejoin:miter;stroke-miterlimit:4.0000000;stroke-opacity:1.0000000"
       d="M 150.00000,160.00000 L 134.00000,160.00000 L 154.00000,188.00000 L 134.00000,212.00000 L 134.00000,232.00000 L 178.00000,232.00000 L 178.00000,212.00000 L 150.00000,212.00000 L 166.00000,188.00000 L 150.00000,160.00000 z "
       id="path1064"
       sodipodi:nodetypes="czcccccccs" />
    <path
       style="fill:#0055ff;fill-opacity:1.0000000;fill-rule:evenodd;stroke:#000000;stroke-width:4.0000000;stroke-linecap:butt;stroke-linejoin:miter;stroke-miterlimit:4.0000000;stroke-opacity:1.0000000"
       d="M 178.00000,160.00000 L 162.00000,160.00000 L 182.00000,188.00000 L 162.00000,212.00000 L 162.00000,232.00000 L 206.00000,232.00000 L 206.00000,212.00000 L 178.00000,212.00000 L 194.00000,188.00000 L 178.00000,160.00000 z "
       id="path2091"
       sodipodi:nodetypes="czcccccccs" />
  </g>
  <g
     style="display:inline"
     inkscape:label="Layer 2"
     id="layer2"
     inkscape:groupmode="layer">
    <path
       sodipodi:nodetypes="ccccccccccc"
       id="path8478"
       d="M 137.15428,207.02161 L 132.87805,222.68182 L 136.13594,232.441 L 134.20477,239.54803 L 138.44091,235.22649 L 142.97642,238.69118 L 142.43933,234.45075 L 147.53775,232.69424 L 140.87652,232.00091 L 137.86855,223.36494 L 142.40212,207.90474"
       style="color:#000000;fill:#005b4d;fill-opacity:1;fill-rule:evenodd;stroke:#000000;stroke-width:3;stroke-linecap:butt;stroke-linejoin:bevel;marker:none;marker-start:none;marker-mid:none;marker-end:none;stroke-miterlimit:4;stroke-dasharray:none;stroke-dashoffset:0;stroke-opacity:1;visibility:visible;display:inline;overflow:visible" />
    <path
       sodipodi:nodetypes="ccccccccccc"
       id="path3784"
       d="M 151.20994,206.52543 L 146.93371,222.18564 L 150.1916,231.94482 L 148.26043,239.05185 L 152.49657,234.73031 L 157.03208,238.195 L 156.49499,233.95457 L 161.59341,232.19806 L 154.93218,231.50473 L 151.92421,222.86876 L 156.45778,207.40856"
       style="color:#000000;fill:#005b4d;fill-opacity:1;fill-rule:evenodd;stroke:#000000;stroke-width:3;stroke-linecap:butt;stroke-linejoin:bevel;marker:none;marker-start:none;marker-mid:none;marker-end:none;stroke-miterlimit:4;stroke-dashoffset:0;stroke-opacity:1;visibility:visible;display:inline;overflow:visible;stroke-dasharray:none" />
    <path
       sodipodi:nodetypes="csszzsscc"
       id="path1362"
       d="M 93.49203,209.42142 C 90.134851,201.93021 98.067552,163.81962 99.661199,154.37145 C 100.91366,146.94607 102.24473,126.93885 101.40824,121.89768 C 100.30337,115.23909 88.97941,84.804485 105.52727,63.258019 C 121.895,41.945915 172.84874,41.879029 187.45672,63.776083 C 201.98832,85.558645 191.6721,115.3039 190.38614,122.21732 C 189.35657,127.75234 187.89671,147.07407 188.2097,153.63498 C 188.52277,160.19588 194.59195,201.91844 192.00896,209.37047 C 167.15069,214.58329 119.18987,214.77737 93.49203,209.42142 z "
       style="color:#000000;fill:#005b4d;fill-opacity:1;fill-rule:evenodd;stroke:#000000;stroke-width:3;stroke-linecap:butt;stroke-linejoin:bevel;marker:none;marker-start:none;marker-mid:none;marker-end:none;stroke-miterlimit:4;stroke-dasharray:none;stroke-dashoffset:0;stroke-opacity:1;visibility:visible;display:inline;overflow:visible" />
    <path
       sodipodi:nodetypes="csscc"
       id="path4435"
       d="M 142.87791,83.147407 C 149.40311,92.082329 132.81382,109.06906 130.5297,112.54521 C 127.76106,116.75877 122.53063,109.71787 118.39482,106.32943 C 115.91975,104.30163 115.17957,89.378111 115.51613,86.355726 C 121.19307,84.429933 138.74503,79.761358 142.87791,83.147407 z "
       style="fill:url(#radialGradient6011);fill-opacity:1;fill-rule:evenodd;stroke:none;stroke-width:3;stroke-linecap:butt;stroke-linejoin:miter;stroke-miterlimit:4;stroke-dasharray:none;stroke-opacity:1" />
    <path
       sodipodi:nodetypes="cczzc"
       id="path2131"
       d="M 115.70801,89.741274 C 124.29321,78.738794 133.64564,80.397302 141.54722,85.259592 C 141.96119,92.880554 136.98375,96.752099 134.70673,98.085331 C 132.56785,99.337657 129.09451,100.0806 126.61962,99.463352 C 124.22841,98.867025 118.94948,96.121783 115.70801,89.741274 z "
       style="color:#000000;fill:#ffffff;fill-opacity:1;fill-rule:evenodd;stroke:#000000;stroke-width:3;stroke-linecap:butt;stroke-linejoin:bevel;marker:none;marker-start:none;marker-mid:none;marker-end:none;stroke-miterlimit:4;stroke-dasharray:none;stroke-dashoffset:0;stroke-opacity:1;visibility:visible;display:inline;overflow:visible" />
    <path
       sodipodi:type="arc"
       style="color:#000000;fill:#000000;fill-opacity:1;fill-rule:evenodd;stroke:#000000;stroke-width:3.06269789;stroke-linecap:butt;stroke-linejoin:bevel;marker:none;marker-start:none;marker-mid:none;marker-end:none;stroke-miterlimit:4;stroke-dasharray:none;stroke-dashoffset:0;stroke-opacity:1;visibility:visible;display:inline;overflow:visible"
       id="path2129"
       sodipodi:cx="856.15509"
       sodipodi:cy="549.38312"
       sodipodi:rx="2.8401482"
       sodipodi:ry="2.1353037"
       d="M 858.99524 549.38312 A 2.8401482 2.1353037 0 1 1  853.31494,549.38312 A 2.8401482 2.1353037 0 1 1  858.99524 549.38312 z"
       transform="matrix(0.621591,-0.723821,-0.759493,-0.659178,18.1404,1072.3)" />
    <path
       sodipodi:nodetypes="csscc"
       id="path2899"
       d="M 151.32725,83.01825 C 144.80205,91.953172 161.39134,108.93991 163.67546,112.41605 C 166.4441,116.62961 171.67453,109.58871 175.81034,106.20027 C 178.28541,104.17247 179.02559,89.248954 178.68903,86.226569 C 173.01209,84.300776 155.46013,79.632201 151.32725,83.01825 z "
       style="fill:url(#radialGradient2905);fill-opacity:1;fill-rule:evenodd;stroke:none;stroke-width:3;stroke-linecap:butt;stroke-linejoin:miter;stroke-miterlimit:4;stroke-dasharray:none;stroke-opacity:1;display:inline" />
    <path
       sodipodi:nodetypes="cczzc"
       id="path2901"
       d="M 178.49715,89.612117 C 169.91195,78.609637 160.55952,80.268145 152.65794,85.130435 C 152.24397,92.751397 157.22141,96.622942 159.49843,97.956174 C 161.63731,99.2085 165.11065,99.95144 167.58554,99.334195 C 169.97675,98.737868 175.25568,95.992626 178.49715,89.612117 z "
       style="color:#000000;fill:#ffffff;fill-opacity:1;fill-rule:evenodd;stroke:#000000;stroke-width:3;stroke-linecap:butt;stroke-linejoin:bevel;marker:none;marker-start:none;marker-mid:none;marker-end:none;stroke-miterlimit:4;stroke-dasharray:none;stroke-dashoffset:0;stroke-opacity:1;visibility:visible;display:inline;overflow:visible" />
    <path
       sodipodi:type="arc"
       style="color:#000000;fill:#000000;fill-opacity:1;fill-rule:evenodd;stroke:#000000;stroke-width:3.06269789;stroke-linecap:butt;stroke-linejoin:bevel;marker:none;marker-start:none;marker-mid:none;marker-end:none;stroke-miterlimit:4;stroke-dasharray:none;stroke-dashoffset:0;stroke-opacity:1;visibility:visible;display:inline;overflow:visible"
       id="path2903"
       sodipodi:cx="856.15509"
       sodipodi:cy="549.38312"
       sodipodi:rx="2.8401482"
       sodipodi:ry="2.1353037"
       d="M 858.99524 549.38312 A 2.8401482 2.1353037 0 1 1  853.31494,549.38312 A 2.8401482 2.1353037 0 1 1  858.99524 549.38312 z"
       transform="matrix(-0.621591,-0.723821,0.759493,-0.659178,278.0607,1073.917)" />
    <path
       sodipodi:nodetypes="czcscsczss"
       id="path2907"
       d="M 143.04291,104.45206 C 144.20458,99.923868 151.3574,94.272755 155.46667,101.70816 C 159.57588,109.1436 173.08892,108.28873 171.50947,121.67284 C 168.01634,113.90794 168.15857,113.62414 165.06179,113.40772 C 158.00816,112.91477 156.52766,129.29495 151.37182,135.14675 C 156.57967,143.3995 152.57897,157.97142 157.3196,163.71083 C 158.92613,165.65583 163.78764,164.68291 165.30805,160.85145 C 164.15897,171.65745 153.44818,169.88132 150.08483,170.47294 C 146.74691,171.06009 141.56322,161.1869 140.89681,157.64656 C 139.5083,150.2702 141.80715,109.26897 143.04291,104.45206 z "
       style="color:#000000;fill:#1f312d;fill-opacity:1;fill-rule:evenodd;stroke:#000000;stroke-width:3;stroke-linecap:butt;stroke-linejoin:bevel;marker:none;marker-start:none;marker-mid:none;marker-end:none;stroke-miterlimit:4;stroke-dasharray:none;stroke-dashoffset:0;stroke-opacity:1;visibility:visible;display:inline;overflow:visible" />
    <path
       sodipodi:nodetypes="czcscsczss"
       id="path2135"
       d="M 138.30032,102.16527 C 139.46199,97.637066 158.54065,85.434903 163.69705,92.186426 C 168.80418,98.873438 172.83698,109.24519 172.25545,122.6293 C 166.517,110.87272 162.66754,111.33735 157.57492,111.37041 C 150.50427,111.4213 146.79547,127.50711 141.63963,133.35891 C 146.84748,141.61166 149.33327,158.67838 154.0739,164.41779 C 155.68043,166.36279 162.53778,163.39402 166.05403,159.31308 C 165.90287,170.61804 157.68688,179.56957 154.32353,180.16119 C 150.98561,180.74834 136.32167,163.14126 135.65526,159.60092 C 134.26675,152.22456 137.06456,106.98217 138.30032,102.16527 z "
       style="color:#000000;fill:#2e4742;fill-opacity:1;fill-rule:evenodd;stroke:#000000;stroke-width:3;stroke-linecap:butt;stroke-linejoin:bevel;marker:none;marker-start:none;marker-mid:none;marker-end:none;stroke-miterlimit:4;stroke-dasharray:none;stroke-dashoffset:0;stroke-opacity:1;visibility:visible;display:inline;overflow:visible" />
    <path
       sodipodi:nodetypes="cczcc"
       id="path1366"
       d="M 134.37959,60.722576 C 136.05141,46.844223 137.12277,45.313313 150.0788,34.670191 C 153.24161,34.367692 162.63316,28.388627 156.36995,22.890234 C 150.0901,17.37726 144.87612,25.356646 145.03313,29.881553 C 134.86003,36.543115 129.39767,44.394928 128.17982,59.995991"
       style="color:#000000;fill:#005b4d;fill-opacity:1;fill-rule:evenodd;stroke:#000000;stroke-width:3;stroke-linecap:butt;stroke-linejoin:bevel;marker:none;marker-start:none;marker-mid:none;marker-end:none;stroke-miterlimit:4;stroke-dasharray:none;stroke-dashoffset:0;stroke-opacity:1;visibility:visible;display:inline;overflow:visible" />
    <path
       sodipodi:nodetypes="cczcc"
       id="path3671"
       d="M 156.54544,61.059895 C 154.83937,49.08678 152.50747,43.966412 143.14016,41.451312 C 140.001,41.941779 132.42386,43.916956 132.04123,36.088124 C 131.65893,28.265914 143.73891,30.980435 144.70775,35.403195 C 156.21403,39.3369 161.36552,44.372103 162.70569,60.420019"
       style="color:#000000;fill:#005b4d;fill-opacity:1;fill-rule:evenodd;stroke:#000000;stroke-width:3;stroke-linecap:butt;stroke-linejoin:bevel;marker:none;marker-start:none;marker-mid:none;marker-end:none;stroke-miterlimit:4;stroke-dasharray:none;stroke-dashoffset:0;stroke-opacity:1;visibility:visible;display:inline;overflow:visible" />
  </g>
</svg>
