<?xml version="1.0" encoding="UTF-8" standalone="no"?>
<!-- Created with Inkscape (http://www.inkscape.org/) -->
<svg
   xmlns:dc="http://purl.org/dc/elements/1.1/"
   xmlns:cc="http://web.resource.org/cc/"
   xmlns:rdf="http://www.w3.org/1999/02/22-rdf-syntax-ns#"
   xmlns:svg="http://www.w3.org/2000/svg"
   xmlns="http://www.w3.org/2000/svg"
   xmlns:xlink="http://www.w3.org/1999/xlink"
   xmlns:sodipodi="http://inkscape.sourceforge.net/DTD/sodipodi-0.dtd"
   xmlns:inkscape="http://www.inkscape.org/namespaces/inkscape"
   width="320.00000px"
   height="240.00000px"
   id="svg2"
   sodipodi:version="0.32"
   inkscape:version="0.42.2"
   sodipodi:docbase="/home/joe/programming/gnumch/data/animation/pics"
   sodipodi:docname="fraidy__walking_right_05.svg"
   inkscape:export-filename="/home/joe/programming/gnumch/data/animation/pics/muncher__eating_down_01.png"
   inkscape:export-xdpi="36.000000"
   inkscape:export-ydpi="36.000000">
  <defs
     id="defs3">
    <linearGradient
       id="linearGradient2531">
      <stop
         style="stop-color:#91c5a9;stop-opacity:1.0000000;"
         offset="0.0000000"
         id="stop2533" />
      <stop
         id="stop2539"
         offset="0.070000000"
         style="stop-color:#91c5a9;stop-opacity:1.0000000;" />
      <stop
         style="stop-color:#9107a9;stop-opacity:1.0000000;"
         offset="1.0000000"
         id="stop2535" />
    </linearGradient>
    <linearGradient
       inkscape:collect="always"
       xlink:href="#linearGradient2531"
       id="linearGradient3270"
       x1="161.71674"
       y1="195.70815"
       x2="161.45923"
       y2="12.572755"
       gradientUnits="userSpaceOnUse" />
  </defs>
  <sodipodi:namedview
     id="base"
     pagecolor="#ffffff"
     bordercolor="#666666"
     borderopacity="1.0"
     inkscape:pageopacity="0.0000000"
     inkscape:pageshadow="2"
     inkscape:zoom="3.8833333"
     inkscape:cx="160.00000"
     inkscape:cy="122.10480"
     inkscape:document-units="px"
     inkscape:current-layer="layer2"
     showborder="true"
     borderlayer="top"
     showgrid="true"
     inkscape:grid-bbox="true"
     inkscape:grid-points="true"
     showguides="true"
     gridspacingx="2.0000000px"
     gridspacingy="2.0000000px"
     gridtolerance="2.0000000px"
     inkscape:window-width="1479"
     inkscape:window-height="1107"
     inkscape:window-x="0"
     inkscape:window-y="30" />
  <metadata
     id="metadata4">
    <rdf:RDF>
      <cc:Work
         rdf:about="">
        <dc:format>image/svg+xml</dc:format>
        <dc:type
           rdf:resource="http://purl.org/dc/dcmitype/StillImage" />
      </cc:Work>
    </rdf:RDF>
  </metadata>
  <g
     style="display:none"
     inkscape:label="Layer 1"
     inkscape:groupmode="layer"
     id="layer1">
    <path
       style="fill:#0055ff;fill-opacity:1.0000000;fill-rule:evenodd;stroke:#000000;stroke-width:2.5000000;stroke-linecap:butt;stroke-linejoin:miter;stroke-miterlimit:4.0000000;stroke-opacity:1.0000000"
       d="M 16.000000,40.000000 L 256.00000,40.000000 L 256.00000,104.00000 L 80.000000,104.00000 L 80.000000,72.000000 L 48.000000,72.000000 L 48.000000,128.00000 L 280.00000,128.00000 L 280.00000,80.000000 L 312.00000,80.000000 L 312.00000,160.00000 L 16.000000,160.00000 L 16.000000,40.000000 z "
       id="path1061"
       sodipodi:nodetypes="ccccccccccccc" />
    <path
       style="fill:#0055ff;fill-opacity:1.0000000;fill-rule:evenodd;stroke:#000000;stroke-width:4.0000000;stroke-linecap:butt;stroke-linejoin:miter;stroke-miterlimit:4.0000000;stroke-opacity:1.0000000"
       d="M 150.00000,160.00000 L 134.00000,160.00000 L 154.00000,188.00000 L 134.00000,212.00000 L 134.00000,232.00000 L 178.00000,232.00000 L 178.00000,212.00000 L 150.00000,212.00000 L 166.00000,188.00000 L 150.00000,160.00000 z "
       id="path1064"
       sodipodi:nodetypes="czcccccccs" />
    <path
       style="fill:#0055ff;fill-opacity:1.0000000;fill-rule:evenodd;stroke:#000000;stroke-width:4.0000000;stroke-linecap:butt;stroke-linejoin:miter;stroke-miterlimit:4.0000000;stroke-opacity:1.0000000"
       d="M 178.00000,160.00000 L 162.00000,160.00000 L 182.00000,188.00000 L 162.00000,212.00000 L 162.00000,232.00000 L 206.00000,232.00000 L 206.00000,212.00000 L 178.00000,212.00000 L 194.00000,188.00000 L 178.00000,160.00000 z "
       id="path2091"
       sodipodi:nodetypes="czcccccccs" />
  </g>
  <g
     style="display:inline"
     inkscape:label="Layer 2"
     id="layer2"
     inkscape:groupmode="layer">
    <path
       style="opacity:1.0000000;color:#000000;fill:#1ee91e;fill-opacity:1.0000000;fill-rule:evenodd;stroke:#000000;stroke-width:3.0000000;stroke-linecap:butt;stroke-linejoin:miter;marker:none;marker-start:none;marker-mid:none;marker-end:none;stroke-miterlimit:4.0000000;stroke-dasharray:none;stroke-dashoffset:0.0000000;stroke-opacity:1.0000000;visibility:visible;display:inline;overflow:visible"
       d="M 153.51909,189.40701 L 168.00000,202.00000 L 162.00000,218.00000 L 158.00000,216.00000 L 154.00000,218.00000 L 170.00000,228.00000 L 170.00000,222.00000 L 166.00000,220.00000 L 172.00000,200.00000 L 157.76286,188.00000"
       id="path1582"
       sodipodi:nodetypes="cccccccccc" />
    <path
       style="color:#000000;fill:#1ee91e;fill-opacity:1.0000000;fill-rule:evenodd;stroke:#000000;stroke-width:3.0000000;stroke-linecap:butt;stroke-linejoin:miter;marker:none;marker-start:none;marker-mid:none;marker-end:none;stroke-miterlimit:4.0000000;stroke-dashoffset:0.0000000;stroke-opacity:1.0000000;visibility:visible;display:inline;overflow:visible;stroke-dasharray:none"
       d="M 169.80427,65.000000 C 172.47695,47.500931 171.25627,37.876216 160.05457,19.945121 C 158.42814,17.341633 159.99146,14.407131 159.78037,11.703470 C 159.42588,7.1627211 155.74632,4.8697876 152.69047,6.2579448 C 149.85322,7.5468013 148.92729,11.766860 149.75576,14.515242 C 151.06865,18.870603 153.79923,16.984931 155.35643,21.209269 C 168.39734,39.873367 166.53484,48.178284 164.98445,62.430560"
       id="path1580"
       sodipodi:nodetypes="csssscc" />
    <path
       id="path25875"
       style="color:#000000;fill:#1ee91e;fill-opacity:1.0000000;fill-rule:evenodd;stroke:#000000;stroke-width:3.0000000;stroke-linecap:butt;stroke-linejoin:round;marker:none;marker-start:none;marker-mid:none;marker-end:none;stroke-miterlimit:4.0000000;stroke-dashoffset:0.0000000;stroke-opacity:1.0000000;visibility:visible;display:inline;overflow:visible;stroke-dasharray:none"
       d="M 195.55123,133.07766 C 195.55123,133.07766 195.97003,135.98985 196.29744,136.86591 C 196.95225,138.61800 197.64532,140.36243 198.33906,142.10049 C 199.72653,145.57661 201.11664,149.02730 202.20851,152.46317 C 203.09741,156.03535 203.09741,156.03535 202.87973,158.02346 C 197.39252,157.42268 192.66922,159.40036 192.06843,164.88756 C 191.46765,170.37477 195.65112,173.32763 201.32895,173.51742 C 201.01739,174.38616 200.43596,175.63886 199.78249,176.85988 C 198.47554,179.30194 196.88034,181.61734 195.05449,183.76895 C 187.75106,192.37540 176.75694,198.36137 165.75640,199.35185 C 140.46456,204.15331 110.52368,185.02035 111.63558,157.62438 C 114.08961,137.29359 134.23158,123.25136 134.23144,101.97562 C 132.23856,79.358741 145.90695,47.027424 169.74489,49.094384 C 195.69087,51.344132 200.55777,87.350922 194.04695,109.84249 C 193.23195,112.65793 193.53407,114.74923 193.53407,114.74923 L 199.96282,129.53677 L 195.55123,133.07766 z "
       sodipodi:nodetypes="cssccscsscccssccc" />
    <path
       style="color:#000000;fill:#1ee91e;fill-opacity:1.0000000;fill-rule:evenodd;stroke:#000000;stroke-width:3.0000000;stroke-linecap:butt;stroke-linejoin:miter;marker:none;marker-start:none;marker-mid:none;marker-end:none;stroke-miterlimit:4.0000000;stroke-dashoffset:0.0000000;stroke-opacity:1.0000000;visibility:visible;display:inline;overflow:visible;stroke-dasharray:none"
       d="M 172.50525,54.152575 C 164.11194,38.566938 156.30849,29.272230 136.46296,23.264914 C 134.48532,22.344744 132.62234,20.792920 129.84405,19.110771 C 125.94797,16.751831 121.60572,17.922546 120.00000,20.869892 C 118.50913,23.606392 121.91371,28.577444 124.77154,28.847361 C 129.63437,29.306649 131.25135,26.986014 134.61850,27.866488 C 156.26422,34.928757 159.77312,42.682997 167.10948,55.000000"
       id="path25928"
       sodipodi:nodetypes="ccssscc" />
    <path
       sodipodi:type="arc"
       style="opacity:1.0000000;color:#000000;fill:#ffffff;fill-opacity:1.0000000;fill-rule:evenodd;stroke:#000000;stroke-width:3.4262391;stroke-linecap:butt;stroke-linejoin:miter;marker:none;marker-start:none;marker-mid:none;marker-end:none;stroke-miterlimit:4.0000000;stroke-dasharray:none;stroke-dashoffset:0.0000000;stroke-opacity:1.0000000;visibility:visible;display:inline;overflow:visible"
       id="path2052"
       sodipodi:cx="143.00000"
       sodipodi:cy="80.000000"
       sodipodi:rx="7.0000000"
       sodipodi:ry="14.000000"
       d="M 150.00000 80.000000 A 7.0000000 14.000000 0 1 1  136.00000,80.000000 A 7.0000000 14.000000 0 1 1  150.00000 80.000000 z"
       transform="matrix(0.994060,0.108838,-8.344217e-2,0.762113,46.94285,11.11226)" />
    <path
       sodipodi:type="arc"
       style="opacity:1.0000000;color:#000000;fill:#ffffff;fill-opacity:1.0000000;fill-rule:evenodd;stroke:#000000;stroke-width:2.9999985;stroke-linecap:butt;stroke-linejoin:round;marker:none;marker-start:none;marker-mid:none;marker-end:none;stroke-miterlimit:4.0000000;stroke-dasharray:none;stroke-dashoffset:0.0000000;stroke-opacity:1.0000000;visibility:visible;display:inline;overflow:visible"
       id="path2788"
       sodipodi:cx="173.00000"
       sodipodi:cy="81.000000"
       sodipodi:rx="1.0000000"
       sodipodi:ry="1.0000000"
       d="M 174.00000 81.000000 A 1.0000000 1.0000000 0 1 1  172.00000,81.000000 A 1.0000000 1.0000000 0 1 1  174.00000 81.000000 z"
       transform="matrix(0.994060,0.108838,-0.108838,0.994060,18.63753,-6.003398)" />
    <path
       style="opacity:1.0000000;color:#000000;fill:#1ee91e;fill-opacity:1.0000000;fill-rule:evenodd;stroke:#000000;stroke-width:3.0000000;stroke-linecap:butt;stroke-linejoin:miter;marker:none;marker-start:none;marker-mid:none;marker-end:none;stroke-miterlimit:4.0000000;stroke-dasharray:none;stroke-dashoffset:0.0000000;stroke-opacity:1.0000000;visibility:visible;display:inline;overflow:visible"
       d="M 158.00000,196.00000 L 170.00000,212.00000 L 165.00000,228.65824 L 161.00000,228.65824 L 159.00000,232.65824 L 175.00000,232.65824 L 173.00000,228.65824 L 169.00000,228.65824 L 174.00000,210.00000 L 162.24377,194.59299"
       id="path25922"
       sodipodi:nodetypes="cccccccccc" />
  </g>
</svg>
