<?xml version="1.0" encoding="UTF-8" standalone="no"?>
<!-- Created with Inkscape (http://www.inkscape.org/) -->
<svg
   xmlns:dc="http://purl.org/dc/elements/1.1/"
   xmlns:cc="http://web.resource.org/cc/"
   xmlns:rdf="http://www.w3.org/1999/02/22-rdf-syntax-ns#"
   xmlns:svg="http://www.w3.org/2000/svg"
   xmlns="http://www.w3.org/2000/svg"
   xmlns:xlink="http://www.w3.org/1999/xlink"
   xmlns:sodipodi="http://inkscape.sourceforge.net/DTD/sodipodi-0.dtd"
   xmlns:inkscape="http://www.inkscape.org/namespaces/inkscape"
   width="320.00000px"
   height="240.00000px"
   id="svg2"
   sodipodi:version="0.32"
   inkscape:version="0.42.2"
   sodipodi:docbase="/home/joe/programming/gnumch/data/animation/pics"
   sodipodi:docname="fraidy__walking_down_05.svg"
   inkscape:export-filename="/home/joe/programming/gnumch/data/animation/pics/muncher__eating_down_01.png"
   inkscape:export-xdpi="36.000000"
   inkscape:export-ydpi="36.000000">
  <defs
     id="defs3">
    <linearGradient
       id="linearGradient2531">
      <stop
         style="stop-color:#91c5a9;stop-opacity:1.0000000;"
         offset="0.0000000"
         id="stop2533" />
      <stop
         id="stop2539"
         offset="0.070000000"
         style="stop-color:#91c5a9;stop-opacity:1.0000000;" />
      <stop
         style="stop-color:#9107a9;stop-opacity:1.0000000;"
         offset="1.0000000"
         id="stop2535" />
    </linearGradient>
    <linearGradient
       inkscape:collect="always"
       xlink:href="#linearGradient2531"
       id="linearGradient3270"
       x1="161.71674"
       y1="195.70815"
       x2="161.45923"
       y2="12.572755"
       gradientUnits="userSpaceOnUse" />
  </defs>
  <sodipodi:namedview
     id="base"
     pagecolor="#ffffff"
     bordercolor="#666666"
     borderopacity="1.0"
     inkscape:pageopacity="0.0000000"
     inkscape:pageshadow="2"
     inkscape:zoom="3.8833333"
     inkscape:cx="160.00000"
     inkscape:cy="120.00000"
     inkscape:document-units="px"
     inkscape:current-layer="layer2"
     showborder="true"
     borderlayer="top"
     showgrid="true"
     inkscape:grid-bbox="true"
     inkscape:grid-points="true"
     showguides="true"
     gridspacingx="2.0000000px"
     gridspacingy="2.0000000px"
     gridtolerance="2.0000000px"
     inkscape:window-width="1479"
     inkscape:window-height="1107"
     inkscape:window-x="0"
     inkscape:window-y="30" />
  <metadata
     id="metadata4">
    <rdf:RDF>
      <cc:Work
         rdf:about="">
        <dc:format>image/svg+xml</dc:format>
        <dc:type
           rdf:resource="http://purl.org/dc/dcmitype/StillImage" />
      </cc:Work>
    </rdf:RDF>
  </metadata>
  <g
     style="display:none"
     inkscape:label="Layer 1"
     inkscape:groupmode="layer"
     id="layer1">
    <path
       style="fill:#0055ff;fill-opacity:1.0000000;fill-rule:evenodd;stroke:#000000;stroke-width:2.5000000;stroke-linecap:butt;stroke-linejoin:miter;stroke-miterlimit:4.0000000;stroke-opacity:1.0000000"
       d="M 16.000000,40.000000 L 256.00000,40.000000 L 256.00000,104.00000 L 80.000000,104.00000 L 80.000000,72.000000 L 48.000000,72.000000 L 48.000000,128.00000 L 280.00000,128.00000 L 280.00000,80.000000 L 312.00000,80.000000 L 312.00000,160.00000 L 16.000000,160.00000 L 16.000000,40.000000 z "
       id="path1061"
       sodipodi:nodetypes="ccccccccccccc" />
    <path
       style="fill:#0055ff;fill-opacity:1.0000000;fill-rule:evenodd;stroke:#000000;stroke-width:4.0000000;stroke-linecap:butt;stroke-linejoin:miter;stroke-miterlimit:4.0000000;stroke-opacity:1.0000000"
       d="M 150.00000,160.00000 L 134.00000,160.00000 L 154.00000,188.00000 L 134.00000,212.00000 L 134.00000,232.00000 L 178.00000,232.00000 L 178.00000,212.00000 L 150.00000,212.00000 L 166.00000,188.00000 L 150.00000,160.00000 z "
       id="path1064"
       sodipodi:nodetypes="czcccccccs" />
    <path
       style="fill:#0055ff;fill-opacity:1.0000000;fill-rule:evenodd;stroke:#000000;stroke-width:4.0000000;stroke-linecap:butt;stroke-linejoin:miter;stroke-miterlimit:4.0000000;stroke-opacity:1.0000000"
       d="M 178.00000,160.00000 L 162.00000,160.00000 L 182.00000,188.00000 L 162.00000,212.00000 L 162.00000,232.00000 L 206.00000,232.00000 L 206.00000,212.00000 L 178.00000,212.00000 L 194.00000,188.00000 L 178.00000,160.00000 z "
       id="path2091"
       sodipodi:nodetypes="czcccccccs" />
  </g>
  <g
     style="display:inline"
     inkscape:label="Layer 2"
     id="layer2"
     inkscape:groupmode="layer">
    <path
       style="color:#000000;fill:#1ee91e;fill-opacity:1.0000000;fill-rule:evenodd;stroke:#000000;stroke-width:3.0000000;stroke-linecap:butt;stroke-linejoin:miter;marker:none;marker-start:none;marker-mid:none;marker-end:none;stroke-miterlimit:4.0000000;stroke-dashoffset:0.0000000;stroke-opacity:1.0000000;visibility:visible;display:inline;overflow:visible;stroke-dasharray:none"
       d="M 141.42003,62.813314 C 135.76282,46.039643 129.63081,35.566632 111.07573,26.312377 C 109.69513,24.226155 111.53438,21.288674 109.07797,19.163909 C 105.63327,16.184275 101.33167,15.843221 99.253867,18.479107 C 97.324670,20.926425 98.438961,25.100694 100.43648,27.162225 C 103.60192,30.429147 105.16243,27.500550 108.48481,30.538916 C 128.63741,41.135419 130.79447,49.368742 135.95856,62.742712"
       id="path25928"
       sodipodi:nodetypes="ccssscc" />
    <path
       style="color:#000000;fill:#1ee91e;fill-opacity:1.0000000;fill-rule:evenodd;stroke:#000000;stroke-width:3.0000000;stroke-linecap:butt;stroke-linejoin:miter;marker:none;marker-start:none;marker-mid:none;marker-end:none;stroke-miterlimit:4.0000000;stroke-dashoffset:0.0000000;stroke-opacity:1.0000000;visibility:visible;display:inline;overflow:visible;stroke-dasharray:none"
       d="M 153.72179,62.758830 C 157.68596,45.506413 162.74802,34.476425 180.29281,23.425943 C 181.45948,21.212975 179.33771,18.472581 181.57109,16.114450 C 184.70297,12.807591 188.94949,12.041206 191.27868,14.457801 C 193.44129,16.701528 192.74686,20.965799 190.96387,23.215445 C 188.13836,26.780450 186.29486,24.021223 183.29050,27.374390 C 164.28933,39.919088 162.96024,48.325875 159.14928,62.146422"
       id="path1580"
       sodipodi:nodetypes="ccssscc" />
    <path
       id="path25875"
       style="color:#000000;fill:#1ee91e;fill-opacity:1.0000000;fill-rule:evenodd;stroke:#000000;stroke-width:3.0000000;stroke-linecap:butt;stroke-linejoin:miter;marker:none;marker-start:none;marker-mid:none;marker-end:none;stroke-miterlimit:4.0000000;stroke-dashoffset:0.0000000;stroke-opacity:1.0000000;visibility:visible;display:inline;overflow:visible;stroke-dasharray:none"
       d="M 143.27585,49.870761 C 119.54395,52.922799 113.06717,87.421923 119.82632,109.09698 C 124.35301,129.88557 107.65978,147.89164 109.58742,168.27906 C 114.32966,195.28436 147.65569,207.60915 171.34693,197.53661 C 192.42284,190.92014 209.22231,164.78466 196.98858,143.96604 C 189.79711,131.46645 177.89244,119.75029 179.94607,104.05759 C 180.33574,80.929085 169.10645,46.548825 143.27585,49.870761 z M 167.84601,160.57658 C 168.42641,166.06597 164.23202,169.00328 158.74262,169.58370 C 153.25323,170.16410 148.53730,168.16891 147.95688,162.67952 C 147.37647,157.19011 151.57087,154.25280 157.06028,153.67239 C 162.54967,153.09199 167.26560,155.08718 167.84601,160.57658 z "
       sodipodi:nodetypes="ccccccccsssc" />
    <path
       sodipodi:type="arc"
       style="opacity:1.0000000;color:#000000;fill:#ffffff;fill-opacity:1.0000000;fill-rule:evenodd;stroke:#000000;stroke-width:3.4262406;stroke-linecap:butt;stroke-linejoin:miter;marker:none;marker-start:none;marker-mid:none;marker-end:none;stroke-miterlimit:4.0000000;stroke-dasharray:none;stroke-dashoffset:0.0000000;stroke-opacity:1.0000000;visibility:visible;display:inline;overflow:visible"
       id="path2052"
       sodipodi:cx="143.00000"
       sodipodi:cy="80.000000"
       sodipodi:rx="7.0000000"
       sodipodi:ry="14.000000"
       d="M 150.00000 80.000000 A 7.0000000 14.000000 0 1 1  136.00000,80.000000 A 7.0000000 14.000000 0 1 1  150.00000 80.000000 z"
       transform="matrix(0.994457,-0.105146,8.061268e-2,0.762417,15.20447,38.88518)" />
    <path
       sodipodi:type="arc"
       style="opacity:1.0000000;color:#000000;fill:#ffffff;fill-opacity:1.0000000;fill-rule:evenodd;stroke:#000000;stroke-width:3.4262406;stroke-linecap:butt;stroke-linejoin:miter;marker:none;marker-start:none;marker-mid:none;marker-end:none;stroke-miterlimit:4.0000000;stroke-dasharray:none;stroke-dashoffset:0.0000000;stroke-opacity:1.0000000;visibility:visible;display:inline;overflow:visible"
       id="path2054"
       sodipodi:cx="143.00000"
       sodipodi:cy="80.000000"
       sodipodi:rx="7.0000000"
       sodipodi:ry="14.000000"
       d="M 150.00000 80.000000 A 7.0000000 14.000000 0 1 1  136.00000,80.000000 A 7.0000000 14.000000 0 1 1  150.00000 80.000000 z"
       transform="matrix(0.994457,-0.105146,8.061268e-2,0.762417,-16.61815,42.24987)" />
    <path
       style="fill:none;fill-opacity:0.75000000;fill-rule:evenodd;stroke:#000000;stroke-width:3.0000000;stroke-linecap:butt;stroke-linejoin:round;stroke-miterlimit:4.0000000;stroke-dasharray:none;stroke-opacity:1.0000000"
       d="M 150.65520,112.11553 L 162.28210,126.97535 L 152.75813,132.00465"
       id="path2058"
       sodipodi:nodetypes="ccc" />
    <path
       sodipodi:type="arc"
       style="opacity:1.0000000;color:#000000;fill:#ffffff;fill-opacity:1.0000000;fill-rule:evenodd;stroke:#000000;stroke-width:2.9999994;stroke-linecap:butt;stroke-linejoin:round;marker:none;marker-start:none;marker-mid:none;marker-end:none;stroke-miterlimit:4.0000000;stroke-dasharray:none;stroke-dashoffset:0.0000000;stroke-opacity:1.0000000;visibility:visible;display:inline;overflow:visible"
       id="path2786"
       sodipodi:cx="143.00000"
       sodipodi:cy="81.000000"
       sodipodi:rx="1.0000000"
       sodipodi:ry="1.0000000"
       d="M 144.00000 81.000000 A 1.0000000 1.0000000 0 1 1  142.00000,81.000000 A 1.0000000 1.0000000 0 1 1  144.00000 81.000000 z"
       transform="matrix(0.994457,-0.105146,0.105146,0.994457,-18.08319,28.39381)" />
    <path
       sodipodi:type="arc"
       style="opacity:1.0000000;color:#000000;fill:#ffffff;fill-opacity:1.0000000;fill-rule:evenodd;stroke:#000000;stroke-width:2.9999994;stroke-linecap:butt;stroke-linejoin:round;marker:none;marker-start:none;marker-mid:none;marker-end:none;stroke-miterlimit:4.0000000;stroke-dasharray:none;stroke-dashoffset:0.0000000;stroke-opacity:1.0000000;visibility:visible;display:inline;overflow:visible"
       id="path2788"
       sodipodi:cx="173.00000"
       sodipodi:cy="81.000000"
       sodipodi:rx="1.0000000"
       sodipodi:ry="1.0000000"
       d="M 174.00000 81.000000 A 1.0000000 1.0000000 0 1 1  172.00000,81.000000 A 1.0000000 1.0000000 0 1 1  174.00000 81.000000 z"
       transform="matrix(0.994457,-0.105146,0.105146,0.994457,-16.09428,28.18352)" />
    <path
       style="opacity:1.0000000;color:#000000;fill:#1ee91e;fill-opacity:1.0000000;fill-rule:evenodd;stroke:#000000;stroke-width:3.0000000;stroke-linecap:butt;stroke-linejoin:miter;marker:none;marker-start:none;marker-mid:none;marker-end:none;stroke-miterlimit:4.0000000;stroke-dasharray:none;stroke-dashoffset:0.0000000;stroke-opacity:1.0000000;visibility:visible;display:inline;overflow:visible"
       d="M 175.51909,189.40701 L 188.00000,196.00000 L 184.00000,214.00000 L 180.00000,212.00000 L 178.00000,216.00000 L 192.00000,222.00000 L 192.00000,218.00000 L 188.00000,216.00000 L 192.00000,194.00000 L 179.76286,188.00000"
       id="path3828"
       sodipodi:nodetypes="cccccccccc" />
    <path
       style="opacity:1.0000000;color:#000000;fill:#1ee91e;fill-opacity:1.0000000;fill-rule:evenodd;stroke:#000000;stroke-width:3.0000000;stroke-linecap:butt;stroke-linejoin:miter;marker:none;marker-start:none;marker-mid:none;marker-end:none;stroke-miterlimit:4.0000000;stroke-dasharray:none;stroke-dashoffset:0.0000000;stroke-opacity:1.0000000;visibility:visible;display:inline;overflow:visible"
       d="M 150.00000,190.74877 L 139.51909,207.00000 L 145.51909,229.00000 L 149.51909,229.00000 L 151.51909,233.00000 L 135.51909,233.00000 L 137.51909,229.00000 L 141.51909,229.00000 L 135.51909,205.00000 L 145.75623,189.34176"
       id="path3830"
       sodipodi:nodetypes="cccccccccc" />
  </g>
</svg>
