<?xml version="1.0" encoding="UTF-8" standalone="no"?>
<!-- Created with Inkscape (http://www.inkscape.org/) -->
<svg
   xmlns:dc="http://purl.org/dc/elements/1.1/"
   xmlns:cc="http://web.resource.org/cc/"
   xmlns:rdf="http://www.w3.org/1999/02/22-rdf-syntax-ns#"
   xmlns:svg="http://www.w3.org/2000/svg"
   xmlns="http://www.w3.org/2000/svg"
   xmlns:sodipodi="http://inkscape.sourceforge.net/DTD/sodipodi-0.dtd"
   xmlns:inkscape="http://www.inkscape.org/namespaces/inkscape"
   width="320.00000px"
   height="240.00000px"
   id="svg2"
   sodipodi:version="0.32"
   inkscape:version="0.42"
   sodipodi:docbase="/home/joe/programming/gnumch/data/animation/pics"
   sodipodi:docname="muncher4.svg"
   inkscape:export-filename="/home/joe/programming/gnumch/data/animation/pics/muncher__walking_right_01.png"
   inkscape:export-xdpi="36.000000"
   inkscape:export-ydpi="36.000000">
  <defs
     id="defs3" />
  <sodipodi:namedview
     id="base"
     pagecolor="#ffffff"
     bordercolor="#666666"
     borderopacity="1.0"
     inkscape:pageopacity="0.0000000"
     inkscape:pageshadow="2"
     inkscape:zoom="2.9416667"
     inkscape:cx="160.00000"
     inkscape:cy="120.00000"
     inkscape:document-units="px"
     inkscape:current-layer="layer1"
     showborder="true"
     borderlayer="top"
     showgrid="true"
     inkscape:grid-bbox="true"
     inkscape:grid-points="true"
     showguides="true"
     gridspacingx="4.0000000px"
     gridspacingy="4.0000000px"
     gridtolerance="2.0000000px"
     inkscape:window-width="1313"
     inkscape:window-height="891"
     inkscape:window-x="0"
     inkscape:window-y="30" />
  <metadata
     id="metadata4">
    <rdf:RDF>
      <cc:Work
         rdf:about="">
        <dc:format>image/svg+xml</dc:format>
        <dc:type
           rdf:resource="http://purl.org/dc/dcmitype/StillImage" />
      </cc:Work>
    </rdf:RDF>
  </metadata>
  <g
     inkscape:label="Layer 1"
     inkscape:groupmode="layer"
     id="layer1">
    <path
       style="fill:#0055ff;fill-opacity:1.0000000;fill-rule:evenodd;stroke:#000000;stroke-width:4.0000000;stroke-linecap:butt;stroke-linejoin:miter;stroke-miterlimit:4.0000000;stroke-dasharray:none;stroke-opacity:1.0000000"
       d="M 19.831267,33.548971 L 259.59986,44.085577 C 266.71410,64.417514 265.66044,88.394373 256.79010,108.02387 L 80.959798,100.29703 L 82.364679,68.327879 L 50.395533,66.922998 C 53.513625,87.079325 52.811185,103.06390 47.936991,122.86900 L 275.71716,132.87878 C 280.59135,113.07367 284.93872,105.25700 281.82062,85.100671 L 313.78977,86.505551 C 316.20542,122.64645 311.33123,142.45156 302.28528,166.07720 L 14.562964,153.43327 C 24.311352,113.82306 26.067453,73.861624 19.831267,33.548971 z "
       id="path1061"
       sodipodi:nodetypes="ccccccccccccc" />
    <path
       sodipodi:nodetypes="ccccc"
       id="path3570"
       d="M 151.70417,39.344211 L 152.93344,11.371193 L 184.90260,12.776073 L 183.67333,40.749091 L 151.70417,39.344211 z "
       style="fill:#ffffff;fill-opacity:1.0000000;fill-rule:evenodd;stroke:#000000;stroke-width:4.0000014;stroke-linecap:butt;stroke-linejoin:miter;stroke-miterlimit:4.0000000;stroke-dasharray:none;stroke-opacity:1.0000000" />
    <path
       sodipodi:nodetypes="ccccc"
       id="path3572"
       d="M 168.39119,24.062068 L 167.68875,40.046651 L 183.67333,40.749091 L 184.37577,24.764508 L 168.39119,24.062068 z "
       style="fill:#000000;fill-opacity:1.0000000;fill-rule:evenodd;stroke:#000000;stroke-width:4.0000014;stroke-linecap:butt;stroke-linejoin:miter;stroke-miterlimit:4.0000000;stroke-dasharray:none;stroke-opacity:1.0000000" />
    <path
       sodipodi:nodetypes="ccccc"
       id="path1327"
       d="M 203.65397,41.627211 L 204.88324,13.654193 L 236.85240,15.059073 L 235.62313,43.032091 L 203.65397,41.627211 z "
       style="fill:#ffffff;fill-opacity:1.0000000;fill-rule:evenodd;stroke:#000000;stroke-width:4.0000014;stroke-linecap:butt;stroke-linejoin:miter;stroke-miterlimit:4.0000000;stroke-dasharray:none;stroke-opacity:1.0000000" />
    <path
       sodipodi:nodetypes="ccccc"
       id="path1329"
       d="M 220.34099,26.345068 L 219.63855,42.329651 L 235.62313,43.032091 L 236.32557,27.047508 L 220.34099,26.345068 z "
       style="fill:#000000;fill-opacity:1.0000000;fill-rule:evenodd;stroke:#000000;stroke-width:4.0000014;stroke-linecap:butt;stroke-linejoin:miter;stroke-miterlimit:4.0000000;stroke-dasharray:none;stroke-opacity:1.0000000" />
    <path
       style="fill:#0055ff;fill-opacity:1.0000000;fill-rule:evenodd;stroke:#000000;stroke-width:4.0000000;stroke-linecap:butt;stroke-linejoin:miter;stroke-miterlimit:4.0000000;stroke-opacity:1.0000000"
       d="M 176.40677,160.54548 L 158.42412,159.75523 L 177.70240,176.61786 L 169.18328,188.25507 L 164.48470,204.06403 L 192.10648,213.28559 L 196.80506,197.47662 L 180.99610,192.77804 L 193.68697,177.32030 L 176.40677,160.54548 z "
       id="path2091"
       sodipodi:nodetypes="czcccccccs" />
    <path
       sodipodi:nodetypes="czcccccccs"
       id="path1064"
       d="M 150.43184,159.40401 L 130.45112,158.52596 L 141.38589,183.02965 L 144.32837,207.18212 L 135.98486,214.82319 L 159.08367,235.85757 L 171.59893,224.39597 L 156.31680,207.70895 L 153.37432,183.55648 L 150.43184,159.40401 z "
       style="fill:#0055ff;fill-opacity:1.0000000;fill-rule:evenodd;stroke:#000000;stroke-width:4.0000000;stroke-linecap:butt;stroke-linejoin:miter;stroke-miterlimit:4.0000000;stroke-opacity:1.0000000" />
    <path
       id="path10319"
       d="M 86.312500,179.21875 C 83.688090,179.21875 81.570804,180.73109 80.906250,182.75000 C 79.988659,182.09115 78.946529,181.62500 77.750000,181.62500 C 76.649587,181.62500 75.684302,182.02885 74.812500,182.59375 C 73.804413,181.84335 72.485989,181.34375 71.031250,181.34375 C 67.881958,181.34375 65.343750,183.49132 65.343750,186.12500 C 65.343750,188.75868 67.881959,190.87499 71.031250,190.87500 C 71.707118,190.87500 72.335687,190.74317 72.937500,190.56250 C 73.051164,190.76183 73.178074,190.94156 73.312500,191.12500 C 71.596003,191.94781 70.375000,193.44665 70.375000,195.21875 C 70.375000,197.85243 72.944456,200.00000 76.093750,200.00000 C 79.243042,200.00000 81.781250,197.85243 81.781250,195.21875 C 81.781250,194.20896 81.328361,193.33389 80.687500,192.56250 C 82.197217,191.58696 83.232973,189.95256 83.375000,188.00000 C 84.246101,188.45087 85.213466,188.78125 86.312500,188.78125 C 89.461792,188.78125 91.999998,186.63367 92.000000,184.00000 C 92.000000,181.36632 89.461793,179.21875 86.312500,179.21875 z "
       style="fill:#909090;fill-opacity:0.70391059;fill-rule:evenodd;stroke:#000000;stroke-width:1.0000000;stroke-linecap:butt;stroke-linejoin:miter;stroke-miterlimit:4.0000000;stroke-opacity:1.0000000" />
    <path
       id="path10402"
       d="M 22.437500,164.59375 C 20.484210,164.59375 18.875000,165.63717 18.875000,166.90625 C 18.875000,168.17533 20.484211,169.21875 22.437500,169.21875 C 24.390790,169.21875 25.968750,168.17533 25.968750,166.90625 C 25.968750,165.63717 24.390790,164.59375 22.437500,164.59375 z M 16.468750,171.78125 C 14.515460,171.78125 12.937500,172.79342 12.937500,174.06250 C 12.937500,175.33158 14.515460,176.37500 16.468750,176.37500 C 18.422040,176.37500 20.000000,175.33158 20.000000,174.06250 C 20.000000,172.79342 18.422039,171.78125 16.468750,171.78125 z M 23.750000,177.46875 C 22.081428,177.46875 20.718750,178.46077 20.718750,179.68750 C 20.718750,180.91423 22.081428,181.90625 23.750000,181.90625 C 25.418572,181.90625 26.781251,180.91423 26.781250,179.68750 C 26.781250,178.46077 25.418573,177.46875 23.750000,177.46875 z M 17.156250,182.37500 C 14.653394,182.37500 12.625000,183.62472 12.625000,185.18750 C 12.625000,186.66661 14.495657,187.81161 16.812500,187.93750 C 16.829616,190.13087 18.615116,191.90625 20.812500,191.90625 C 23.020500,191.90625 24.812500,190.11425 24.812500,187.90625 C 24.812500,185.84262 23.226040,184.21352 21.218750,184.00000 C 20.488707,183.04694 18.960126,182.37500 17.156250,182.37500 z "
       style="fill:#909090;fill-opacity:0.70391059;fill-rule:evenodd;stroke:#000000;stroke-width:0.69999999;stroke-linecap:butt;stroke-linejoin:miter;stroke-miterlimit:4.0000000;stroke-opacity:1.0000000" />
  </g>
</svg>
