<?xml version="1.0" encoding="UTF-8" standalone="no"?>
<!-- Created with Inkscape (http://www.inkscape.org/) -->
<svg
   xmlns:dc="http://purl.org/dc/elements/1.1/"
   xmlns:cc="http://web.resource.org/cc/"
   xmlns:rdf="http://www.w3.org/1999/02/22-rdf-syntax-ns#"
   xmlns:svg="http://www.w3.org/2000/svg"
   xmlns="http://www.w3.org/2000/svg"
   xmlns:sodipodi="http://inkscape.sourceforge.net/DTD/sodipodi-0.dtd"
   xmlns:inkscape="http://www.inkscape.org/namespaces/inkscape"
   width="320.00000px"
   height="240.00000px"
   id="svg2"
   sodipodi:version="0.32"
   inkscape:version="0.42"
   sodipodi:docbase="/home/joe/programming/gnumch/data/animation/pics"
   sodipodi:docname="muncher__appearing_up_00.svg"
   inkscape:export-filename="/home/joe/programming/gnumch/data/animation/pics/muncher__normal_right_00.png"
   inkscape:export-xdpi="36.000000"
   inkscape:export-ydpi="36.000000">
  <defs
     id="defs3" />
  <sodipodi:namedview
     id="base"
     pagecolor="#ffffff"
     bordercolor="#666666"
     borderopacity="1.0"
     inkscape:pageopacity="0.0000000"
     inkscape:pageshadow="2"
     inkscape:zoom="3.8833333"
     inkscape:cx="160.00000"
     inkscape:cy="120.00000"
     inkscape:document-units="px"
     inkscape:current-layer="layer1"
     showborder="true"
     borderlayer="top"
     showgrid="true"
     inkscape:grid-bbox="true"
     inkscape:grid-points="true"
     showguides="true"
     gridspacingx="4.0000000px"
     gridspacingy="4.0000000px"
     gridtolerance="2.0000000px"
     inkscape:window-width="1478"
     inkscape:window-height="1107"
     inkscape:window-x="0"
     inkscape:window-y="30" />
  <metadata
     id="metadata4">
    <rdf:RDF>
      <cc:Work
         rdf:about="">
        <dc:format>image/svg+xml</dc:format>
        <dc:type
           rdf:resource="http://purl.org/dc/dcmitype/StillImage" />
      </cc:Work>
    </rdf:RDF>
  </metadata>
  <g
     inkscape:label="Layer 1"
     inkscape:groupmode="layer"
     id="layer1">
    <path
       style="fill:#00f500;fill-opacity:1.0000000;fill-rule:evenodd;stroke:#000000;stroke-width:3.9999983;stroke-linecap:butt;stroke-linejoin:miter;stroke-miterlimit:4.0000000;stroke-dasharray:none;stroke-opacity:1.0000000"
       d="M 176.68750,51.687500 C 156.34300,57.312714 134.81635,45.408317 114.96868,53.468123 C 105.95617,57.153213 106.23232,67.667950 106.37500,75.812500 C 110.01057,69.697153 116.15710,65.253296 123.12500,63.750000 C 132.24294,72.331676 133.08634,87.586042 144.40958,93.797141 C 151.06188,94.550174 157.73795,91.544257 164.37450,93.299175 C 175.61589,93.616571 191.58689,91.821860 194.72543,78.783646 C 196.28481,68.481226 194.43797,53.717674 182.84375,50.406250 C 180.63789,50.045846 178.72399,51.015325 176.68750,51.687500 z M 104.84375,128.71875 C 102.81956,138.09359 109.72325,146.79657 119.04566,147.99527 C 134.56734,150.65078 150.34199,146.65279 165.99997,147.90535 C 182.63540,147.93690 199.27082,147.96845 215.90625,148.00000 C 214.78343,140.34299 216.78160,132.72130 217.21875,125.09375 C 214.87589,135.31954 205.03708,144.38136 194.05720,141.45139 C 167.07927,138.30940 139.86660,140.41064 112.78125,139.87500 C 110.13501,134.23882 107.37711,128.58941 105.75000,122.56250 C 105.44792,124.61458 105.14583,126.66667 104.84375,128.71875 z "
       id="path1061" />
  </g>
</svg>
