<?xml version="1.0" encoding="UTF-8" standalone="no"?>
<!-- Created with Inkscape (http://www.inkscape.org/) -->
<svg
   xmlns:dc="http://purl.org/dc/elements/1.1/"
   xmlns:cc="http://web.resource.org/cc/"
   xmlns:rdf="http://www.w3.org/1999/02/22-rdf-syntax-ns#"
   xmlns:svg="http://www.w3.org/2000/svg"
   xmlns="http://www.w3.org/2000/svg"
   xmlns:sodipodi="http://inkscape.sourceforge.net/DTD/sodipodi-0.dtd"
   xmlns:inkscape="http://www.inkscape.org/namespaces/inkscape"
   width="320.00000px"
   height="240.00000px"
   id="svg2"
   sodipodi:version="0.32"
   inkscape:version="0.42"
   sodipodi:docbase="/home/joe/programming/gnumch/data/animation/pics"
   sodipodi:docname="muncher6.svg"
   inkscape:export-filename="/home/joe/programming/gnumch/data/animation/pics/muncher__walking_right_03.png"
   inkscape:export-xdpi="36.000000"
   inkscape:export-ydpi="36.000000">
  <defs
     id="defs3" />
  <sodipodi:namedview
     id="base"
     pagecolor="#ffffff"
     bordercolor="#666666"
     borderopacity="1.0"
     inkscape:pageopacity="0.0000000"
     inkscape:pageshadow="2"
     inkscape:zoom="2.9833333"
     inkscape:cx="160.00000"
     inkscape:cy="120.00000"
     inkscape:document-units="px"
     inkscape:current-layer="layer1"
     showborder="true"
     borderlayer="top"
     showgrid="true"
     inkscape:grid-bbox="true"
     inkscape:grid-points="true"
     showguides="true"
     gridspacingx="4.0000000px"
     gridspacingy="4.0000000px"
     gridtolerance="2.0000000px"
     inkscape:window-width="1313"
     inkscape:window-height="891"
     inkscape:window-x="0"
     inkscape:window-y="30" />
  <metadata
     id="metadata4">
    <rdf:RDF>
      <cc:Work
         rdf:about="">
        <dc:format>image/svg+xml</dc:format>
        <dc:type
           rdf:resource="http://purl.org/dc/dcmitype/StillImage" />
      </cc:Work>
    </rdf:RDF>
  </metadata>
  <g
     inkscape:label="Layer 1"
     inkscape:groupmode="layer"
     id="layer1">
    <path
       id="path10402"
       d="M 51.000000,168.00000 C 48.581330,168.00000 46.625000,169.38715 46.625000,171.09375 C 46.625000,172.80034 48.581330,174.18750 51.000000,174.18750 C 53.418670,174.18750 55.375000,172.80034 55.375000,171.09375 C 55.375000,169.38716 53.418680,168.00000 51.000000,168.00000 z M 43.625000,177.65625 C 41.206330,177.65625 39.250000,179.04341 39.250000,180.75000 C 39.250000,182.45659 41.206330,183.84375 43.625000,183.84375 C 46.043670,183.84375 48.000000,182.45660 48.000000,180.75000 C 48.000000,179.04341 46.043670,177.65625 43.625000,177.65625 z M 48.281250,187.31250 C 45.182070,187.31250 42.687500,188.99220 42.687500,191.09375 C 42.687500,193.19530 45.182070,194.90625 48.281250,194.90625 C 49.891200,194.90625 51.319680,194.42444 52.343750,193.68750 C 53.029250,194.29861 54.017420,194.68750 55.125000,194.68750 C 57.191120,194.68750 58.875000,193.33715 58.875000,191.68750 C 58.875000,190.03785 57.191120,188.71875 55.125000,188.71875 C 54.373000,188.71875 53.774280,189.03860 53.187500,189.34375 C 52.242490,188.14336 50.426840,187.31250 48.281250,187.31250 z "
       style="fill:#909090;fill-opacity:0.70391059;fill-rule:evenodd;stroke:#000000;stroke-width:0.80000001;stroke-linecap:butt;stroke-linejoin:miter;stroke-miterlimit:4.0000000;stroke-opacity:1.0000000" />
    <path
       style="fill:#0055ff;fill-opacity:1.0000000;fill-rule:evenodd;stroke:#000000;stroke-width:4.0000000;stroke-linecap:butt;stroke-linejoin:miter;stroke-miterlimit:4.0000000;stroke-opacity:1.0000000"
       d="M 16.000000,36.000000 L 256.00000,36.000000 C 264.00000,56.000000 264.00000,80.000000 256.00000,100.00000 L 80.000000,100.00000 L 80.000000,68.000000 L 48.000000,68.000000 C 52.000000,88.000000 52.000000,104.00000 48.000000,124.00000 L 276.00000,124.00000 C 280.00000,104.00000 284.00000,96.000000 280.00000,76.000000 L 312.00000,76.000000 C 316.00000,112.00000 312.00000,132.00000 304.00000,156.00000 L 16.000000,156.00000 C 24.000000,116.00000 24.000000,76.000000 16.000000,36.000000 z "
       id="path1061"
       sodipodi:nodetypes="ccccccccccccc" />
    <path
       sodipodi:nodetypes="ccccc"
       id="path3570"
       d="M 148.00000,35.999998 L 148.00000,7.9999963 L 180.00000,7.9999963 L 180.00000,35.999998 L 148.00000,35.999998 z "
       style="fill:#ffffff;fill-opacity:1.0000000;fill-rule:evenodd;stroke:#000000;stroke-width:3.9999998;stroke-linecap:butt;stroke-linejoin:miter;stroke-miterlimit:4.0000000;stroke-opacity:1.0000000" />
    <path
       sodipodi:nodetypes="ccccc"
       id="path3572"
       d="M 164.00000,19.999996 L 164.00000,35.999998 L 180.00000,35.999998 L 180.00000,19.999996 L 164.00000,19.999996 z "
       style="fill:#000000;fill-opacity:1.0000000;fill-rule:evenodd;stroke:#000000;stroke-width:3.9999998;stroke-linecap:butt;stroke-linejoin:miter;stroke-miterlimit:4.0000000;stroke-opacity:1.0000000" />
    <path
       sodipodi:nodetypes="ccccc"
       id="path1327"
       d="M 200.00000,35.999998 L 200.00000,7.9999963 L 232.00000,7.9999963 L 232.00000,35.999998 L 200.00000,35.999998 z "
       style="fill:#ffffff;fill-opacity:1.0000000;fill-rule:evenodd;stroke:#000000;stroke-width:3.9999998;stroke-linecap:butt;stroke-linejoin:miter;stroke-miterlimit:4.0000000;stroke-opacity:1.0000000" />
    <path
       sodipodi:nodetypes="ccccc"
       id="path1329"
       d="M 216.00000,19.999996 L 216.00000,35.999998 L 232.00000,35.999998 L 232.00000,19.999996 L 216.00000,19.999996 z "
       style="fill:#000000;fill-opacity:1.0000000;fill-rule:evenodd;stroke:#000000;stroke-width:3.9999998;stroke-linecap:butt;stroke-linejoin:miter;stroke-miterlimit:4.0000000;stroke-opacity:1.0000000" />
    <path
       style="fill:#0055ff;fill-opacity:1.0000000;fill-rule:evenodd;stroke:#000000;stroke-width:4.0000000;stroke-linecap:butt;stroke-linejoin:miter;stroke-miterlimit:4.0000000;stroke-opacity:1.0000000"
       d="M 152.00000,156.00000 L 136.00000,156.00000 L 146.00000,172.00000 L 130.00000,176.00000 L 114.00000,180.00000 L 122.00000,208.00000 L 138.00000,204.00000 L 134.00000,188.00000 L 162.00000,176.00000 L 152.00000,156.00000 z "
       id="path4052"
       sodipodi:nodetypes="czcccccccs" />
    <path
       sodipodi:nodetypes="czcccccccs"
       id="path1064"
       d="M 184.00000,156.00000 L 160.00000,156.00000 L 192.00000,180.00000 L 196.00000,200.00000 L 196.00000,216.00000 L 232.00000,216.00000 L 232.00000,200.00000 L 208.00000,200.00000 L 204.00000,176.00000 L 184.00000,156.00000 z "
       style="fill:#0055ff;fill-opacity:1.0000000;fill-rule:evenodd;stroke:#000000;stroke-width:4.0000000;stroke-linecap:butt;stroke-linejoin:miter;stroke-miterlimit:4.0000000;stroke-opacity:1.0000000" />
    <path
       id="path10356"
       d="M 60.687500,175.46875 C 57.050800,175.46875 54.093750,178.75368 54.093750,182.81250 C 54.093750,184.22084 54.540210,185.44396 55.156250,186.56250 C 53.308300,187.60480 52.000000,189.34296 52.000000,191.43750 C 52.000000,194.68456 54.957040,197.31249 58.593750,197.31250 C 62.230450,197.31250 65.187500,194.68455 65.187500,191.43750 C 65.187500,190.44964 64.857560,189.56764 64.375000,188.75000 C 65.068630,188.21182 65.629310,187.53864 66.093750,186.75000 C 67.193530,187.48531 68.490090,188.00000 69.968750,188.00000 C 73.605450,188.00000 76.562500,185.37206 76.562500,182.12500 C 76.562500,178.87794 73.605450,176.24999 69.968750,176.25000 C 68.227760,176.25000 66.678280,176.88910 65.500000,177.87500 C 64.295680,176.41436 62.604880,175.46875 60.687500,175.46875 z "
       style="fill:#909090;fill-opacity:0.70391059;fill-rule:evenodd;stroke:#000000;stroke-width:1.0000000;stroke-linecap:butt;stroke-linejoin:miter;stroke-miterlimit:4.0000000;stroke-opacity:1.0000000" />
  </g>
</svg>
