<?xml version="1.0" encoding="UTF-8" standalone="no"?>
<!-- Created with Inkscape (http://www.inkscape.org/) -->
<svg
   xmlns:dc="http://purl.org/dc/elements/1.1/"
   xmlns:cc="http://web.resource.org/cc/"
   xmlns:rdf="http://www.w3.org/1999/02/22-rdf-syntax-ns#"
   xmlns:svg="http://www.w3.org/2000/svg"
   xmlns="http://www.w3.org/2000/svg"
   xmlns:sodipodi="http://inkscape.sourceforge.net/DTD/sodipodi-0.dtd"
   xmlns:inkscape="http://www.inkscape.org/namespaces/inkscape"
   width="320.00000px"
   height="240.00000px"
   id="svg2"
   sodipodi:version="0.32"
   inkscape:version="0.42"
   sodipodi:docbase="/home/joe/programming/gnumch/data/animation/pics"
   sodipodi:docname="muncher5.svg"
   inkscape:export-filename="/home/joe/programming/gnumch/data/animation/pics/muncher__walking_right_02.png"
   inkscape:export-xdpi="36.000000"
   inkscape:export-ydpi="36.000000">
  <defs
     id="defs3" />
  <sodipodi:namedview
     id="base"
     pagecolor="#ffffff"
     bordercolor="#666666"
     borderopacity="1.0"
     inkscape:pageopacity="0.0000000"
     inkscape:pageshadow="2"
     inkscape:zoom="2.9833333"
     inkscape:cx="160.00000"
     inkscape:cy="120.00000"
     inkscape:document-units="px"
     inkscape:current-layer="layer1"
     showborder="true"
     borderlayer="top"
     showgrid="true"
     inkscape:grid-bbox="true"
     inkscape:grid-points="true"
     showguides="true"
     gridspacingx="4.0000000px"
     gridspacingy="4.0000000px"
     gridtolerance="2.0000000px"
     inkscape:window-width="1313"
     inkscape:window-height="891"
     inkscape:window-x="0"
     inkscape:window-y="30" />
  <metadata
     id="metadata4">
    <rdf:RDF>
      <cc:Work
         rdf:about="">
        <dc:format>image/svg+xml</dc:format>
        <dc:type
           rdf:resource="http://purl.org/dc/dcmitype/StillImage" />
      </cc:Work>
    </rdf:RDF>
  </metadata>
  <g
     inkscape:label="Layer 1"
     inkscape:groupmode="layer"
     id="layer1">
    <g
       transform="matrix(0.852901,0.000000,0.000000,0.664123,-2.881299,65.39604)"
       id="g10325">
      <path
         id="path10319"
         transform="matrix(1.172469,0.000000,0.000000,1.505745,46.46647,-54.23848)"
         d="M 7.2500000,138.90625 C 4.3106026,138.90625 1.9375000,140.79646 1.9375000,143.15625 C 1.9375000,145.51603 4.3106024,147.43750 7.2500000,147.43750 C 10.189397,147.43750 12.593750,145.51602 12.593750,143.15625 C 12.593750,140.79647 10.189397,138.90624 7.2500000,138.90625 z M 11.531250,150.09375 C 7.7648392,150.09375 4.7187500,152.46910 4.7187500,155.37500 C 4.7187500,156.79166 5.4752024,158.05340 6.6562500,159.00000 C 5.3627760,159.78016 4.4687501,160.94588 4.4687500,162.34375 C 4.4687500,164.70353 6.8731025,166.62501 9.8125000,166.62500 C 12.751897,166.62500 15.125000,164.70354 15.125000,162.34375 C 15.125000,161.53271 14.770475,160.83380 14.281250,160.18750 C 15.283349,159.84603 16.101317,159.27423 16.781250,158.62500 C 17.486125,159.03264 18.290584,159.31250 19.187500,159.31250 C 21.698442,159.31250 23.718749,157.46854 23.718750,155.18750 C 23.718750,152.90646 21.698443,151.06250 19.187500,151.06250 C 18.193946,151.06250 17.310971,151.38336 16.562500,151.87500 C 15.313718,150.81084 13.536988,150.09375 11.531250,150.09375 z "
         style="fill:#909090;fill-opacity:0.70391059;fill-rule:evenodd;stroke:#000000;stroke-width:1.0000001;stroke-linecap:butt;stroke-linejoin:miter;stroke-miterlimit:4.0000000;stroke-opacity:1.0000000" />
    </g>
    <path
       style="fill:#0055ff;fill-opacity:1.0000000;fill-rule:evenodd;stroke:#000000;stroke-width:4.0000000;stroke-linecap:butt;stroke-linejoin:miter;stroke-miterlimit:4.0000000;stroke-opacity:1.0000000"
       d="M 12.772250,40.018845 L 252.54863,29.660743 C 261.40434,49.296838 262.44016,73.274475 255.31079,93.601109 L 79.474777,101.19705 L 78.093697,69.226868 L 46.123514,70.607949 C 50.982961,90.416679 51.673503,106.40177 48.540404,126.55577 L 276.32796,116.71557 C 279.46105,96.561572 283.11206,88.396391 278.25261,68.587661 L 310.22280,67.206582 C 315.77278,103.00040 312.63968,123.15440 305.68295,147.47731 L 17.951302,159.90703 C 24.217497,119.59904 22.491146,79.636305 12.772250,40.018845 z "
       id="path1061"
       sodipodi:nodetypes="ccccccccccccc" />
    <path
       sodipodi:nodetypes="ccccc"
       id="path3570"
       d="M 144.64935,34.322096 L 143.44091,6.3481601 L 175.41111,4.9670798 L 176.61955,32.941016 L 144.64935,34.322096 z "
       style="fill:#ffffff;fill-opacity:1.0000000;fill-rule:evenodd;stroke:#000000;stroke-width:4.0000024;stroke-linecap:butt;stroke-linejoin:miter;stroke-miterlimit:4.0000000;stroke-opacity:1.0000000" />
    <path
       sodipodi:nodetypes="ccccc"
       id="path3572"
       d="M 159.94391,17.646448 L 160.63445,33.631556 L 176.61955,32.941016 L 175.92901,16.955908 L 159.94391,17.646448 z "
       style="fill:#000000;fill-opacity:1.0000000;fill-rule:evenodd;stroke:#000000;stroke-width:4.0000024;stroke-linecap:butt;stroke-linejoin:miter;stroke-miterlimit:4.0000000;stroke-opacity:1.0000000" />
    <path
       sodipodi:nodetypes="ccccc"
       id="path1327"
       d="M 196.60095,32.077896 L 195.39251,4.1039601 L 227.36271,2.7228798 L 228.57115,30.696816 L 196.60095,32.077896 z "
       style="fill:#ffffff;fill-opacity:1.0000000;fill-rule:evenodd;stroke:#000000;stroke-width:4.0000024;stroke-linecap:butt;stroke-linejoin:miter;stroke-miterlimit:4.0000000;stroke-opacity:1.0000000" />
    <path
       sodipodi:nodetypes="ccccc"
       id="path1329"
       d="M 211.89551,15.402248 L 212.58605,31.387356 L 228.57115,30.696816 L 227.88061,14.711708 L 211.89551,15.402248 z "
       style="fill:#000000;fill-opacity:1.0000000;fill-rule:evenodd;stroke:#000000;stroke-width:4.0000024;stroke-linecap:butt;stroke-linejoin:miter;stroke-miterlimit:4.0000000;stroke-opacity:1.0000000" />
    <path
       sodipodi:nodetypes="czcccccccs"
       id="path4055"
       d="M 153.82458,154.03744 L 137.83949,154.72798 L 128.88461,179.13721 L 113.07216,183.82402 L 96.914433,180.51829 L 90.475603,216.83002 L 110.62961,219.96311 L 113.59007,195.81284 L 137.22243,186.78448 L 153.82458,154.03744 z "
       style="fill:#0055ff;fill-opacity:1.0000000;fill-rule:evenodd;stroke:#000000;stroke-width:4.0000000;stroke-linecap:butt;stroke-linejoin:miter;stroke-miterlimit:4.0000000;stroke-opacity:1.0000000" />
    <path
       sodipodi:nodetypes="czcccccccs"
       id="path4057"
       d="M 183.79662,152.74267 L 159.81899,153.77849 L 196.64862,172.20613 L 201.33543,188.01860 L 210.01852,203.65842 L 241.29816,186.29224 L 232.61507,170.65242 L 213.15162,183.50441 L 204.29589,163.86833 L 183.79662,152.74267 z "
       style="fill:#0055ff;fill-opacity:1.0000000;fill-rule:evenodd;stroke:#000000;stroke-width:4.0000000;stroke-linecap:butt;stroke-linejoin:miter;stroke-miterlimit:4.0000000;stroke-opacity:1.0000000" />
    <path
       id="path10344"
       d="M 72.500000,172.00000 C 68.835570,172.00000 65.883670,174.51172 64.937500,177.87500 C 63.653770,176.77820 62.171210,176.00000 60.500000,176.00000 C 56.084000,176.00000 52.500000,180.48000 52.500000,186.00000 C 52.500000,187.02693 52.738380,187.97346 52.968750,188.90625 C 50.342570,190.21860 48.500000,192.86628 48.500000,196.00000 C 48.500000,200.41600 52.084000,204.00000 56.500000,204.00000 C 60.916000,204.00000 64.500000,200.41600 64.500000,196.00000 C 64.500000,195.53717 64.325570,195.12888 64.250000,194.68750 C 66.581320,193.10863 68.166540,190.19757 68.375000,186.71875 C 69.593640,187.46973 70.964470,188.00000 72.500000,188.00000 C 76.916000,188.00000 80.500000,184.41600 80.500000,180.00000 C 80.500000,175.58400 76.916000,172.00000 72.500000,172.00000 z "
       style="fill:#909090;fill-opacity:0.70391059;fill-rule:evenodd;stroke:#000000;stroke-width:1.0000000;stroke-linecap:butt;stroke-linejoin:miter;stroke-miterlimit:4.0000000;stroke-opacity:1.0000000" />
  </g>
</svg>
