<?xml version="1.0" encoding="UTF-8" standalone="no"?>
<!-- Created with Inkscape (http://www.inkscape.org/) -->
<svg
   xmlns:dc="http://purl.org/dc/elements/1.1/"
   xmlns:cc="http://web.resource.org/cc/"
   xmlns:rdf="http://www.w3.org/1999/02/22-rdf-syntax-ns#"
   xmlns:svg="http://www.w3.org/2000/svg"
   xmlns="http://www.w3.org/2000/svg"
   xmlns:sodipodi="http://inkscape.sourceforge.net/DTD/sodipodi-0.dtd"
   xmlns:inkscape="http://www.inkscape.org/namespaces/inkscape"
   width="320.00000px"
   height="240.00000px"
   id="svg2"
   sodipodi:version="0.32"
   inkscape:version="0.43"
   sodipodi:docbase="/home/joe/programming/gnumch/data/animation/pics"
   sodipodi:docname="smarty__normal_down_01.svg"
   inkscape:export-filename="/home/joe/programming/gnumch/data/animation/pics/muncher__eating_down_01.png"
   inkscape:export-xdpi="36.000000"
   inkscape:export-ydpi="36.000000">
  <defs
     id="defs3">
    <linearGradient
       id="linearGradient2531">
      <stop
         style="stop-color:#91c5a9;stop-opacity:1.0000000;"
         offset="0.0000000"
         id="stop2533" />
      <stop
         id="stop2539"
         offset="0.070000000"
         style="stop-color:#91c5a9;stop-opacity:1.0000000;" />
      <stop
         style="stop-color:#9107a9;stop-opacity:1.0000000;"
         offset="1.0000000"
         id="stop2535" />
    </linearGradient>
  </defs>
  <sodipodi:namedview
     id="base"
     pagecolor="#ffffff"
     bordercolor="#666666"
     borderopacity="1.0"
     inkscape:pageopacity="0.0000000"
     inkscape:pageshadow="2"
     inkscape:zoom="4.0083333"
     inkscape:cx="160"
     inkscape:cy="120"
     inkscape:document-units="px"
     inkscape:current-layer="layer2"
     showborder="true"
     borderlayer="top"
     showgrid="true"
     inkscape:grid-bbox="false"
     inkscape:grid-points="false"
     showguides="true"
     gridspacingx="2.0000000px"
     gridspacingy="2.0000000px"
     gridtolerance="2.0000000px"
     inkscape:window-width="1479"
     inkscape:window-height="1137"
     inkscape:window-x="0"
     inkscape:window-y="0"
     inkscape:guide-bbox="true" />
  <metadata
     id="metadata4">
    <rdf:RDF>
      <cc:Work
         rdf:about="">
        <dc:format>image/svg+xml</dc:format>
        <dc:type
           rdf:resource="http://purl.org/dc/dcmitype/StillImage" />
      </cc:Work>
    </rdf:RDF>
  </metadata>
  <g
     style="display:none"
     inkscape:label="Layer 1"
     inkscape:groupmode="layer"
     id="layer1">
    <path
       style="fill:#0055ff;fill-opacity:1.0000000;fill-rule:evenodd;stroke:#000000;stroke-width:2.5000000;stroke-linecap:butt;stroke-linejoin:miter;stroke-miterlimit:4.0000000;stroke-opacity:1.0000000"
       d="M 16.000000,40.000000 L 256.00000,40.000000 L 256.00000,104.00000 L 80.000000,104.00000 L 80.000000,72.000000 L 48.000000,72.000000 L 48.000000,128.00000 L 280.00000,128.00000 L 280.00000,80.000000 L 312.00000,80.000000 L 312.00000,160.00000 L 16.000000,160.00000 L 16.000000,40.000000 z "
       id="path1061"
       sodipodi:nodetypes="ccccccccccccc" />
    <path
       style="fill:#0055ff;fill-opacity:1.0000000;fill-rule:evenodd;stroke:#000000;stroke-width:4.0000000;stroke-linecap:butt;stroke-linejoin:miter;stroke-miterlimit:4.0000000;stroke-opacity:1.0000000"
       d="M 150.00000,160.00000 L 134.00000,160.00000 L 154.00000,188.00000 L 134.00000,212.00000 L 134.00000,232.00000 L 178.00000,232.00000 L 178.00000,212.00000 L 150.00000,212.00000 L 166.00000,188.00000 L 150.00000,160.00000 z "
       id="path1064"
       sodipodi:nodetypes="czcccccccs" />
    <path
       style="fill:#0055ff;fill-opacity:1.0000000;fill-rule:evenodd;stroke:#000000;stroke-width:4.0000000;stroke-linecap:butt;stroke-linejoin:miter;stroke-miterlimit:4.0000000;stroke-opacity:1.0000000"
       d="M 178.00000,160.00000 L 162.00000,160.00000 L 182.00000,188.00000 L 162.00000,212.00000 L 162.00000,232.00000 L 206.00000,232.00000 L 206.00000,212.00000 L 178.00000,212.00000 L 194.00000,188.00000 L 178.00000,160.00000 z "
       id="path2091"
       sodipodi:nodetypes="czcccccccs" />
  </g>
  <g
     style="display:inline"
     inkscape:label="Layer 2"
     id="layer2"
     inkscape:groupmode="layer">
    <path
       style="opacity:1;color:#000000;fill:#00862b;fill-opacity:1;fill-rule:evenodd;stroke:#000000;stroke-width:2.99999976;stroke-linecap:butt;stroke-linejoin:miter;marker:none;marker-start:none;marker-mid:none;marker-end:none;stroke-miterlimit:4;stroke-dasharray:none;stroke-dashoffset:0;stroke-opacity:1;visibility:visible;display:inline;overflow:visible"
       d="M 159.72081,190.51356 L 167.86972,212.49498 L 162.08934,228.52268 L 158.19405,229.17659 L 157.65352,234.86866 L 174.01239,235.85786 L 174.02156,229.00567 L 167.35011,228.66803 L 174.79286,212.4595 L 169.72154,188.26233"
       id="path9840"
       sodipodi:nodetypes="cccccccccc" />
    <path
       style="opacity:1;color:#000000;fill:#00862b;fill-opacity:1;fill-rule:evenodd;stroke:#000000;stroke-width:2.99999976;stroke-linecap:butt;stroke-linejoin:miter;marker:none;marker-start:none;marker-mid:none;marker-end:none;stroke-miterlimit:4;stroke-dasharray:none;stroke-dashoffset:0;stroke-opacity:1;visibility:visible;display:inline;overflow:visible"
       d="M 146.62331,189.79723 L 155.54475,211.77865 L 148.99184,227.80635 L 145.09655,228.46026 L 144.55602,234.15233 L 161.94493,235.39904 L 162.72664,229.06187 L 155.28265,228.20921 L 162.98291,212.00068 L 158.1691,188.57604"
       id="path4223"
       sodipodi:nodetypes="cccccccccc" />
    <path
       style="opacity:1;color:#000000;fill:#ffffff;fill-opacity:1;fill-rule:evenodd;stroke:#000000;stroke-width:2.99999928;stroke-linecap:butt;stroke-linejoin:miter;marker:none;marker-start:none;marker-mid:none;marker-end:none;stroke-miterlimit:4;stroke-dasharray:none;stroke-dashoffset:0;stroke-opacity:1;visibility:visible;display:inline;overflow:visible"
       d="M 127.72532,141.63091 L 125.40772,159.14164 L 138.79828,145.75108 L 136.99571,160.94421 L 153.21888,147.81117 L 166.35193,152.70387 L 172.27468,163.77683 L 178.96996,150.12877 L 190.55794,164.29185 L 191.07296,143.43349 L 127.72532,141.63091 z "
       id="path9834"
       sodipodi:nodetypes="ccccccccccc" />
    <path
       style="opacity:1;color:#000000;fill:#ffffff;fill-opacity:1;fill-rule:evenodd;stroke:#000000;stroke-width:2.99999928;stroke-linecap:butt;stroke-linejoin:miter;marker:none;marker-start:none;marker-mid:none;marker-end:none;stroke-miterlimit:4;stroke-dasharray:none;stroke-dashoffset:0;stroke-opacity:1;visibility:visible;display:inline;overflow:visible"
       d="M 136.7382,173.04721 L 147.03863,162.74679 L 150.64377,177.93992 L 157.08155,164.03435 L 162.48927,178.19743 L 167.89699,164.29185 L 175.87983,177.93992 L 197.51073,166.09442 L 197.51073,149.35623 L 209.61373,169.95709 L 166.35193,189.78541 L 115.3648,175.87983 L 133.39056,157.59657 L 136.7382,173.04721 z "
       id="path9836"
       sodipodi:nodetypes="cccccccccccccc" />
    <path
       id="path8922"
       style="color:#000000;fill:#00862b;fill-opacity:1;fill-rule:evenodd;stroke:#000000;stroke-width:3;stroke-linecap:butt;stroke-linejoin:miter;stroke-miterlimit:4;stroke-dashoffset:0;stroke-opacity:1;marker:none;marker-start:none;marker-mid:none;marker-end:none;visibility:visible;display:inline;overflow:visible"
       d="M 239.48497,117.81116 C 239.48497,161.80532 204.24102,197.51073 160.81544,197.51073 C 117.38987,197.51073 82.145922,161.80532 82.145922,117.81116 C 82.145922,73.816998 117.38987,38.111591 160.81544,38.111591 C 204.24102,38.111591 239.48497,73.816998 239.48497,117.81116 z M 111.24463,135.45064 C 126.00858,147.21029 148.05734,156.38213 164.03433,156.82403 C 179.47903,157.25832 197.33906,147.89699 211.41631,136.48068 C 207.897,150.64376 195.37541,164.34028 184.63519,169.95707 C 171.08357,177.04414 152.16419,175.73657 138.02575,169.44206 C 127.09981,164.57777 115.79399,152.87554 111.24463,135.45064 z "
       sodipodi:nodetypes="csssccscssc" />
    <path
       style="color:#000000;fill:#00862b;fill-opacity:1;fill-rule:evenodd;stroke:#000000;stroke-width:2.99999881;stroke-linecap:butt;stroke-linejoin:bevel;marker:none;marker-start:none;marker-mid:none;marker-end:none;stroke-miterlimit:4;stroke-dasharray:none;stroke-dashoffset:0;stroke-opacity:1;visibility:visible;display:inline;overflow:visible"
       d="M 180.15589,51.698669 C 184.33092,45.487561 187.21846,39.581742 196.2385,38.113704 C 196.28563,40.280114 197.36531,42.296493 199.36174,43.18597 C 202.18874,44.445483 205.62817,43.034441 206.95173,39.988193 C 208.24417,37.013573 207.87383,33.279692 205.53102,31.327904 C 203.62473,29.739781 199.30923,29.186288 197.93992,32.205631 C 186.53029,32.263857 181.41695,36.050996 170.71669,49.571798"
       id="path22797"
       sodipodi:nodetypes="ccssscc" />
    <path
       style="fill:none;fill-opacity:0.75;fill-rule:evenodd;stroke:#000000;stroke-width:2.99999881;stroke-linecap:butt;stroke-linejoin:miter;stroke-miterlimit:4;stroke-dasharray:none;stroke-opacity:1;display:inline"
       d="M 202.64192,87.962086 C 196.77496,85.031247 192.90385,80.354046 190.28014,73.930484 C 180.83719,76.601924 176.07038,79.850686 169.96406,88.16521"
       id="path8925"
       sodipodi:nodetypes="ccc" />
    <path
       id="path8936"
       style="fill:#ffffff;fill-opacity:1;fill-rule:evenodd;stroke:#000000;stroke-width:2.99999928;stroke-linecap:butt;stroke-linejoin:miter;stroke-miterlimit:4;stroke-opacity:1;display:inline"
       d="M 188.82616,105.47287 C 182.16662,103.97009 176.33805,101.09496 170.02914,96.065361 C 176.88947,91.207164 179.93877,88.831385 188.75536,87.660179 C 195.89814,88.835391 198.04614,91.597439 201.43007,95.940606 C 198.08254,100.32644 195.08659,104.48912 188.82616,105.47287 z "
       sodipodi:nodetypes="ccccc" />
    <path
       id="path9817"
       style="fill:#ffffff;fill-opacity:1;fill-rule:evenodd;stroke:#000000;stroke-width:2.99999928;stroke-linecap:butt;stroke-linejoin:miter;stroke-miterlimit:4;stroke-opacity:1;display:inline"
       d="M 136.76576,105.53471 C 143.4253,104.03193 149.25387,101.1568 155.56278,96.127195 C 148.70245,91.268995 145.65315,88.893225 136.83656,87.722015 C 129.69378,88.897225 127.54578,91.659275 124.16185,96.002445 C 127.50938,100.38828 130.50533,104.55096 136.76576,105.53471 z "
       sodipodi:nodetypes="ccccc" />
    <path
       sodipodi:type="arc"
       style="opacity:1;color:#000000;fill:#000000;fill-opacity:1;fill-rule:evenodd;stroke:#000000;stroke-width:3.99037313;stroke-linecap:butt;stroke-linejoin:miter;marker:none;marker-start:none;marker-mid:none;marker-end:none;stroke-miterlimit:4;stroke-dasharray:none;stroke-dashoffset:0;stroke-opacity:1;visibility:visible;display:inline;overflow:visible"
       id="path8940"
       sodipodi:cx="141.63091"
       sodipodi:cy="83.81974"
       sodipodi:rx="3.0901287"
       sodipodi:ry="3.0901287"
       d="M 144.72103 83.81974 A 3.0901287 3.0901287 0 1 1  138.54078,83.81974 A 3.0901287 3.0901287 0 1 1  144.72103 83.81974 z"
       transform="matrix(0.565217,0,0,1,52.09854,12.11104)" />
    <path
       sodipodi:type="arc"
       style="opacity:1;color:#000000;fill:#000000;fill-opacity:1;fill-rule:evenodd;stroke:#000000;stroke-width:3.8496573;stroke-linecap:butt;stroke-linejoin:miter;marker:none;marker-start:none;marker-mid:none;marker-end:none;stroke-miterlimit:4;stroke-dasharray:none;stroke-dashoffset:0;stroke-opacity:1;visibility:visible;display:inline;overflow:visible"
       id="path9815"
       sodipodi:cx="141.63091"
       sodipodi:cy="83.81974"
       sodipodi:rx="3.0901287"
       sodipodi:ry="3.0901287"
       d="M 144.72103 83.81974 A 3.0901287 3.0901287 0 1 1  138.54078,83.81974 A 3.0901287 3.0901287 0 1 1  144.72103 83.81974 z"
       transform="matrix(0.607293,0,0,1,95.01793,12.36052)" />
    <path
       style="fill:none;fill-opacity:0.75;fill-rule:evenodd;stroke:#000000;stroke-width:2.99999881;stroke-linecap:butt;stroke-linejoin:miter;stroke-miterlimit:4;stroke-dasharray:none;stroke-opacity:1;display:inline"
       d="M 122.45935,88.030118 C 124.5841,81.856036 128.45521,75.182993 135.07061,72.002674 C 139.52396,79.414239 145.28869,84.908323 155.13721,88.233242"
       id="path9819"
       sodipodi:nodetypes="ccc" />
    <path
       style="color:#000000;fill:#00862b;fill-opacity:1;fill-rule:evenodd;stroke:#000000;stroke-width:2.99999905;stroke-linecap:butt;stroke-linejoin:bevel;marker:none;marker-start:none;marker-mid:none;marker-end:none;stroke-miterlimit:4;stroke-dasharray:none;stroke-dashoffset:0;stroke-opacity:1;visibility:visible;display:inline;overflow:visible"
       d="M 143.66418,51.338298 C 133.44265,41.610813 128.95165,43.056671 118.94754,45.98446 C 119.9794,47.926535 118.84501,49.189691 117.23635,50.913969 C 114.95844,53.355585 110.71928,53.717548 107.83969,51.638333 C 105.02782,49.608006 103.54657,46.125229 104.98155,43.297086 C 106.14916,40.995893 110.30922,38.482138 113.22242,40.51606 C 124.97986,35.218522 138.09294,35.418885 151.19925,48.050359"
       id="path9842"
       sodipodi:nodetypes="ccssscc" />
  </g>
</svg>
