<?xml version="1.0" encoding="UTF-8" standalone="no"?>
<!-- Created with Inkscape (http://www.inkscape.org/) -->
<svg
   xmlns:dc="http://purl.org/dc/elements/1.1/"
   xmlns:cc="http://web.resource.org/cc/"
   xmlns:rdf="http://www.w3.org/1999/02/22-rdf-syntax-ns#"
   xmlns:svg="http://www.w3.org/2000/svg"
   xmlns="http://www.w3.org/2000/svg"
   xmlns:sodipodi="http://inkscape.sourceforge.net/DTD/sodipodi-0.dtd"
   xmlns:inkscape="http://www.inkscape.org/namespaces/inkscape"
   width="320.00000px"
   height="240.00000px"
   id="svg2"
   sodipodi:version="0.32"
   inkscape:version="0.43"
   sodipodi:docbase="/home/joe/programming/gnumch/data/animation/pics"
   sodipodi:docname="smarty__walking_right_01.svg"
   inkscape:export-filename="/home/joe/programming/gnumch/data/animation/pics/muncher__eating_down_01.png"
   inkscape:export-xdpi="36.000000"
   inkscape:export-ydpi="36.000000">
  <defs
     id="defs3">
    <linearGradient
       id="linearGradient2531">
      <stop
         style="stop-color:#91c5a9;stop-opacity:1.0000000;"
         offset="0.0000000"
         id="stop2533" />
      <stop
         id="stop2539"
         offset="0.070000000"
         style="stop-color:#91c5a9;stop-opacity:1.0000000;" />
      <stop
         style="stop-color:#9107a9;stop-opacity:1.0000000;"
         offset="1.0000000"
         id="stop2535" />
    </linearGradient>
  </defs>
  <sodipodi:namedview
     id="base"
     pagecolor="#ffffff"
     bordercolor="#666666"
     borderopacity="1.0"
     inkscape:pageopacity="0.0000000"
     inkscape:pageshadow="2"
     inkscape:zoom="3.8833333"
     inkscape:cx="160"
     inkscape:cy="122.35346"
     inkscape:document-units="px"
     inkscape:current-layer="layer2"
     showborder="true"
     borderlayer="top"
     showgrid="true"
     inkscape:grid-bbox="false"
     inkscape:grid-points="false"
     showguides="true"
     gridspacingx="2.0000000px"
     gridspacingy="2.0000000px"
     gridtolerance="2.0000000px"
     inkscape:window-width="1478"
     inkscape:window-height="1107"
     inkscape:window-x="0"
     inkscape:window-y="30"
     inkscape:guide-bbox="true" />
  <metadata
     id="metadata4">
    <rdf:RDF>
      <cc:Work
         rdf:about="">
        <dc:format>image/svg+xml</dc:format>
        <dc:type
           rdf:resource="http://purl.org/dc/dcmitype/StillImage" />
      </cc:Work>
    </rdf:RDF>
  </metadata>
  <g
     style="display:none"
     inkscape:label="Layer 1"
     inkscape:groupmode="layer"
     id="layer1">
    <path
       style="fill:#0055ff;fill-opacity:1.0000000;fill-rule:evenodd;stroke:#000000;stroke-width:2.5000000;stroke-linecap:butt;stroke-linejoin:miter;stroke-miterlimit:4.0000000;stroke-opacity:1.0000000"
       d="M 16.000000,40.000000 L 256.00000,40.000000 L 256.00000,104.00000 L 80.000000,104.00000 L 80.000000,72.000000 L 48.000000,72.000000 L 48.000000,128.00000 L 280.00000,128.00000 L 280.00000,80.000000 L 312.00000,80.000000 L 312.00000,160.00000 L 16.000000,160.00000 L 16.000000,40.000000 z "
       id="path1061"
       sodipodi:nodetypes="ccccccccccccc" />
    <path
       style="fill:#0055ff;fill-opacity:1.0000000;fill-rule:evenodd;stroke:#000000;stroke-width:4.0000000;stroke-linecap:butt;stroke-linejoin:miter;stroke-miterlimit:4.0000000;stroke-opacity:1.0000000"
       d="M 150.00000,160.00000 L 134.00000,160.00000 L 154.00000,188.00000 L 134.00000,212.00000 L 134.00000,232.00000 L 178.00000,232.00000 L 178.00000,212.00000 L 150.00000,212.00000 L 166.00000,188.00000 L 150.00000,160.00000 z "
       id="path1064"
       sodipodi:nodetypes="czcccccccs" />
    <path
       style="fill:#0055ff;fill-opacity:1.0000000;fill-rule:evenodd;stroke:#000000;stroke-width:4.0000000;stroke-linecap:butt;stroke-linejoin:miter;stroke-miterlimit:4.0000000;stroke-opacity:1.0000000"
       d="M 178.00000,160.00000 L 162.00000,160.00000 L 182.00000,188.00000 L 162.00000,212.00000 L 162.00000,232.00000 L 206.00000,232.00000 L 206.00000,212.00000 L 178.00000,212.00000 L 194.00000,188.00000 L 178.00000,160.00000 z "
       id="path2091"
       sodipodi:nodetypes="czcccccccs" />
  </g>
  <g
     style="display:inline"
     inkscape:label="Layer 2"
     id="layer2"
     inkscape:groupmode="layer">
    <path
       style="opacity:1;color:#000000;fill:#00862b;fill-opacity:1;fill-rule:evenodd;stroke:#000000;stroke-width:2.99999976;stroke-linecap:butt;stroke-linejoin:miter;marker:none;marker-start:none;marker-mid:none;marker-end:none;stroke-miterlimit:4;stroke-dasharray:none;stroke-dashoffset:0;stroke-opacity:1;visibility:visible;display:inline;overflow:visible"
       d="M 174.18814,184.61849 L 187.56556,203.59916 L 179.16092,220.21376 L 193.25681,220.75219 L 191.27552,227.30393 L 170.29441,225.48712 L 178.58924,204.97468 L 164.15801,187.14605"
       id="path4225"
       sodipodi:nodetypes="cccccccc" />
    <path
       style="color:#000000;fill:#00862b;fill-opacity:1;fill-rule:evenodd;stroke:#000000;stroke-width:2.99999976;stroke-linecap:butt;stroke-linejoin:bevel;marker:none;marker-start:none;marker-mid:none;marker-end:none;stroke-miterlimit:4;stroke-dasharray:none;stroke-dashoffset:0;stroke-opacity:1;visibility:visible;display:inline;overflow:visible"
       d="M 191.95596,46.841836 C 195.56013,40.517812 198.00373,34.534647 206.1551,32.81709 C 206.26403,34.981184 207.30661,36.966676 209.14783,37.800361 C 211.75504,38.980871 214.83728,37.475081 215.94699,34.393538 C 217.03062,31.384453 216.58017,27.662583 214.3918,25.77669 C 212.61117,24.242184 208.67296,23.808654 207.52083,26.864574 C 197.15513,27.239257 192.62438,31.166469 183.31403,44.977784"
       id="path22797"
       sodipodi:nodetypes="ccssscc" />
    <path
       id="path11986"
       style="fill:#ffffff;fill-opacity:1;fill-rule:evenodd;stroke:#000000;stroke-width:2.99999881;stroke-linecap:butt;stroke-linejoin:miter;stroke-miterlimit:4;stroke-dasharray:none;stroke-opacity:1"
       d="M 157.06222,142.29584 L 165.50163,130.54245 L 167.11793,146.00892 L 157.06222,142.29584 z M 177.91589,147.19909 L 184.63597,133.40572 L 189.64236,144.95539 L 193.98876,131.35782 L 201.11473,145.78115 L 201.29438,145.3589 L 204.82832,134.21792 L 210.7861,145.39173 L 218.55755,145.23398 L 221.21145,133.73269 L 228.1186,147.60726 L 177.91589,147.19909 z "
       sodipodi:nodetypes="cccccccccccccccc" />
    <path
       style="fill:#ffffff;fill-opacity:1;fill-rule:evenodd;stroke:#000000;stroke-width:2.99999881;stroke-linecap:butt;stroke-linejoin:miter;stroke-miterlimit:4;stroke-dasharray:none;stroke-opacity:1"
       d="M 234.16289,114.29834 L 232.03034,127.04917 L 226.26915,117.60586 L 224.97201,127.42899 L 218.39744,118.19762 L 212.16332,120.51678 L 210.95824,138.28268 L 201.98154,121.46726 L 197.52154,136.35326 L 187.70078,127.06435 L 176.06755,129.85429 L 170.22711,140.18314 L 167.43839,127.30587 L 234.16289,114.29834 z "
       id="path11990"
       sodipodi:nodetypes="cccccccccccccc" />
    <path
       style="fill:#00862b;fill-opacity:1;fill-rule:evenodd;stroke:#000000;stroke-width:2.99999881;stroke-linecap:butt;stroke-linejoin:bevel;stroke-miterlimit:4;stroke-dasharray:none;stroke-opacity:1"
       d="M 232.56148,144.27507 C 215.72101,185.40594 169.70688,205.54367 129.85135,189.22536 C 89.995832,172.90706 71.316957,126.28166 88.157429,85.150792 C 104.9979,44.019926 151.01204,23.882196 190.86758,40.200495 C 210.79534,48.359646 225.42893,64.095564 232.97551,82.933065 C 236.74882,92.35182 238.75036,102.54596 238.75604,112.95609 C 232.94131,116.97373 215.33317,123.28858 199.2429,127.16023 C 179.69042,131.86499 156.42847,131.23516 133.11076,128.72299 C 140.26116,134.29465 166.12162,144.08946 188.15942,145.17829 C 212.8347,146.39743 227.29069,143.83837 232.56148,144.27507 z "
       id="path11219"
       sodipodi:nodetypes="ccccscscsc" />
    <path
       style="fill:none;fill-opacity:0.75;fill-rule:evenodd;stroke:#000000;stroke-width:2.99999881;stroke-linecap:butt;stroke-linejoin:miter;stroke-miterlimit:4;stroke-dasharray:none;stroke-opacity:1"
       d="M 203.49178,61.434752 L 187.21415,51.500342 C 185.65077,60.790599 181.58969,73.962851 173.13208,78.795481"
       id="path13511"
       sodipodi:nodetypes="ccc" />
    <path
       style="fill:#ffffff;fill-opacity:1;fill-rule:evenodd;stroke:#000000;stroke-width:2.99999881;stroke-linecap:butt;stroke-linejoin:miter;stroke-miterlimit:4;stroke-dasharray:none;stroke-opacity:1"
       d="M 206.09984,67.043905 C 212.54984,74.952713 213.61115,81.381797 212.63533,88.793343 C 199.14546,90.536222 188.3934,89.585347 174.65727,87.049376 C 187.51088,76.508293 193.03549,72.775721 206.09984,67.043905 z "
       id="path13513"
       sodipodi:nodetypes="cccc" />
    <path
       style="fill:#000000;fill-opacity:1;fill-rule:evenodd;stroke:#000000;stroke-width:2.99999881;stroke-linecap:butt;stroke-linejoin:miter;stroke-miterlimit:4;stroke-dasharray:none;stroke-opacity:1"
       d="M 205.14203,74.416851 C 201.98039,75.483842 200.35037,78.062752 200.28905,79.786169 C 201.24917,80.749281 203.85017,82.304509 207.73539,81.836523 C 208.25027,78.656474 206.38869,75.956632 205.14203,74.416851 z "
       id="path13515"
       sodipodi:nodetypes="cccc" />
    <path
       style="fill:#00862b;fill-opacity:1;fill-rule:evenodd;stroke:#000000;stroke-width:2.99999952;stroke-linecap:butt;stroke-linejoin:bevel;stroke-miterlimit:4;stroke-dasharray:none;stroke-opacity:1"
       d="M 151.30781,54.60117 C 150.28887,41.84261 153.33377,22.105539 159.08874,15.924977 C 161.45199,13.386965 164.82004,11.931522 164.9629,12.983433 C 163.9593,16.471839 168.20178,17.757235 171.29186,17.061851 C 175.54973,16.103669 176.5831,11.553643 175.18203,8.6732934 C 173.02224,4.2331366 167.64817,2.1105192 165.59758,6.5043756 C 153.04569,9.0281281 146.40647,18.725268 143.56619,51.988261"
       id="path22785"
       sodipodi:nodetypes="cscsscc" />
    <path
       style="opacity:1;color:#000000;fill:#00862b;fill-opacity:1;fill-rule:evenodd;stroke:#000000;stroke-width:2.99999976;stroke-linecap:butt;stroke-linejoin:miter;marker:none;marker-start:none;marker-mid:none;marker-end:none;stroke-miterlimit:4;stroke-dasharray:none;stroke-dashoffset:0;stroke-opacity:1;visibility:visible;display:inline;overflow:visible"
       d="M 150.26361,186.79272 L 155.96717,207.83737 L 140.99751,224.47157 L 158.8273,235.24592 L 164.29785,228.48117 L 151.76802,222.34274 L 163.22982,210.41411 L 161.76676,185.21981"
       id="path4223"
       sodipodi:nodetypes="cccccccc" />
  </g>
</svg>
