<?xml version="1.0" encoding="UTF-8" standalone="no"?>
<!-- Created with Inkscape (http://www.inkscape.org/) -->
<svg
   xmlns:dc="http://purl.org/dc/elements/1.1/"
   xmlns:cc="http://web.resource.org/cc/"
   xmlns:rdf="http://www.w3.org/1999/02/22-rdf-syntax-ns#"
   xmlns:svg="http://www.w3.org/2000/svg"
   xmlns="http://www.w3.org/2000/svg"
   xmlns:sodipodi="http://inkscape.sourceforge.net/DTD/sodipodi-0.dtd"
   xmlns:inkscape="http://www.inkscape.org/namespaces/inkscape"
   width="320.00000px"
   height="240.00000px"
   id="svg2"
   sodipodi:version="0.32"
   inkscape:version="0.43"
   sodipodi:docbase="/home/joe/programming/gnumch/data/animation/pics"
   sodipodi:docname="smarty__walking_down_02.svg"
   inkscape:export-filename="/home/joe/programming/gnumch/data/animation/pics/muncher__eating_down_01.png"
   inkscape:export-xdpi="36.000000"
   inkscape:export-ydpi="36.000000">
  <defs
     id="defs3">
    <linearGradient
       id="linearGradient2531">
      <stop
         style="stop-color:#91c5a9;stop-opacity:1.0000000;"
         offset="0.0000000"
         id="stop2533" />
      <stop
         id="stop2539"
         offset="0.070000000"
         style="stop-color:#91c5a9;stop-opacity:1.0000000;" />
      <stop
         style="stop-color:#9107a9;stop-opacity:1.0000000;"
         offset="1.0000000"
         id="stop2535" />
    </linearGradient>
  </defs>
  <sodipodi:namedview
     id="base"
     pagecolor="#ffffff"
     bordercolor="#666666"
     borderopacity="1.0"
     inkscape:pageopacity="0.0000000"
     inkscape:pageshadow="2"
     inkscape:zoom="4.0083333"
     inkscape:cx="160"
     inkscape:cy="120"
     inkscape:document-units="px"
     inkscape:current-layer="layer2"
     showborder="true"
     borderlayer="top"
     showgrid="true"
     inkscape:grid-bbox="false"
     inkscape:grid-points="false"
     showguides="true"
     gridspacingx="2.0000000px"
     gridspacingy="2.0000000px"
     gridtolerance="2.0000000px"
     inkscape:window-width="1479"
     inkscape:window-height="1137"
     inkscape:window-x="0"
     inkscape:window-y="0"
     inkscape:guide-bbox="true" />
  <metadata
     id="metadata4">
    <rdf:RDF>
      <cc:Work
         rdf:about="">
        <dc:format>image/svg+xml</dc:format>
        <dc:type
           rdf:resource="http://purl.org/dc/dcmitype/StillImage" />
      </cc:Work>
    </rdf:RDF>
  </metadata>
  <g
     style="display:none"
     inkscape:label="Layer 1"
     inkscape:groupmode="layer"
     id="layer1">
    <path
       style="fill:#0055ff;fill-opacity:1.0000000;fill-rule:evenodd;stroke:#000000;stroke-width:2.5000000;stroke-linecap:butt;stroke-linejoin:miter;stroke-miterlimit:4.0000000;stroke-opacity:1.0000000"
       d="M 16.000000,40.000000 L 256.00000,40.000000 L 256.00000,104.00000 L 80.000000,104.00000 L 80.000000,72.000000 L 48.000000,72.000000 L 48.000000,128.00000 L 280.00000,128.00000 L 280.00000,80.000000 L 312.00000,80.000000 L 312.00000,160.00000 L 16.000000,160.00000 L 16.000000,40.000000 z "
       id="path1061"
       sodipodi:nodetypes="ccccccccccccc" />
    <path
       style="fill:#0055ff;fill-opacity:1.0000000;fill-rule:evenodd;stroke:#000000;stroke-width:4.0000000;stroke-linecap:butt;stroke-linejoin:miter;stroke-miterlimit:4.0000000;stroke-opacity:1.0000000"
       d="M 150.00000,160.00000 L 134.00000,160.00000 L 154.00000,188.00000 L 134.00000,212.00000 L 134.00000,232.00000 L 178.00000,232.00000 L 178.00000,212.00000 L 150.00000,212.00000 L 166.00000,188.00000 L 150.00000,160.00000 z "
       id="path1064"
       sodipodi:nodetypes="czcccccccs" />
    <path
       style="fill:#0055ff;fill-opacity:1.0000000;fill-rule:evenodd;stroke:#000000;stroke-width:4.0000000;stroke-linecap:butt;stroke-linejoin:miter;stroke-miterlimit:4.0000000;stroke-opacity:1.0000000"
       d="M 178.00000,160.00000 L 162.00000,160.00000 L 182.00000,188.00000 L 162.00000,212.00000 L 162.00000,232.00000 L 206.00000,232.00000 L 206.00000,212.00000 L 178.00000,212.00000 L 194.00000,188.00000 L 178.00000,160.00000 z "
       id="path2091"
       sodipodi:nodetypes="czcccccccs" />
  </g>
  <g
     style="display:inline"
     inkscape:label="Layer 2"
     id="layer2"
     inkscape:groupmode="layer">
    <path
       style="opacity:1;color:#000000;fill:#00862b;fill-opacity:1;fill-rule:evenodd;stroke:#000000;stroke-width:2.99999976;stroke-linecap:butt;stroke-linejoin:miter;marker:none;marker-start:none;marker-mid:none;marker-end:none;stroke-miterlimit:4;stroke-dasharray:none;stroke-dashoffset:0;stroke-opacity:1;visibility:visible;display:inline;overflow:visible"
       d="M 158.85676,179.39938 L 143.24005,186.44518 L 146.44532,193.97503 L 150.34061,194.62894 L 150.88114,200.32101 L 134.52227,201.31021 L 134.5131,194.45802 L 141.18455,194.12038 L 135.28686,183.57707 L 150.4011,177.14815"
       id="path9840"
       sodipodi:nodetypes="cccccccccc" />
    <path
       style="opacity:1;color:#000000;fill:#00862b;fill-opacity:1;fill-rule:evenodd;stroke:#000000;stroke-width:2.99999976;stroke-linecap:butt;stroke-linejoin:miter;marker:none;marker-start:none;marker-mid:none;marker-end:none;stroke-miterlimit:4;stroke-dasharray:none;stroke-dashoffset:0;stroke-opacity:1;visibility:visible;display:inline;overflow:visible"
       d="M 174.01435,175.0779 L 175.13583,191.65159 L 180.6587,199.43895 L 185.58403,200.09286 L 186.12456,205.78493 L 168.73565,207.03164 L 167.95394,200.69447 L 174.6254,199.84181 L 167.69767,191.87362 L 162.46856,173.85671"
       id="path4223"
       sodipodi:nodetypes="cccccccccc" />
    <path
       style="opacity:1;color:#000000;fill:#ffffff;fill-opacity:1;fill-rule:evenodd;stroke:#000000;stroke-width:2.99999928;stroke-linecap:butt;stroke-linejoin:miter;marker:none;marker-start:none;marker-mid:none;marker-end:none;stroke-miterlimit:4;stroke-dasharray:none;stroke-dashoffset:0;stroke-opacity:1;visibility:visible;display:inline;overflow:visible"
       d="M 119.74249,126.91158 L 117.42489,144.42231 L 130.81545,131.03175 L 129.01288,146.22488 L 145.23605,133.09184 L 158.3691,137.98454 L 164.29185,149.0575 L 170.98713,135.40944 L 182.57511,149.57252 L 183.09013,128.71416 L 119.74249,126.91158 z "
       id="path9834"
       sodipodi:nodetypes="ccccccccccc" />
    <path
       style="opacity:1;color:#000000;fill:#ffffff;fill-opacity:1;fill-rule:evenodd;stroke:#000000;stroke-width:2.99999928;stroke-linecap:butt;stroke-linejoin:miter;marker:none;marker-start:none;marker-mid:none;marker-end:none;stroke-miterlimit:4;stroke-dasharray:none;stroke-dashoffset:0;stroke-opacity:1;visibility:visible;display:inline;overflow:visible"
       d="M 128.75537,158.32788 L 139.0558,148.02746 L 142.66094,163.22059 L 149.09872,149.31502 L 154.50644,163.4781 L 159.91416,149.57252 L 167.897,163.22059 L 189.5279,151.37509 L 189.5279,134.6369 L 201.6309,155.23776 L 158.3691,175.06608 L 107.38197,161.1605 L 125.40773,142.87724 L 128.75537,158.32788 z "
       id="path9836"
       sodipodi:nodetypes="cccccccccccccc" />
    <path
       style="color:#000000;fill:#00862b;fill-opacity:1;fill-rule:evenodd;stroke:#000000;stroke-width:3;stroke-linecap:butt;stroke-linejoin:miter;marker:none;marker-start:none;marker-mid:none;marker-end:none;stroke-miterlimit:4;stroke-dashoffset:0;stroke-opacity:1;visibility:visible;display:inline;overflow:visible"
       d="M 234.07724,103.09183 C 234.07724,147.08599 204.24102,182.7914 160.81544,182.7914 C 117.38987,182.7914 82.145922,147.08599 82.145922,103.09183 C 82.145922,59.097663 117.38987,23.392256 160.81544,23.392256 C 204.24102,23.392256 234.07724,59.097663 234.07724,103.09183 z M 106.35192,120.73131 C 121.11587,132.49096 143.16463,141.6628 159.14162,142.1047 C 174.58632,142.53899 192.44635,133.17766 206.5236,121.76135 C 203.00429,135.92443 190.4827,149.62095 179.74248,155.23774 C 166.19086,162.32481 147.27148,161.01724 133.13304,154.72273 C 122.2071,149.85844 110.90128,138.15621 106.35192,120.73131 z "
       id="path8922"
       sodipodi:nodetypes="csssccccssc" />
    <path
       style="color:#000000;fill:#00862b;fill-opacity:1;fill-rule:evenodd;stroke:#000000;stroke-width:2.99999881;stroke-linecap:butt;stroke-linejoin:bevel;marker:none;marker-start:none;marker-mid:none;marker-end:none;stroke-miterlimit:4;stroke-dasharray:none;stroke-dashoffset:0;stroke-opacity:1;visibility:visible;display:inline;overflow:visible"
       d="M 172.17306,36.979334 C 176.34809,30.768226 179.23563,24.862407 188.25567,23.394369 C 188.3028,25.560779 189.38248,27.577158 191.37891,28.466635 C 194.20591,29.726148 197.64534,28.315106 198.9689,25.268858 C 200.26134,22.294238 199.891,18.560357 197.54819,16.608569 C 195.6419,15.020446 191.3264,14.466953 189.95709,17.486296 C 178.54746,17.544522 173.43412,21.331661 162.73386,34.852463"
       id="path22797"
       sodipodi:nodetypes="ccssscc" />
    <path
       style="fill:none;fill-opacity:0.75;fill-rule:evenodd;stroke:#000000;stroke-width:2.99999881;stroke-linecap:butt;stroke-linejoin:miter;stroke-miterlimit:4;stroke-dasharray:none;stroke-opacity:1;display:inline"
       d="M 194.65909,73.242751 L 182.29731,59.211149 C 176.84604,65.874273 170.58235,68.873555 161.98123,73.445875"
       id="path8925"
       sodipodi:nodetypes="ccc" />
    <path
       id="path8936"
       style="fill:#ffffff;fill-opacity:1;fill-rule:evenodd;stroke:#000000;stroke-width:2.99999928;stroke-linecap:butt;stroke-linejoin:miter;stroke-miterlimit:4;stroke-opacity:1;display:inline"
       d="M 180.84333,90.753535 C 174.18379,89.250755 168.35522,86.375625 162.04631,81.346026 C 168.90664,76.487829 171.95594,74.11205 180.77253,72.940844 C 187.91531,74.116056 190.06331,76.878104 193.44724,81.221271 C 190.09971,85.607105 187.10376,89.769785 180.84333,90.753535 z "
       sodipodi:nodetypes="ccccc" />
    <path
       id="path9817"
       style="fill:#ffffff;fill-opacity:1;fill-rule:evenodd;stroke:#000000;stroke-width:2.99999928;stroke-linecap:butt;stroke-linejoin:miter;stroke-miterlimit:4;stroke-opacity:1;display:inline"
       d="M 128.78293,90.815375 C 135.44247,89.312595 141.27104,86.437465 147.57995,81.40786 C 140.71962,76.54966 137.67032,74.17389 128.85373,73.00268 C 121.71095,74.17789 119.56295,76.93994 116.17902,81.28311 C 119.52655,85.668945 122.5225,89.831625 128.78293,90.815375 z "
       sodipodi:nodetypes="ccccc" />
    <path
       sodipodi:type="arc"
       style="opacity:1;color:#000000;fill:#000000;fill-opacity:1;fill-rule:evenodd;stroke:#000000;stroke-width:3.99037313;stroke-linecap:butt;stroke-linejoin:miter;marker:none;marker-start:none;marker-mid:none;marker-end:none;stroke-miterlimit:4;stroke-dasharray:none;stroke-dashoffset:0;stroke-opacity:1;visibility:visible;display:inline;overflow:visible"
       id="path8940"
       sodipodi:cx="141.63091"
       sodipodi:cy="83.81974"
       sodipodi:rx="3.0901287"
       sodipodi:ry="3.0901287"
       d="M 144.72103 83.81974 A 3.0901287 3.0901287 0 1 1  138.54078,83.81974 A 3.0901287 3.0901287 0 1 1  144.72103 83.81974 z"
       transform="matrix(0.565217,0,0,1,51.60012,-2.358815)" />
    <path
       sodipodi:type="arc"
       style="opacity:1;color:#000000;fill:#000000;fill-opacity:1;fill-rule:evenodd;stroke:#000000;stroke-width:3.8496573;stroke-linecap:butt;stroke-linejoin:miter;marker:none;marker-start:none;marker-mid:none;marker-end:none;stroke-miterlimit:4;stroke-dasharray:none;stroke-dashoffset:0;stroke-opacity:1;visibility:visible;display:inline;overflow:visible"
       id="path9815"
       sodipodi:cx="141.63091"
       sodipodi:cy="83.81974"
       sodipodi:rx="3.0901287"
       sodipodi:ry="3.0901287"
       d="M 144.72103 83.81974 A 3.0901287 3.0901287 0 1 1  138.54078,83.81974 A 3.0901287 3.0901287 0 1 1  144.72103 83.81974 z"
       transform="matrix(0.607293,0,0,1,95.01847,-2.358815)" />
    <path
       style="fill:none;fill-opacity:0.75;fill-rule:evenodd;stroke:#000000;stroke-width:2.99999881;stroke-linecap:butt;stroke-linejoin:miter;stroke-miterlimit:4;stroke-dasharray:none;stroke-opacity:1;display:inline"
       d="M 114.47652,73.310783 L 126.8383,59.279181 C 132.28957,65.942305 138.55326,68.941587 147.15438,73.513907"
       id="path9819"
       sodipodi:nodetypes="ccc" />
    <path
       style="color:#000000;fill:#00862b;fill-opacity:1;fill-rule:evenodd;stroke:#000000;stroke-width:2.99999905;stroke-linecap:butt;stroke-linejoin:bevel;marker:none;marker-start:none;marker-mid:none;marker-end:none;stroke-miterlimit:4;stroke-dasharray:none;stroke-dashoffset:0;stroke-opacity:1;visibility:visible;display:inline;overflow:visible"
       d="M 135.68135,36.618963 C 125.45982,26.891478 120.96882,28.337336 110.96471,31.265125 C 111.99657,33.2072 110.86218,34.470356 109.25352,36.194634 C 106.97561,38.63625 102.73645,38.998213 99.856858,36.918998 C 97.044988,34.888671 95.563738,31.405894 96.998718,28.577751 C 98.166328,26.276558 102.32639,23.762803 105.23959,25.796725 C 116.99703,20.499187 130.11011,20.69955 143.21642,33.331024"
       id="path9842"
       sodipodi:nodetypes="ccssscc" />
  </g>
</svg>
